<?xml version="1.0" standalone="no"?><!DOCTYPE svg PUBLIC "-//W3C//DTD SVG 1.1//EN" "http://www.w3.org/Graphics/SVG/1.1/DTD/svg11.dtd"><svg height="1200" node-id="1" sillyvg="true" template-height="1200" template-width="1200" version="1.1" viewBox="0 0 1200 1200" width="1200" xmlns="http://www.w3.org/2000/svg" xmlns:xlink="http://www.w3.org/1999/xlink"><defs node-id="73"></defs><g node-id="75"><path d="M 1.00 1.00 L 1.00 1199.00 L 1199.00 1199.00 L 1199.00 1.00 L 1.00 1.00 M 0.00 0.00 L 1200.00 0.00 L 1200.00 1200.00 L 0.00 1200.00 Z" fill="#8b93a0" fill-opacity="0.01" fill-rule="nonzero" group-id="1" id="_1" node-id="3" stroke="none" target-height="1200" target-width="1200" target-x="0" target-y="0"></path></g><g node-id="76"><g node-id="85"><path d="M 221.70 169.00 L 1086.70 169.00 L 1091.20 169.20 L 1095.50 169.90 L 1099.60 170.90 L 1103.60 172.40 L 1107.40 174.20 L 1114.20 178.90 L 1120.10 184.70 L 1122.60 188.10 L 1126.60 195.40 L 1128.00 199.40 L 1129.10 203.50 L 1129.70 207.80 L 1130.00 212.30 L 1130.00 796.10 L 1129.70 800.60 L 1129.10 804.90 L 1128.00 809.00 L 1126.60 813.00 L 1124.70 816.80 L 1120.10 823.60 L 1117.30 826.70 L 1114.20 829.50 L 1107.40 834.10 L 1103.60 836.00 L 1099.60 837.40 L 1095.50 838.50 L 1091.20 839.10 L 1086.70 839.40 L 221.70 839.40 L 217.20 839.10 L 212.90 838.50 L 208.80 837.40 L 204.90 836.00 L 201.10 834.10 L 194.20 829.50 L 188.30 823.60 L 185.80 820.30 L 181.90 813.00 L 180.40 809.00 L 179.30 804.90 L 178.70 800.60 L 178.50 796.10 L 178.50 212.30 L 178.70 207.80 L 179.30 203.50 L 180.40 199.40 L 181.90 195.40 L 185.80 188.10 L 191.10 181.70 L 197.50 176.40 L 204.90 172.40 L 208.80 170.90 L 212.90 169.90 L 217.20 169.20 L 221.70 169.00 Z" fill="#252c37" fill-rule="evenodd" group-id="2,11" id="bg" node-id="5" stroke="#eeeeee" stroke-linecap="butt" stroke-width="1" target-height="670.4" target-width="951.5" target-x="178.5" target-y="169"></path></g><g node-id="86"><path d="M 219.50 169.00 L 1086.70 169.00 L 1091.20 169.20 L 1095.50 169.90 L 1099.60 170.90 L 1103.60 172.40 L 1110.90 176.40 L 1114.20 178.90 L 1120.10 184.70 L 1124.70 191.60 L 1126.60 195.40 L 1128.00 199.40 L 1129.10 203.50 L 1129.70 207.80 L 1130.00 212.30 L 1130.00 254.60 L 176.30 254.60 L 176.30 212.30 L 176.50 207.80 L 177.20 203.50 L 178.20 199.40 L 179.70 195.40 L 181.50 191.60 L 186.20 184.70 L 189.00 181.70 L 192.00 178.90 L 198.90 174.20 L 202.70 172.40 L 206.70 170.90 L 210.80 169.90 L 215.00 169.20 L 219.50 169.00 Z" fill="#efefef" fill-rule="evenodd" group-id="2,12" id="bg_title" node-id="6" stroke="none" target-height="85.600006" target-width="953.7" target-x="176.3" target-y="169"></path></g><g node-id="87"><g node-id="130"><path d="M 1009.70 201.40 L 1013.80 202.20 L 1017.30 204.20 L 1019.80 207.20 L 1020.70 209.00 L 1021.40 213.10 L 1020.70 217.20 L 1018.70 220.60 L 1015.60 223.20 L 1011.90 224.60 L 1007.60 224.60 L 1005.60 224.10 L 1002.20 222.00 L 999.60 219.00 L 998.80 217.20 L 998.10 213.10 L 998.80 209.00 L 999.60 207.20 L 1002.20 204.20 L 1005.60 202.20 L 1009.70 201.40 Z M 1046.70 201.40 L 1050.80 202.20 L 1054.20 204.20 L 1056.80 207.20 L 1057.70 209.00 L 1058.40 213.10 L 1057.70 217.20 L 1055.60 220.60 L 1052.60 223.20 L 1048.80 224.60 L 1046.70 224.80 L 1044.60 224.60 L 1042.60 224.10 L 1039.20 222.00 L 1036.60 219.00 L 1035.80 217.20 L 1035.00 213.10 L 1035.80 209.00 L 1037.80 205.60 L 1040.80 203.00 L 1042.60 202.20 L 1046.70 201.40 Z" fill="#2968ff" fill-opacity="0.3" fill-rule="evenodd" group-id="2,13,56" id="路径_1292" node-id="8" stroke="none" target-height="23.40001" target-width="60.30005" target-x="998.1" target-y="201.4"></path></g><path d="M 1081.70 201.40 L 1085.80 202.20 L 1089.30 204.20 L 1091.80 207.20 L 1092.70 209.00 L 1093.40 213.10 L 1092.70 217.20 L 1090.70 220.60 L 1087.60 223.20 L 1083.90 224.60 L 1079.60 224.60 L 1077.70 224.10 L 1074.20 222.00 L 1071.70 219.00 L 1070.80 217.20 L 1070.10 213.10 L 1070.80 209.00 L 1071.70 207.20 L 1074.20 204.20 L 1077.70 202.20 L 1081.70 201.40 Z" fill="#2968ff" fill-rule="evenodd" group-id="2,13,57" id="路径_1295" node-id="9" stroke="none" target-height="23.200012" target-width="23.300049" target-x="1070.1" target-y="201.4"></path></g><g node-id="88"><g node-id="132"><path d="M 234.70 517.20 L 641.20 517.20 L 643.60 517.50 L 645.60 518.30 L 647.30 519.70 L 648.70 521.50 L 649.60 523.50 L 649.90 525.80 L 649.90 768.00 L 649.60 770.30 L 648.70 772.40 L 647.30 774.10 L 645.60 775.50 L 643.60 776.40 L 641.20 776.70 L 234.70 776.70 L 232.40 776.40 L 230.30 775.50 L 228.60 774.10 L 227.20 772.40 L 226.30 770.30 L 226.00 768.00 L 226.00 525.80 L 226.70 522.50 L 228.60 519.70 L 231.40 517.80 L 234.70 517.20 Z" fill="#8b93a0" fill-opacity="0.0035769998" fill-rule="nonzero" group-id="2,14,58" id="路径_1491" node-id="11" stroke="none" target-height="259.5" target-width="423.90002" target-x="226" target-y="517.2"></path></g><g node-id="133"><path d="M 688.80 517.20 L 1095.40 517.20 L 1097.70 517.50 L 1099.70 518.30 L 1101.50 519.70 L 1102.80 521.50 L 1103.70 523.50 L 1104.00 525.80 L 1104.00 768.00 L 1103.70 770.30 L 1102.80 772.40 L 1101.50 774.10 L 1099.70 775.50 L 1097.70 776.40 L 1095.40 776.70 L 688.80 776.70 L 686.50 776.40 L 684.40 775.50 L 682.70 774.10 L 681.30 772.40 L 680.50 770.30 L 680.20 768.00 L 680.20 525.80 L 680.50 523.50 L 681.30 521.50 L 682.70 519.70 L 684.40 518.30 L 686.50 517.50 L 688.80 517.20 Z" fill="#8b93a0" fill-opacity="0.0035769998" fill-rule="nonzero" group-id="2,14,59" id="路径_1494" node-id="12" stroke="none" target-height="259.5" target-width="423.8" target-x="680.2" target-y="517.2"></path></g><g node-id="134"><path d="M 302.80 629.60 L 307.60 629.40 L 312.20 628.70 L 316.60 627.50 L 320.90 626.00 L 325.00 624.00 L 328.80 621.70 L 332.40 619.00 L 335.70 616.00 L 338.70 612.70 L 341.30 609.10 L 343.70 605.30 L 345.60 601.20 L 347.20 597.00 L 348.30 592.60 L 349.00 588.00 L 349.30 583.10 L 349.10 578.50 L 348.40 574.00 L 347.30 569.60 L 345.80 565.30 L 343.80 561.20 L 341.50 557.30 L 338.80 553.70 L 335.70 550.20 L 332.20 547.10 L 328.60 544.40 L 324.70 542.10 L 320.60 540.20 L 316.30 538.60 L 311.90 537.50 L 307.40 536.90 L 302.80 536.60 L 298.00 536.90 L 293.40 537.60 L 288.90 538.70 L 284.70 540.30 L 280.60 542.30 L 276.80 544.60 L 273.20 547.20 L 269.90 550.20 L 266.90 553.60 L 264.30 557.10 L 261.90 560.90 L 260.00 565.00 L 258.40 569.30 L 257.30 573.70 L 256.60 578.30 L 256.30 583.10 L 256.50 587.80 L 257.20 592.30 L 258.30 596.60 L 259.80 600.90 L 261.80 605.00 L 264.10 608.90 L 266.80 612.60 L 269.90 616.00 L 273.40 619.10 L 277.00 621.80 L 280.90 624.10 L 285.00 626.10 L 289.30 627.60 L 293.70 628.70 L 298.20 629.40 L 302.80 629.60 Z" fill="#8b93a0" fill-opacity="0.00657" fill-rule="nonzero" group-id="2,14,60" id="路径_1497" node-id="13" stroke="none" target-height="93" target-width="93" target-x="256.3" target-y="536.6"></path></g><g node-id="135"><path d="M 373.40 547.40 L 596.50 547.40 L 598.30 547.70 L 599.90 548.30 L 601.30 549.40 L 602.40 550.90 L 603.10 552.40 L 603.30 554.20 L 603.10 556.00 L 602.40 557.60 L 601.30 559.00 L 599.90 560.10 L 598.30 560.80 L 596.50 561.00 L 373.40 561.00 L 371.60 560.80 L 370.00 560.10 L 368.60 559.00 L 367.50 557.60 L 366.80 556.00 L 366.60 554.20 L 366.80 552.40 L 367.50 550.90 L 368.60 549.40 L 370.00 548.30 L 371.60 547.70 L 373.40 547.40 Z M 373.40 578.00 L 596.50 578.00 L 598.30 578.20 L 599.90 578.90 L 601.30 580.00 L 602.40 581.40 L 603.10 583.00 L 603.30 584.80 L 603.10 586.60 L 602.40 588.20 L 601.30 589.60 L 599.90 590.70 L 598.30 591.30 L 596.50 591.60 L 373.40 591.60 L 371.60 591.30 L 370.00 590.70 L 368.60 589.60 L 367.50 588.20 L 366.80 586.60 L 366.60 584.80 L 366.80 583.00 L 367.50 581.40 L 368.60 580.00 L 370.00 578.90 L 371.60 578.20 L 373.40 578.00 Z M 373.40 608.50 L 596.50 608.50 L 598.30 608.80 L 599.90 609.40 L 601.30 610.50 L 602.40 612.00 L 603.10 613.50 L 603.30 615.30 L 603.10 617.10 L 602.40 618.70 L 601.30 620.10 L 599.90 621.20 L 598.30 621.90 L 596.50 622.10 L 373.40 622.10 L 371.60 621.90 L 370.00 621.20 L 368.60 620.10 L 367.50 618.70 L 366.80 617.10 L 366.60 615.30 L 366.80 613.50 L 367.50 612.00 L 368.60 610.50 L 370.00 609.40 L 371.60 608.80 L 373.40 608.50 Z M 373.40 637.40 L 596.50 637.40 L 598.30 637.60 L 599.90 638.30 L 601.30 639.40 L 602.40 640.80 L 603.10 642.40 L 603.30 644.20 L 603.10 646.00 L 602.40 647.60 L 601.30 649.00 L 599.90 650.10 L 598.30 650.70 L 596.50 651.00 L 373.40 651.00 L 371.60 650.70 L 370.00 650.10 L 368.60 649.00 L 367.50 647.60 L 366.80 646.00 L 366.60 644.20 L 366.80 642.40 L 367.50 640.80 L 368.60 639.40 L 370.00 638.30 L 371.60 637.60 L 373.40 637.40 Z M 373.40 667.90 L 596.50 667.90 L 598.30 668.20 L 599.90 668.80 L 601.30 669.90 L 602.40 671.40 L 603.10 672.90 L 603.30 674.70 L 603.10 676.50 L 602.40 678.10 L 601.30 679.50 L 599.90 680.60 L 598.30 681.30 L 596.50 681.50 L 373.40 681.50 L 371.60 681.30 L 370.00 680.60 L 368.60 679.50 L 367.50 678.10 L 366.80 676.50 L 366.60 674.70 L 366.80 672.90 L 367.50 671.40 L 368.60 669.90 L 370.00 668.80 L 371.60 668.20 L 373.40 667.90 Z M 714.10 547.40 L 937.20 547.40 L 939.00 547.70 L 940.60 548.30 L 942.00 549.40 L 943.10 550.90 L 943.70 552.40 L 944.00 554.20 L 943.70 556.00 L 943.10 557.60 L 942.00 559.00 L 940.60 560.10 L 939.00 560.80 L 937.20 561.00 L 714.10 561.00 L 712.30 560.80 L 710.70 560.10 L 709.20 559.00 L 708.10 557.60 L 707.50 556.00 L 707.20 554.20 L 707.50 552.40 L 708.10 550.90 L 709.20 549.40 L 710.70 548.30 L 712.30 547.70 L 714.10 547.40 Z M 714.10 578.00 L 937.20 578.00 L 939.00 578.20 L 940.60 578.90 L 942.00 580.00 L 943.10 581.40 L 943.70 583.00 L 944.00 584.80 L 943.70 586.60 L 943.10 588.20 L 942.00 589.60 L 940.60 590.70 L 939.00 591.30 L 937.20 591.60 L 714.10 591.60 L 712.30 591.30 L 710.70 590.70 L 709.20 589.60 L 708.10 588.20 L 707.50 586.60 L 707.20 584.80 L 707.50 583.00 L 708.10 581.40 L 709.20 580.00 L 710.70 578.90 L 712.30 578.20 L 714.10 578.00 Z" fill="#8b93a0" fill-opacity="0.00657" fill-rule="evenodd" group-id="2,14,61" id="路径_1500" node-id="14" stroke="none" target-height="134.09998" target-width="577.4" target-x="366.6" target-y="547.4"></path></g><g node-id="136"><path d="M 287.20 294.40 L 365.70 294.40 L 368.30 294.70 L 370.90 295.50 L 373.20 296.70 L 375.30 298.50 L 377.00 300.60 L 378.30 302.90 L 379.00 305.50 L 379.30 308.20 L 379.30 388.80 L 379.10 391.30 L 378.50 393.60 L 376.10 397.70 L 372.60 400.70 L 370.40 401.70 L 368.20 402.30 L 365.70 402.60 L 287.20 402.60 L 284.70 402.30 L 282.50 401.70 L 280.30 400.70 L 276.80 397.70 L 274.40 393.60 L 273.80 391.30 L 273.60 388.80 L 273.60 308.20 L 273.80 305.70 L 274.40 303.40 L 275.40 301.20 L 278.40 297.70 L 280.30 296.30 L 282.50 295.30 L 284.70 294.70 L 287.20 294.40 Z M 515.70 294.40 L 594.10 294.40 L 596.60 294.70 L 598.90 295.30 L 601.00 296.30 L 604.50 299.30 L 606.90 303.40 L 607.50 305.70 L 607.70 308.20 L 607.70 388.80 L 607.50 391.30 L 606.90 393.60 L 605.90 395.70 L 604.50 397.70 L 601.00 400.70 L 598.90 401.70 L 596.60 402.30 L 594.10 402.60 L 515.70 402.60 L 513.20 402.30 L 510.90 401.70 L 508.80 400.70 L 505.20 397.70 L 503.90 395.70 L 502.90 393.60 L 502.30 391.30 L 502.00 388.80 L 502.00 308.20 L 502.30 305.70 L 502.90 303.40 L 503.90 301.20 L 506.90 297.70 L 510.90 295.30 L 513.20 294.70 L 515.70 294.40 Z M 742.40 294.40 L 820.80 294.40 L 823.30 294.70 L 825.60 295.30 L 827.70 296.30 L 831.30 299.30 L 832.60 301.20 L 833.60 303.40 L 834.30 305.70 L 834.50 308.20 L 834.50 388.80 L 834.30 391.30 L 833.60 393.60 L 831.30 397.70 L 827.70 400.70 L 825.60 401.70 L 823.30 402.30 L 820.80 402.60 L 742.40 402.60 L 739.90 402.30 L 737.60 401.70 L 735.50 400.70 L 732.00 397.70 L 729.60 393.60 L 729.00 391.30 L 728.80 388.80 L 728.80 308.20 L 729.00 305.70 L 729.60 303.40 L 730.60 301.20 L 733.60 297.70 L 735.50 296.30 L 737.60 295.30 L 739.90 294.70 L 742.40 294.40 Z M 970.90 294.40 L 1049.30 294.40 L 1051.80 294.70 L 1054.10 295.30 L 1056.20 296.30 L 1059.70 299.30 L 1061.10 301.20 L 1062.10 303.40 L 1062.70 305.70 L 1062.90 308.20 L 1062.90 388.80 L 1062.70 391.30 L 1062.10 393.60 L 1061.10 395.70 L 1059.70 397.70 L 1056.20 400.70 L 1054.10 401.70 L 1051.80 402.30 L 1049.30 402.60 L 970.90 402.60 L 968.40 402.30 L 966.10 401.70 L 964.00 400.70 L 960.40 397.70 L 959.10 395.70 L 958.10 393.60 L 957.50 391.30 L 957.20 388.80 L 957.20 308.20 L 957.50 305.70 L 958.10 303.40 L 959.10 301.20 L 962.10 297.70 L 964.00 296.30 L 966.10 295.30 L 968.40 294.70 L 970.90 294.40 Z" fill="#f8f8f8" fill-opacity="0.073" fill-rule="evenodd" group-id="2,14,62" id="路径_2348" node-id="15" stroke="none" target-height="108.20001" target-width="789.30005" target-x="273.6" target-y="294.4"></path></g><g node-id="137"><path d="M 265.30 428.50 L 387.80 428.50 L 389.60 428.80 L 391.30 429.70 L 392.60 431.00 L 393.70 432.80 L 394.40 434.80 L 394.60 437.20 L 394.40 439.50 L 393.70 441.50 L 392.60 443.30 L 391.30 444.60 L 389.60 445.50 L 387.80 445.80 L 265.30 445.80 L 263.50 445.50 L 261.80 444.60 L 260.50 443.30 L 259.40 441.50 L 258.70 439.50 L 258.50 437.20 L 258.70 434.80 L 259.40 432.80 L 260.50 431.00 L 261.80 429.70 L 263.50 428.80 L 265.30 428.50 Z M 491.60 428.50 L 614.20 428.50 L 616.00 428.80 L 617.60 429.70 L 619.00 431.00 L 620.10 432.80 L 620.70 434.80 L 621.00 437.20 L 620.70 439.50 L 620.10 441.50 L 619.00 443.30 L 617.60 444.60 L 616.00 445.50 L 614.20 445.80 L 491.60 445.80 L 489.80 445.50 L 488.20 444.60 L 486.80 443.30 L 485.80 441.50 L 485.10 439.50 L 484.80 437.20 L 485.10 434.80 L 485.80 432.80 L 486.80 431.00 L 488.20 429.70 L 489.80 428.80 L 491.60 428.50 Z M 718.00 428.50 L 840.60 428.50 L 842.40 428.80 L 844.00 429.70 L 845.40 431.00 L 846.40 432.80 L 847.10 434.80 L 847.40 437.20 L 847.10 439.50 L 846.40 441.50 L 845.40 443.30 L 844.00 444.60 L 842.40 445.50 L 840.60 445.80 L 718.00 445.80 L 716.20 445.50 L 714.60 444.60 L 713.20 443.30 L 712.10 441.50 L 711.50 439.50 L 711.20 437.20 L 711.50 434.80 L 712.10 432.80 L 713.20 431.00 L 714.60 429.70 L 716.20 428.80 L 718.00 428.50 Z M 944.40 428.50 L 1066.90 428.50 L 1068.70 428.80 L 1070.40 429.70 L 1071.70 431.00 L 1072.80 432.80 L 1073.50 434.80 L 1073.70 437.20 L 1073.50 439.50 L 1072.80 441.50 L 1071.70 443.30 L 1070.40 444.60 L 1068.70 445.50 L 1066.90 445.80 L 944.40 445.80 L 942.60 445.50 L 940.90 444.60 L 939.60 443.30 L 938.50 441.50 L 937.80 439.50 L 937.60 437.20 L 937.80 434.80 L 938.50 432.80 L 939.60 431.00 L 940.90 429.70 L 942.60 428.80 L 944.40 428.50 Z" fill="#f8f8f8" fill-opacity="0.073" fill-rule="evenodd" group-id="2,14,63" id="路径_2347" node-id="16" stroke="none" target-height="17.299988" target-width="815.19995" target-x="258.5" target-y="428.5"></path></g><path d="M 688.80 752.90 L 690.90 745.50 L 695.30 734.00 L 701.00 722.40 L 707.20 712.60 L 710.70 707.90 L 714.70 703.30 L 719.10 698.90 L 723.90 694.80 L 729.20 691.10 L 734.90 687.90 L 739.40 685.80 L 744.20 684.10 L 749.30 682.70 L 754.80 681.80 L 760.30 681.20 L 766.10 681.20 L 772.50 681.70 L 810.40 688.00 L 819.30 689.20 L 833.50 690.20 L 840.00 690.20 L 845.80 689.70 L 850.80 688.90 L 855.70 687.60 L 860.20 685.80 L 864.50 683.70 L 868.60 681.10 L 872.70 678.00 L 876.90 674.30 L 883.10 668.20 L 890.20 660.40 L 897.10 652.30 L 916.80 627.10 L 923.50 620.20 L 927.20 617.20 L 931.10 614.70 L 935.40 612.60 L 939.90 611.00 L 945.00 609.80 L 950.90 609.20 L 956.90 609.10 L 963.90 609.60 L 979.30 611.70 L 985.30 612.20 L 990.40 612.20 L 995.50 611.70 L 999.80 610.90 L 1003.40 609.80 L 1006.90 608.20 L 1010.00 606.50 L 1012.60 604.50 L 1016.20 601.10 L 1019.20 597.40 L 1030.10 581.50 L 1034.50 576.90 L 1042.50 570.60 L 1058.70 556.10 L 1062.00 553.80 L 1064.30 552.70 L 1066.50 552.00 L 1068.80 551.80 L 1071.00 552.00 L 1073.50 552.80 L 1076.30 554.20 L 1078.00 556.40 L 1078.80 558.60 L 1079.60 561.90 L 1080.70 568.60 L 1081.60 578.20 L 1082.10 588.60 L 1082.40 613.80 L 1081.40 656.80 L 1078.90 711.60 L 1076.30 752.90 Z" fill="#f1f1f3" fill-opacity="0.073" fill-rule="evenodd" group-id="2,14,64" id="路径_2349" node-id="17" stroke="none" target-height="201.10004" target-width="393.60004" target-x="688.8" target-y="551.8"></path></g></g><g node-id="77"><g node-id="89"><path d="M 510.60 334.00 L 511.90 334.20 L 512.90 334.90 L 513.60 336.00 L 513.90 337.20 L 513.90 407.00 L 513.60 408.30 L 512.90 409.30 L 511.90 410.00 L 510.60 410.30 L 442.20 410.30 L 441.00 410.00 L 440.00 409.30 L 439.30 408.30 L 439.00 407.00 L 439.00 337.20 L 439.30 336.00 L 440.00 334.90 L 441.00 334.20 L 442.20 334.00 Z M 510.60 330.80 L 442.20 330.80 L 440.50 331.00 L 439.00 331.60 L 437.70 332.60 L 436.60 334.00 L 436.00 335.50 L 435.80 337.20 L 435.80 407.00 L 436.00 408.70 L 436.60 410.20 L 437.70 411.60 L 439.00 412.60 L 440.50 413.30 L 442.20 413.50 L 510.60 413.50 L 512.30 413.30 L 513.80 412.60 L 515.20 411.60 L 516.20 410.20 L 516.90 408.70 L 517.10 407.00 L 517.10 337.20 L 516.90 335.50 L 516.20 334.00 L 515.20 332.60 L 513.80 331.60 L 512.30 331.00 L 510.60 330.80 Z" fill="#8b93a0" fill-rule="nonzero" group-id="3,15" id="路径_1671" node-id="19" stroke="none" target-height="82.70001" target-width="81.29999" target-x="435.8" target-y="330.8"></path></g><path d="M 454.30 398.00 L 453.20 397.50 L 452.70 396.40 L 453.20 395.20 L 454.30 394.80 L 500.00 394.80 L 501.10 395.20 L 501.60 396.40 L 501.10 397.50 L 500.00 398.00 Z M 454.30 386.60 L 453.20 386.10 L 452.70 385.00 L 453.20 383.80 L 454.30 383.30 L 500.00 383.30 L 501.10 383.80 L 501.60 385.00 L 501.10 386.10 L 500.00 386.60 Z M 454.30 375.20 L 453.20 374.70 L 452.70 373.50 L 453.20 372.40 L 454.30 371.90 L 500.00 371.90 L 501.10 372.40 L 501.60 373.50 L 501.10 374.70 L 500.00 375.20 Z M 454.30 363.70 L 453.20 363.30 L 452.70 362.10 L 453.20 361.00 L 454.30 360.50 L 500.00 360.50 L 501.10 361.00 L 501.60 362.10 L 501.10 363.30 L 500.00 363.70 Z M 500.00 352.30 L 454.30 352.30 L 453.20 351.90 L 452.70 350.70 L 453.20 349.60 L 454.30 349.10 L 500.00 349.10 L 501.10 349.60 L 501.60 350.70 L 501.10 351.90 L 500.00 352.30 Z" fill="#2867ff" fill-rule="nonzero" group-id="3,16" id="路径_2350" node-id="20" stroke="none" target-height="48.899994" target-width="48.899994" target-x="452.7" target-y="349.1"></path></g><g node-id="78"><g node-id="91"><path d="M 750.70 321.30 L 751.90 321.60 L 753.00 322.30 L 753.70 323.30 L 753.90 324.60 L 753.90 394.40 L 753.70 395.60 L 753.00 396.70 L 751.90 397.40 L 750.70 397.60 L 682.30 397.60 L 681.00 397.40 L 680.00 396.70 L 679.30 395.60 L 679.10 394.40 L 679.10 324.60 L 679.30 323.30 L 680.00 322.30 L 681.00 321.60 L 682.30 321.30 Z M 750.70 318.10 L 682.30 318.10 L 680.60 318.30 L 679.10 319.00 L 677.70 320.00 L 676.70 321.40 L 676.10 322.90 L 675.80 324.60 L 675.80 394.40 L 676.10 396.10 L 676.70 397.60 L 677.70 399.00 L 679.10 400.00 L 680.60 400.60 L 682.30 400.80 L 750.70 400.80 L 752.40 400.60 L 753.90 400.00 L 755.20 399.00 L 756.30 397.60 L 756.90 396.10 L 757.10 394.40 L 757.10 324.60 L 756.90 322.90 L 756.30 321.40 L 755.20 320.00 L 753.90 319.00 L 752.40 318.30 L 750.70 318.10 Z" fill="#8b93a0" fill-rule="nonzero" group-id="4,17" id="路径_1671-2" node-id="22" stroke="none" target-height="82.69998" target-width="81.29999" target-x="675.8" target-y="318.1"></path></g><path d="M 694.40 385.30 L 693.20 384.90 L 692.80 383.70 L 693.20 382.60 L 694.40 382.10 L 740.00 382.10 L 741.20 382.60 L 741.60 383.70 L 741.20 384.90 L 740.00 385.30 Z M 694.40 373.90 L 693.20 373.50 L 692.80 372.30 L 693.20 371.20 L 694.40 370.70 L 740.00 370.70 L 741.20 371.20 L 741.60 372.30 L 741.20 373.50 L 740.00 373.90 Z M 694.40 362.50 L 693.20 362.10 L 692.80 360.90 L 693.20 359.80 L 694.40 359.30 L 740.00 359.30 L 741.20 359.80 L 741.60 360.90 L 741.20 362.10 L 740.00 362.50 Z M 694.40 351.10 L 693.20 350.60 L 692.80 349.50 L 693.20 348.40 L 694.40 347.90 L 740.00 347.90 L 741.20 348.40 L 741.60 349.50 L 741.20 350.60 L 740.00 351.10 Z M 740.00 339.70 L 694.40 339.70 L 693.20 339.20 L 692.80 338.10 L 693.20 336.90 L 694.40 336.50 L 740.00 336.50 L 741.20 336.90 L 741.60 338.10 L 741.20 339.20 L 740.00 339.70 Z" fill="#2867ff" fill-rule="nonzero" group-id="4,18" id="路径_2350-2" node-id="23" stroke="none" target-height="48.799988" target-width="48.799988" target-x="692.8" target-y="336.5"></path></g><g node-id="79"><g node-id="93"><path d="M 903.30 502.70 L 904.50 502.90 L 905.60 503.60 L 906.30 504.70 L 906.50 505.90 L 906.50 575.70 L 906.30 577.00 L 905.60 578.00 L 904.50 578.70 L 903.30 579.00 L 834.90 579.00 L 833.60 578.70 L 832.60 578.00 L 831.90 577.00 L 831.70 575.70 L 831.70 505.90 L 831.90 504.70 L 832.60 503.60 L 833.60 502.90 L 834.90 502.70 Z M 903.30 499.50 L 834.90 499.50 L 833.20 499.70 L 831.70 500.30 L 830.30 501.30 L 829.30 502.70 L 828.70 504.20 L 828.40 505.90 L 828.40 575.70 L 828.70 577.40 L 829.30 578.90 L 830.30 580.30 L 831.70 581.30 L 833.20 582.00 L 834.90 582.20 L 903.30 582.20 L 905.00 582.00 L 907.90 580.30 L 908.90 578.90 L 909.50 577.40 L 909.70 575.70 L 909.70 505.90 L 909.50 504.20 L 908.90 502.70 L 907.90 501.30 L 906.50 500.30 L 905.00 499.70 L 903.30 499.50 Z" fill="#8b93a0" fill-rule="nonzero" group-id="5,19" id="路径_1671-3" node-id="25" stroke="none" target-height="82.70001" target-width="81.29999" target-x="828.4" target-y="499.5"></path></g><path d="M 847.00 566.70 L 845.80 566.20 L 845.40 565.10 L 845.80 563.90 L 847.00 563.40 L 892.60 563.40 L 893.80 563.90 L 894.20 565.10 L 893.80 566.20 L 892.60 566.70 Z M 847.00 555.30 L 845.80 554.80 L 845.40 553.70 L 845.80 552.50 L 847.00 552.00 L 892.60 552.00 L 893.80 552.50 L 894.20 553.70 L 893.80 554.80 L 892.60 555.30 Z M 847.00 543.90 L 845.80 543.40 L 845.40 542.20 L 845.80 541.10 L 847.00 540.60 L 892.60 540.60 L 893.80 541.10 L 894.20 542.20 L 893.80 543.40 L 892.60 543.90 Z M 847.00 532.40 L 845.80 532.00 L 845.40 530.80 L 845.80 529.70 L 847.00 529.20 L 892.60 529.20 L 893.80 529.70 L 894.20 530.80 L 893.80 532.00 L 892.60 532.40 Z M 892.60 521.00 L 847.00 521.00 L 845.80 520.60 L 845.40 519.40 L 845.80 518.30 L 847.00 517.80 L 892.60 517.80 L 893.80 518.30 L 894.20 519.40 L 893.80 520.60 L 892.60 521.00 Z" fill="#2867ff" fill-rule="nonzero" group-id="5,20" id="路径_2350-3" node-id="26" stroke="none" target-height="48.900024" target-width="48.799988" target-x="845.4" target-y="517.8"></path></g><g node-id="80"><g node-id="95"><path d="M 628.40 413.50 L 558.20 413.50 L 555.40 412.90 L 553.10 411.40 L 551.60 409.10 L 551.00 406.30 L 551.00 356.10 L 551.60 353.40 L 553.10 351.00 L 555.40 349.50 L 558.20 348.90 L 628.40 348.90 L 631.10 349.50 L 633.40 351.00 L 635.00 353.40 L 635.50 356.10 L 635.50 406.30 L 635.00 409.10 L 633.40 411.40 L 631.10 412.90 L 628.40 413.50 Z M 558.20 352.20 L 556.70 352.50 L 555.40 353.30 L 554.50 354.60 L 554.20 356.10 L 554.20 406.30 L 554.50 407.80 L 555.40 409.10 L 556.70 410.00 L 558.20 410.30 L 628.40 410.30 L 629.90 410.00 L 631.20 409.10 L 632.00 407.80 L 632.30 406.30 L 632.30 356.10 L 632.00 354.60 L 631.20 353.30 L 629.90 352.50 L 628.40 352.20 Z" fill="#8b93a0" fill-rule="nonzero" group-id="6,21" id="路径_1725" node-id="28" stroke="none" target-height="64.600006" target-width="84.5" target-x="551" target-y="348.9"></path></g><g node-id="96"><path d="M 616.10 371.40 L 570.40 371.40 L 569.30 370.90 L 568.80 369.80 L 569.30 368.70 L 570.40 368.20 L 616.10 368.20 L 617.20 368.70 L 617.70 369.80 L 617.20 370.90 L 616.10 371.40 Z" fill="#2867ff" fill-rule="nonzero" group-id="6,22" id="路径_1728" node-id="29" stroke="none" target-height="3.1999817" target-width="48.900024" target-x="568.8" target-y="368.2"></path></g><g node-id="97"><path d="M 616.10 382.80 L 570.40 382.80 L 569.30 382.30 L 568.80 381.20 L 569.30 380.10 L 570.40 379.60 L 616.10 379.60 L 617.20 380.10 L 617.70 381.20 L 617.20 382.40 L 616.10 382.80 Z" fill="#2867ff" fill-rule="nonzero" group-id="6,23" id="路径_1731" node-id="30" stroke="none" target-height="3.1999817" target-width="48.900024" target-x="568.8" target-y="379.6"></path></g><path d="M 616.10 394.20 L 570.40 394.20 L 569.30 393.80 L 568.80 392.60 L 569.30 391.50 L 570.40 391.00 L 616.10 391.00 L 617.20 391.50 L 617.70 392.60 L 617.20 393.80 L 616.10 394.20 Z" fill="#2867ff" fill-rule="nonzero" group-id="6,24" id="路径_1734" node-id="31" stroke="none" target-height="3.2000122" target-width="48.900024" target-x="568.8" target-y="391"></path></g><g node-id="81"><g node-id="99"><path d="M 861.30 441.30 L 793.90 421.80 L 791.40 420.50 L 789.60 418.30 L 788.80 415.70 L 789.00 412.90 L 803.00 364.60 L 804.30 362.20 L 806.40 360.40 L 809.10 359.50 L 811.90 359.80 L 879.30 379.30 L 881.80 380.60 L 883.60 382.70 L 884.40 385.40 L 884.20 388.20 L 870.20 436.40 L 868.90 438.90 L 866.80 440.70 L 864.10 441.60 L 861.30 441.30 Z M 811.00 362.90 L 809.40 362.70 L 808.00 363.20 L 806.80 364.20 L 806.10 365.50 L 792.10 413.80 L 792.00 415.30 L 792.40 416.80 L 793.40 418.00 L 794.80 418.70 L 862.20 438.20 L 863.70 438.40 L 865.20 437.90 L 866.40 436.90 L 867.10 435.50 L 881.10 387.30 L 881.20 385.80 L 880.70 384.30 L 879.80 383.10 L 878.40 382.40 Z" fill="#8b93a0" fill-rule="nonzero" group-id="7,25" id="路径_1737" node-id="33" stroke="none" target-height="82.100006" target-width="95.60004" target-x="788.8" target-y="359.5"></path></g><g node-id="100"><path d="M 861.20 397.50 L 817.40 384.80 L 816.40 384.00 L 816.30 382.80 L 817.10 381.80 L 818.30 381.70 L 862.10 394.40 L 863.10 395.20 L 863.20 396.40 L 862.50 397.40 L 861.20 397.50 Z" fill="#2867ff" fill-rule="nonzero" group-id="7,26" id="路径_1740" node-id="34" stroke="none" target-height="15.799988" target-width="46.900024" target-x="816.3" target-y="381.7"></path></g><g node-id="101"><path d="M 858.10 408.40 L 814.20 395.70 L 813.30 395.00 L 813.10 393.70 L 813.90 392.80 L 815.10 392.60 L 859.00 405.40 L 859.90 406.10 L 860.10 407.40 L 859.30 408.30 L 858.10 408.40 Z" fill="#2867ff" fill-rule="nonzero" group-id="7,27" id="路径_1743" node-id="35" stroke="none" target-height="15.799988" target-width="47" target-x="813.1" target-y="392.6"></path></g><path d="M 854.90 419.40 L 811.00 406.70 L 810.10 405.90 L 809.90 404.70 L 810.70 403.70 L 811.90 403.60 L 855.80 416.30 L 856.70 417.10 L 856.90 418.30 L 856.10 419.30 L 854.90 419.40 Z" fill="#2867ff" fill-rule="nonzero" group-id="7,28" id="路径_1746" node-id="36" stroke="none" target-height="15.799988" target-width="47" target-x="809.9" target-y="403.6"></path></g><g node-id="82"><g node-id="103"><path d="M 790.40 1020.00 L 919.00 1020.00 L 919.00 1008.30 L 790.40 1008.30 Z" fill="#e6e6e6" fill-rule="nonzero" group-id="8,29" id="路径_1751" node-id="38" stroke="none" target-height="11.700012" target-width="128.59998" target-x="790.4" target-y="1008.3"></path></g><g node-id="104"><g node-id="139"><path d="M 911.20 1014.10 L 796.30 1014.10 L 800.20 963.50 L 907.40 963.50 Z" fill="#e6e6e6" fill-rule="nonzero" group-id="8,30,65" id="路径_1749" node-id="40" stroke="none" target-height="50.599976" target-width="114.900024" target-x="796.3" target-y="963.5"></path></g><g node-id="140"><path d="M 1074.00 637.00 L 634.50 637.00 L 632.20 637.20 L 630.00 637.90 L 628.00 639.00 L 626.20 640.40 L 624.80 642.20 L 623.70 644.20 L 623.00 646.40 L 622.80 648.70 L 622.80 916.70 L 1085.70 916.70 L 1085.70 648.70 L 1085.50 646.40 L 1084.80 644.20 L 1083.70 642.20 L 1082.30 640.40 L 1080.50 639.00 L 1078.50 637.90 L 1076.30 637.20 L 1074.00 637.00 Z" fill="#3e3d55" fill-rule="nonzero" group-id="8,30,66" id="路径_1754" node-id="41" stroke="none" target-height="279.7" target-width="462.89996" target-x="622.8" target-y="637"></path></g><g node-id="141"><path d="M 622.80 916.70 L 622.80 960.50 L 623.00 962.80 L 623.70 965.00 L 624.80 967.00 L 626.20 968.80 L 628.00 970.30 L 630.00 971.30 L 632.20 972.00 L 634.50 972.20 L 1074.00 972.20 L 1076.30 972.00 L 1078.50 971.30 L 1080.50 970.30 L 1082.30 968.80 L 1083.70 967.00 L 1084.80 965.00 L 1085.50 962.80 L 1085.70 960.50 L 1085.70 916.70 Z" fill="#e6e6e6" fill-rule="nonzero" group-id="8,30,67" id="路径_1757" node-id="42" stroke="none" target-height="55.5" target-width="462.89996" target-x="622.8" target-y="916.7"></path></g><g node-id="142"><path d="M 646.20 895.20 L 1063.30 895.20 L 1063.30 661.40 L 646.20 661.40 Z" fill="#f1f2f4" fill-rule="nonzero" group-id="8,30,68" id="路径_1759" node-id="43" stroke="none" target-height="233.79999" target-width="417.10004" target-x="646.2" target-y="661.4"></path></g><path d="M 854.70 955.70 L 857.00 955.40 L 859.20 954.80 L 861.20 953.70 L 863.00 952.20 L 864.50 950.50 L 865.50 948.40 L 866.20 946.30 L 866.40 944.00 L 866.20 941.70 L 865.50 939.50 L 864.50 937.50 L 863.00 935.70 L 861.20 934.20 L 859.20 933.20 L 857.00 932.50 L 854.70 932.30 L 850.60 933.00 L 848.80 933.90 L 845.80 936.40 L 843.80 939.90 L 843.00 944.00 L 843.80 948.10 L 845.80 951.50 L 848.80 954.10 L 850.60 954.90 L 854.70 955.70 Z" fill="#3e3d55" fill-rule="nonzero" group-id="8,30,69" id="路径_1762" node-id="44" stroke="none" target-height="23.400024" target-width="23.400024" target-x="843" target-y="932.3"></path></g><g node-id="105"><path d="M 673.80 669.00 L 674.50 667.40 L 676.00 666.80 L 677.60 667.40 L 678.20 669.00 L 677.60 670.60 L 676.00 671.20 L 674.50 670.60 L 673.80 669.00 Z M 665.40 669.00 L 666.00 667.40 L 667.60 666.80 L 668.50 667.00 L 669.70 668.10 L 669.80 669.00 L 669.20 670.60 L 667.60 671.20 L 666.80 671.10 L 665.60 669.90 L 665.40 669.00 Z M 657.00 669.00 L 657.60 667.40 L 659.20 666.80 L 660.10 667.00 L 661.20 668.10 L 661.40 669.00 L 660.80 670.60 L 659.20 671.20 L 658.30 671.10 L 657.10 669.90 L 657.00 669.00 Z" fill="#ffffff" fill-rule="nonzero" group-id="8,31" id="路径_2358" node-id="45" stroke="none" target-height="4.4000244" target-width="21.200012" target-x="657" target-y="666.8"></path></g><g node-id="106"><path d="M 657.00 873.00 L 1051.30 873.00 L 1051.30 676.60 L 657.00 676.60 Z" fill="#ffffff" fill-rule="nonzero" group-id="8,32" id="路径_1773" node-id="46" stroke="none" target-height="196.40002" target-width="394.30005" target-x="657" target-y="676.6"></path></g><g node-id="107"><path d="M 943.10 779.70 L 942.10 779.30 L 941.70 778.30 L 941.70 707.30 L 942.10 706.30 L 943.10 705.90 L 1025.00 705.90 L 1026.00 706.30 L 1026.40 707.30 L 1026.40 778.30 L 1026.00 779.30 L 1025.00 779.70 Z M 813.80 779.70 L 812.80 779.30 L 812.40 778.30 L 812.40 708.10 L 812.80 707.10 L 813.80 706.70 L 894.90 706.70 L 895.90 707.10 L 896.30 708.10 L 896.30 778.30 L 895.90 779.30 L 894.90 779.70 Z M 683.20 779.70 L 682.20 779.30 L 681.80 778.30 L 681.80 707.80 L 682.20 706.80 L 683.20 706.40 L 764.50 706.40 L 765.50 706.80 L 765.90 707.80 L 765.90 778.30 L 765.50 779.30 L 764.50 779.70 Z" fill="#8b93a0" fill-opacity="0.122" fill-rule="nonzero" group-id="8,33" id="路径_2357" node-id="47" stroke="none" target-height="73.79999" target-width="344.60004" target-x="681.8" target-y="705.9"></path></g><g node-id="108"><path d="M 944.50 834.00 L 943.40 833.80 L 942.50 833.20 L 941.90 832.20 L 941.70 831.10 L 941.90 830.00 L 942.50 829.10 L 943.40 828.50 L 944.50 828.30 L 979.00 828.30 L 980.10 828.50 L 981.00 829.10 L 981.60 830.00 L 981.90 831.10 L 981.60 832.20 L 981.00 833.20 L 980.10 833.80 L 979.00 834.00 Z M 816.90 834.00 L 815.80 833.80 L 814.90 833.20 L 814.30 832.20 L 814.10 831.10 L 814.90 829.10 L 815.80 828.50 L 816.90 828.30 L 851.40 828.30 L 852.50 828.50 L 853.40 829.10 L 854.00 830.00 L 854.30 831.10 L 853.40 833.20 L 852.50 833.80 L 851.40 834.00 Z M 684.70 834.00 L 683.60 833.80 L 682.60 833.20 L 682.00 832.20 L 681.80 831.10 L 682.00 830.00 L 682.60 829.10 L 683.60 828.50 L 684.70 828.30 L 719.10 828.30 L 720.20 828.50 L 721.10 829.10 L 721.80 830.00 L 722.00 831.10 L 721.80 832.20 L 721.10 833.20 L 720.20 833.80 L 719.10 834.00 Z" fill="#2968ff" fill-rule="nonzero" group-id="8,34" id="路径_2356" node-id="48" stroke="none" target-height="5.700012" target-width="300.10004" target-x="681.8" target-y="828.3"></path></g><path d="M 944.50 820.30 L 943.40 820.10 L 942.50 819.50 L 941.90 818.50 L 941.70 817.40 L 941.90 816.30 L 942.50 815.40 L 943.40 814.80 L 944.50 814.60 L 1021.00 814.60 L 1022.10 814.80 L 1023.10 815.40 L 1023.70 816.30 L 1023.90 817.40 L 1023.10 819.50 L 1022.10 820.10 L 1021.00 820.30 Z M 816.90 820.30 L 815.80 820.10 L 814.90 819.50 L 814.30 818.50 L 814.10 817.40 L 814.30 816.30 L 814.90 815.40 L 815.80 814.80 L 816.90 814.60 L 893.40 814.60 L 894.50 814.80 L 895.50 815.40 L 896.10 816.30 L 896.30 817.40 L 896.10 818.50 L 895.50 819.50 L 894.50 820.10 L 893.40 820.30 Z M 684.70 820.30 L 683.60 820.10 L 682.60 819.50 L 682.00 818.50 L 681.80 817.40 L 682.60 815.40 L 683.60 814.80 L 684.70 814.60 L 761.20 814.60 L 763.20 815.40 L 763.80 816.30 L 764.00 817.40 L 763.80 818.50 L 763.20 819.50 L 762.30 820.10 L 761.20 820.30 Z M 944.50 806.20 L 943.40 805.90 L 942.50 805.30 L 941.90 804.40 L 941.70 803.30 L 941.90 802.20 L 942.50 801.20 L 943.40 800.60 L 944.50 800.40 L 1021.00 800.40 L 1022.10 800.60 L 1023.10 801.20 L 1023.70 802.20 L 1023.90 803.30 L 1023.70 804.40 L 1023.10 805.30 L 1022.10 805.90 L 1021.00 806.20 Z M 816.90 806.20 L 815.80 805.90 L 814.90 805.30 L 814.30 804.40 L 814.10 803.30 L 814.30 802.20 L 814.90 801.20 L 815.80 800.60 L 816.90 800.40 L 893.40 800.40 L 894.50 800.60 L 895.50 801.20 L 896.10 802.20 L 896.30 803.30 L 896.10 804.40 L 895.50 805.30 L 894.50 805.90 L 893.40 806.20 Z M 684.70 806.20 L 683.60 805.90 L 682.60 805.30 L 682.00 804.40 L 681.80 803.30 L 682.00 802.20 L 682.60 801.20 L 684.70 800.40 L 761.20 800.40 L 762.30 800.60 L 763.20 801.20 L 763.80 802.20 L 764.00 803.30 L 763.80 804.40 L 763.20 805.30 L 762.30 805.90 L 761.20 806.20 Z" fill="#8b93a0" fill-opacity="0.168" fill-rule="nonzero" group-id="8,35" id="路径_2355" node-id="49" stroke="none" target-height="19.899963" target-width="342.10004" target-x="681.8" target-y="800.4"></path></g><g node-id="83"><g node-id="110"><path d="M 204.40 775.00 L 204.40 855.80 L 301.10 909.50 L 301.10 823.60 Z" fill="#192137" fill-rule="evenodd" group-id="9,36" id="路径_1812" node-id="51" stroke="none" target-height="134.5" target-width="96.70001" target-x="204.4" target-y="775"></path></g><g node-id="111"><path d="M 300.80 823.60 L 300.80 894.30 L 424.40 856.40 L 424.40 792.00 Z" fill="#192137" fill-rule="evenodd" group-id="9,37" id="路径_1815" node-id="52" stroke="none" target-height="102.29999" target-width="123.600006" target-x="300.8" target-y="792"></path></g><g node-id="112"><path d="M 302.10 824.60 L 203.10 775.40 L 212.80 770.40 L 221.40 766.90 L 235.10 762.40 L 244.40 760.00 L 253.60 758.00 L 264.30 756.20 L 276.70 754.60 L 295.80 753.30 L 318.50 753.30 L 333.70 754.90 L 341.00 756.00 L 359.00 759.60 L 368.90 762.30 L 382.30 766.70 L 389.00 769.40 L 395.60 772.40 L 402.00 775.80 L 408.20 779.50 L 414.00 783.60 L 419.40 788.20 L 424.40 793.10 Z" fill="#2968ff" fill-rule="evenodd" group-id="9,38" id="路径_1818" node-id="53" stroke="none" target-height="71.29999" target-width="221.29999" target-x="203.1" target-y="753.3"></path></g><g node-id="113"><path d="M 382.80 902.50 L 382.80 959.20 L 301.70 908.20 L 301.70 847.10 Z" fill="#192137" fill-rule="evenodd" group-id="9,39" id="路径_1821" node-id="54" stroke="none" target-height="112.10004" target-width="81.099976" target-x="301.7" target-y="847.1"></path></g><g node-id="114"><path d="M 382.80 902.50 L 382.80 959.20 L 389.90 956.40 L 395.10 953.90 L 400.60 951.00 L 411.00 944.20 L 419.40 937.20 L 423.30 933.20 L 427.00 928.80 L 430.40 924.10 L 432.60 920.30 L 436.10 912.10 L 437.40 907.50 L 437.40 843.90 L 406.60 860.90 Z" fill="#192137" fill-rule="evenodd" group-id="9,40" id="路径_1824" node-id="55" stroke="none" target-height="115.29999" target-width="54.600006" target-x="382.8" target-y="843.9"></path></g><g node-id="115"><path d="M 301.70 847.10 L 382.80 903.10 L 385.70 902.50 L 393.20 900.30 L 403.50 895.80 L 411.00 891.30 L 414.90 888.40 L 418.60 885.30 L 422.20 881.70 L 425.70 877.50 L 428.80 873.10 L 431.50 868.10 L 434.00 862.50 L 435.40 858.50 L 436.70 851.90 L 436.90 847.60 L 436.60 843.10 L 435.70 838.00 L 433.30 831.10 L 431.30 827.30 L 429.10 823.70 L 426.10 820.00 L 422.50 816.20 Z" fill="#00bea6" fill-rule="evenodd" group-id="9,41" id="路径_1827" node-id="56" stroke="none" target-height="86.89996" target-width="135.19998" target-x="301.7" target-y="816.2"></path></g><g node-id="116"><path d="M 167.30 868.60 L 167.40 905.70 L 168.70 912.40 L 171.00 918.50 L 175.10 925.70 L 181.60 933.80 L 185.50 937.60 L 190.40 941.70 L 196.30 945.90 L 202.50 949.70 L 209.90 953.60 L 218.70 957.50 L 232.80 962.50 L 250.40 967.30 L 261.50 969.20 L 280.30 971.30 L 300.90 972.20 L 320.00 971.80 L 329.90 971.10 L 340.20 969.90 L 350.90 968.20 L 361.60 966.00 L 372.40 963.20 L 383.30 959.80 L 383.30 931.50 L 336.70 910.70 L 248.50 857.30 Z" fill="#192137" fill-rule="evenodd" group-id="9,42" id="路径_1830" node-id="57" stroke="none" target-height="114.900024" target-width="215.99998" target-x="167.3" target-y="857.3"></path></g><path d="M 383.90 930.50 L 367.60 934.90 L 359.50 936.70 L 338.60 940.30 L 326.20 941.80 L 309.00 943.00 L 299.60 943.30 L 280.70 942.70 L 270.90 941.80 L 261.10 940.50 L 251.30 938.60 L 241.50 936.30 L 227.00 931.60 L 212.80 925.50 L 205.90 921.80 L 199.20 917.80 L 192.60 913.20 L 184.00 906.30 L 179.00 900.80 L 176.10 897.10 L 171.40 889.00 L 168.60 881.30 L 167.70 877.20 L 167.20 872.80 L 167.30 868.20 L 167.70 864.70 L 169.70 857.40 L 171.40 853.40 L 175.90 845.90 L 179.10 841.90 L 187.00 833.80 L 191.80 829.80 L 204.10 821.10 L 303.30 871.10 Z" fill="#ffb906" fill-rule="evenodd" group-id="9,43" id="路径_1833" node-id="58" stroke="none" target-height="122.20001" target-width="216.7" target-x="167.2" target-y="821.1"></path></g><g node-id="84"><g node-id="118"><path d="M 412.30 869.20 L 413.60 869.10 L 415.90 868.00 L 417.40 866.00 L 417.80 864.70 L 417.70 862.10 L 416.50 859.90 L 414.40 858.40 L 413.10 858.00 L 410.60 858.20 L 408.40 859.40 L 407.50 860.40 L 406.60 862.90 L 406.90 865.40 L 408.30 867.60 L 410.80 869.00 L 412.30 869.20 Z" fill="#c1bbff" fill-rule="evenodd" group-id="10,44" id="路径_1838" node-id="60" stroke="none" target-height="11.200012" target-width="11.199982" target-x="406.6" target-y="858"></path></g><g node-id="119"><path d="M 259.00 775.40 L 260.50 775.20 L 263.00 773.70 L 263.90 772.50 L 264.70 769.70 L 264.50 768.20 L 263.00 765.70 L 260.50 764.20 L 259.00 764.00 L 257.50 764.20 L 255.00 765.70 L 254.10 766.90 L 253.30 769.70 L 253.50 771.20 L 255.00 773.70 L 256.20 774.60 L 259.00 775.40 Z" fill="#c1bbff" fill-rule="nonzero" group-id="10,45" id="路径_1844" node-id="61" stroke="none" target-height="11.400024" target-width="11.400009" target-x="253.3" target-y="764"></path></g><g node-id="120"><path d="M 241.00 904.90 L 243.80 904.10 L 245.00 903.20 L 245.90 902.00 L 246.60 899.20 L 246.40 897.70 L 245.00 895.20 L 242.50 893.70 L 239.50 893.70 L 237.00 895.20 L 236.00 896.40 L 235.30 899.20 L 235.50 900.70 L 237.00 903.20 L 238.20 904.10 L 241.00 904.90 Z" fill="#c1bbff" fill-rule="nonzero" group-id="10,46" id="路径_1850" node-id="62" stroke="none" target-height="11.200012" target-width="11.300003" target-x="235.3" target-y="893.7"></path></g><g node-id="121"><path d="M 183.60 980.30 L 184.90 980.10 L 187.10 978.80 L 188.40 976.60 L 188.60 975.30 L 188.40 973.90 L 187.10 971.70 L 184.90 970.40 L 183.50 970.20 L 182.20 970.40 L 180.00 971.70 L 178.70 973.90 L 178.50 975.30 L 178.70 976.60 L 180.00 978.80 L 181.10 979.60 L 183.60 980.30 Z" fill="none" group-id="10,47" id="路径_1851" node-id="63" stroke="#c1bbff" stroke-linecap="butt" stroke-width="1" target-height="10.099976" target-width="10.100006" target-x="178.5" target-y="970.2"></path></g><g node-id="122"><path d="M 414.80 863.00 L 469.00 863.00 L 469.00 935.90" fill="none" group-id="10,48" id="路径_1834" node-id="64" stroke="#c1bbff" stroke-linecap="butt" stroke-width="1" target-height="72.900024" target-width="54.200012" target-x="414.8" target-y="863"></path></g><g node-id="123"><path d="M 259.00 696.80 L 259.00 769.70" fill="none" group-id="10,49" id="路径_1840" node-id="65" stroke="#9690d4" stroke-linecap="butt" stroke-width="1" target-height="72.900024" target-width="0" target-x="259" target-y="696.8"></path></g><g node-id="124"><path d="M 238.40 898.60 L 184.20 898.60 L 184.20 971.50" fill="none" group-id="10,50" id="路径_1846" node-id="66" stroke="#c1bbff" stroke-linecap="butt" stroke-width="1" target-height="72.900024" target-width="54.199997" target-x="184.2" target-y="898.6"></path></g><g node-id="125"><path d="M 231.90 647.50 L 228.90 647.90 L 226.20 649.50 L 224.40 652.00 L 223.70 655.00 L 226.40 655.00 L 226.70 653.60 L 228.10 651.20 L 230.50 650.00 L 233.20 650.00 L 235.60 651.10 L 236.70 653.10 L 236.70 655.40 L 236.30 656.50 L 235.60 657.40 L 234.40 658.10 L 233.20 658.40 L 230.00 658.50 L 230.00 660.70 L 233.40 660.80 L 235.90 661.90 L 237.20 664.00 L 237.20 666.60 L 236.70 667.80 L 235.90 668.80 L 234.60 669.70 L 233.20 670.20 L 230.30 670.20 L 227.90 669.10 L 227.00 668.20 L 226.10 666.00 L 226.00 664.70 L 223.10 664.70 L 223.90 668.10 L 226.00 670.90 L 227.80 672.00 L 229.70 672.60 L 231.70 672.70 L 234.90 672.20 L 237.80 670.60 L 239.60 668.10 L 240.10 665.20 L 240.00 663.90 L 238.90 661.60 L 237.40 660.30 L 235.60 659.50 L 237.30 658.80 L 238.60 657.50 L 239.40 655.90 L 239.60 654.10 L 239.10 651.40 L 237.50 649.30 L 235.70 648.20 L 233.90 647.60 L 231.90 647.50 Z M 252.00 647.50 L 250.00 647.70 L 248.20 648.40 L 246.60 649.70 L 245.50 651.30 L 244.30 654.10 L 243.60 657.10 L 243.60 663.10 L 244.30 666.10 L 245.50 668.90 L 246.60 670.50 L 248.20 671.70 L 250.00 672.50 L 252.00 672.70 L 254.00 672.50 L 255.80 671.70 L 257.40 670.50 L 258.60 668.90 L 259.70 666.10 L 260.40 663.10 L 260.40 657.10 L 259.70 654.10 L 258.60 651.30 L 257.40 649.70 L 255.90 648.50 L 254.00 647.70 L 252.00 647.50 Z M 252.00 649.90 L 253.50 650.10 L 254.80 650.70 L 255.80 651.80 L 256.70 653.40 L 257.30 655.60 L 257.80 660.10 L 257.30 664.60 L 256.70 666.80 L 255.80 668.40 L 254.80 669.50 L 253.50 670.10 L 252.00 670.30 L 250.50 670.10 L 249.30 669.50 L 248.20 668.40 L 247.30 666.80 L 246.70 664.60 L 246.30 660.10 L 246.70 655.60 L 247.30 653.40 L 248.20 651.80 L 249.30 650.70 L 250.50 650.10 L 252.00 649.90 Z M 287.30 658.90 L 286.10 659.00 L 284.00 660.00 L 282.40 662.40 L 282.00 664.00 L 282.00 667.30 L 282.40 668.80 L 283.20 670.30 L 284.00 671.10 L 286.10 672.10 L 288.50 672.10 L 290.70 671.10 L 291.50 670.30 L 292.70 667.30 L 292.70 664.00 L 291.50 660.90 L 289.70 659.40 L 287.30 658.90 Z M 284.40 647.50 L 270.80 672.70 L 273.00 672.70 L 286.60 647.50 Z M 270.10 648.00 L 267.70 648.40 L 265.90 650.00 L 265.10 651.40 L 264.60 654.60 L 265.10 657.80 L 265.90 659.30 L 267.70 660.80 L 270.10 661.30 L 272.40 660.80 L 274.20 659.30 L 275.00 657.80 L 275.50 654.60 L 275.40 653.00 L 274.20 650.00 L 272.40 648.40 L 270.10 648.00 Z M 287.30 660.80 L 288.70 661.20 L 289.60 662.20 L 290.30 665.60 L 289.60 668.90 L 288.70 670.00 L 287.30 670.40 L 286.00 670.00 L 285.10 668.90 L 284.50 667.30 L 284.40 665.60 L 284.50 663.90 L 285.10 662.20 L 286.00 661.10 L 287.30 660.80 Z M 270.10 649.80 L 270.80 649.90 L 271.90 650.60 L 272.90 652.90 L 273.00 654.60 L 272.30 657.90 L 271.40 659.00 L 270.10 659.40 L 268.70 659.00 L 267.80 658.00 L 267.30 656.30 L 267.10 654.60 L 267.30 652.90 L 267.80 651.20 L 268.70 650.20 L 270.10 649.80 Z" fill="#2968ff" fill-rule="nonzero" group-id="10,51" id="路径_2569" node-id="67" stroke="none" target-height="25.200012" target-width="69.600006" target-x="223.1" target-y="647.5"></path></g><g node-id="126"><path d="M 145.00 987.00 L 143.70 1000.40 L 146.30 1000.40 L 147.30 999.10 L 148.50 998.20 L 150.00 997.60 L 152.80 997.50 L 154.90 998.30 L 155.80 999.00 L 156.70 1000.40 L 157.20 1001.90 L 157.20 1005.10 L 156.60 1006.50 L 155.70 1007.70 L 154.40 1008.60 L 153.00 1009.20 L 151.40 1009.30 L 149.50 1009.10 L 147.70 1008.20 L 146.80 1007.20 L 145.90 1004.70 L 143.10 1004.70 L 144.00 1007.70 L 145.90 1010.00 L 147.60 1011.00 L 149.40 1011.50 L 151.40 1011.70 L 153.10 1011.60 L 156.10 1010.50 L 158.60 1008.20 L 159.90 1005.20 L 160.00 1001.80 L 158.90 998.70 L 157.90 997.30 L 155.30 995.70 L 153.90 995.20 L 150.70 995.30 L 147.80 996.50 L 146.40 997.60 L 147.30 989.40 L 159.10 989.40 L 159.10 987.00 Z M 172.00 986.50 L 170.00 986.70 L 168.20 987.40 L 166.60 988.70 L 165.50 990.30 L 164.30 993.10 L 163.60 996.10 L 163.60 1002.10 L 164.30 1005.10 L 165.50 1007.90 L 166.60 1009.50 L 168.20 1010.70 L 170.00 1011.50 L 172.00 1011.70 L 174.00 1011.50 L 175.80 1010.70 L 177.40 1009.50 L 178.60 1007.90 L 179.70 1005.10 L 180.40 1002.10 L 180.40 996.10 L 179.70 993.10 L 178.60 990.30 L 177.40 988.70 L 175.90 987.50 L 174.00 986.70 L 172.00 986.50 Z M 172.00 988.90 L 173.50 989.10 L 174.80 989.70 L 175.80 990.80 L 176.70 992.40 L 177.30 994.60 L 177.80 999.10 L 177.30 1003.60 L 176.70 1005.80 L 175.80 1007.40 L 174.80 1008.50 L 173.50 1009.10 L 172.00 1009.30 L 170.50 1009.10 L 169.30 1008.50 L 168.20 1007.40 L 167.30 1005.80 L 166.70 1003.60 L 166.30 999.10 L 166.70 994.60 L 167.30 992.40 L 168.20 990.80 L 169.30 989.70 L 170.50 989.10 L 172.00 988.90 Z M 207.30 997.90 L 206.10 998.00 L 204.00 999.00 L 202.40 1001.40 L 202.00 1003.00 L 202.00 1006.30 L 202.40 1007.80 L 204.00 1010.10 L 206.10 1011.10 L 208.50 1011.10 L 210.70 1010.10 L 211.50 1009.30 L 212.70 1006.30 L 212.70 1003.00 L 211.50 999.90 L 209.70 998.40 L 207.30 997.90 Z M 204.40 986.50 L 190.80 1011.70 L 193.00 1011.70 L 206.60 986.50 Z M 190.10 987.00 L 187.70 987.40 L 185.90 989.00 L 185.10 990.40 L 184.60 993.60 L 184.70 995.30 L 185.90 998.30 L 187.70 999.80 L 190.10 1000.30 L 192.40 999.80 L 194.20 998.30 L 195.00 996.80 L 195.50 993.60 L 195.00 990.40 L 194.20 989.00 L 192.40 987.40 L 190.10 987.00 Z M 207.30 999.80 L 208.70 1000.20 L 209.60 1001.20 L 210.30 1004.60 L 209.60 1007.90 L 208.70 1009.00 L 207.30 1009.40 L 206.00 1009.00 L 205.10 1007.90 L 204.50 1006.30 L 204.40 1004.60 L 204.50 1002.90 L 205.10 1001.20 L 206.00 1000.10 L 207.30 999.80 Z M 190.10 988.80 L 190.80 988.90 L 191.90 989.60 L 192.90 991.90 L 193.00 993.60 L 192.30 996.90 L 191.40 998.00 L 190.10 998.40 L 188.70 998.00 L 187.80 997.00 L 187.30 995.30 L 187.10 993.60 L 187.30 991.90 L 187.80 990.20 L 188.70 989.20 L 190.10 988.80 Z" fill="#e9a100" fill-rule="nonzero" group-id="10,52" id="路径_2568" node-id="68" stroke="none" target-height="25.200012" target-width="69.59999" target-x="143.1" target-y="986.5"></path></g><g node-id="127"><path d="M 449.00 969.50 L 445.70 970.10 L 443.00 971.90 L 441.20 975.00 L 440.70 978.40 L 443.50 978.40 L 443.60 976.70 L 445.00 973.60 L 446.70 972.20 L 448.90 971.90 L 451.40 972.40 L 452.60 973.10 L 453.30 974.10 L 453.90 976.50 L 453.60 978.10 L 453.00 979.60 L 452.00 980.90 L 445.40 985.90 L 442.90 988.20 L 441.10 991.00 L 440.50 994.20 L 456.70 994.20 L 456.70 991.80 L 444.00 991.80 L 444.70 990.30 L 446.30 988.50 L 454.30 982.30 L 455.30 981.00 L 456.50 978.10 L 456.60 975.10 L 455.50 972.50 L 453.30 970.60 L 450.50 969.60 L 449.00 969.50 Z M 469.00 969.50 L 467.00 969.70 L 465.20 970.40 L 463.60 971.70 L 462.50 973.30 L 461.30 976.10 L 460.60 979.10 L 460.60 985.10 L 461.30 988.10 L 462.50 990.90 L 463.60 992.50 L 465.20 993.70 L 467.00 994.50 L 469.00 994.70 L 471.00 994.50 L 472.80 993.70 L 474.40 992.50 L 475.60 990.90 L 476.70 988.10 L 477.40 985.10 L 477.40 979.10 L 476.70 976.10 L 475.60 973.30 L 474.40 971.70 L 472.90 970.50 L 471.00 969.70 L 469.00 969.50 Z M 469.00 971.90 L 470.50 972.10 L 471.80 972.70 L 472.80 973.80 L 473.70 975.40 L 474.30 977.60 L 474.80 982.10 L 474.30 986.60 L 473.70 988.80 L 472.80 990.40 L 471.80 991.50 L 470.50 992.10 L 469.00 992.30 L 467.50 992.10 L 466.30 991.50 L 465.20 990.40 L 464.30 988.80 L 463.70 986.60 L 463.30 982.10 L 463.70 977.60 L 464.30 975.40 L 465.20 973.80 L 466.30 972.70 L 467.50 972.10 L 469.00 971.90 Z M 504.30 980.90 L 503.10 981.00 L 501.00 982.00 L 499.40 984.40 L 499.00 986.00 L 499.00 989.30 L 499.40 990.80 L 501.00 993.10 L 503.10 994.10 L 505.50 994.10 L 507.70 993.10 L 508.50 992.30 L 509.70 989.30 L 509.70 986.00 L 508.50 982.90 L 506.70 981.40 L 504.30 980.90 Z M 501.40 969.50 L 487.80 994.70 L 490.00 994.70 L 503.60 969.50 Z M 487.10 970.00 L 485.80 970.00 L 483.70 971.10 L 482.10 973.40 L 481.70 975.00 L 481.70 978.30 L 482.90 981.30 L 483.70 982.20 L 485.90 983.20 L 487.10 983.30 L 489.40 982.80 L 491.20 981.30 L 492.00 979.80 L 492.50 976.60 L 492.40 975.00 L 491.20 972.00 L 489.40 970.40 L 487.10 970.00 Z M 504.30 982.80 L 505.70 983.20 L 506.60 984.20 L 507.30 987.60 L 506.60 990.90 L 505.70 992.00 L 504.30 992.40 L 503.00 992.00 L 502.10 990.90 L 501.50 989.30 L 501.40 987.60 L 501.50 985.90 L 502.10 984.20 L 503.00 983.10 L 504.30 982.80 Z M 487.10 971.80 L 487.80 971.90 L 488.90 972.60 L 489.90 974.90 L 490.00 976.60 L 489.30 979.90 L 488.40 981.00 L 487.10 981.40 L 485.70 981.00 L 484.80 980.00 L 484.30 978.30 L 484.10 976.60 L 484.30 974.90 L 484.80 973.20 L 485.70 972.20 L 487.10 971.80 Z" fill="#00bea6" fill-rule="nonzero" group-id="10,53" id="路径_2567" node-id="69" stroke="none" target-height="25.200012" target-width="69.20001" target-x="440.5" target-y="969.5"></path></g><g node-id="128"><path d="M 259.20 697.70 L 260.60 697.50 L 262.80 696.20 L 264.10 694.00 L 264.30 692.60 L 264.10 691.30 L 262.80 689.10 L 260.60 687.80 L 259.20 687.60 L 257.90 687.80 L 255.70 689.10 L 254.40 691.30 L 254.20 692.60 L 254.40 694.00 L 255.70 696.20 L 256.70 697.00 L 259.20 697.70 Z" fill="none" group-id="10,54" id="路径_2359" node-id="70" stroke="#9690d4" stroke-linecap="butt" stroke-width="1" target-height="10.100037" target-width="10.099991" target-x="254.2" target-y="687.6"></path></g><path d="M 469.70 944.70 L 471.40 944.40 L 472.80 943.50 L 474.00 942.30 L 474.60 940.60 L 474.60 938.90 L 474.10 937.30 L 473.00 935.90 L 471.60 935.00 L 469.80 934.60 L 468.20 934.80 L 466.70 935.60 L 465.50 936.90 L 464.80 938.50 L 464.60 940.20 L 465.10 941.80 L 466.10 943.20 L 467.20 944.00 L 469.70 944.70 Z" fill="none" group-id="10,55" id="路径_1839" node-id="71" stroke="#c1bbff" stroke-linecap="butt" stroke-width="1" target-height="10.100037" target-width="10" target-x="464.6" target-y="934.6"></path></g></svg>