<?xml version="1.0" standalone="no"?><!DOCTYPE svg PUBLIC "-//W3C//DTD SVG 1.1//EN" "http://www.w3.org/Graphics/SVG/1.1/DTD/svg11.dtd"><svg height="1200" node-id="1" sillyvg="true" template-height="1200" template-width="1200" version="1.1" viewBox="0 0 1200 1200" width="1200" xmlns="http://www.w3.org/2000/svg" xmlns:xlink="http://www.w3.org/1999/xlink"><defs node-id="75"></defs><g node-id="83"><path d="M 0.00 0.00 L 1200.00 0.00 L 1200.00 1200.00 L 0.00 1200.00 Z" fill="#ffffff" fill-opacity="0.01" fill-rule="nonzero" group-id="1" node-id="79" stroke="none" target-height="1200" target-width="1200" target-x="0" target-y="0"></path><path d="M 0.50 0.50 L 1199.50 0.50 L 1199.50 1199.50 L 0.50 1199.50 Z" fill="#000000" fill-opacity="0.01" fill-rule="nonzero" group-id="1" node-id="81" stroke="#707070" stroke-linecap="butt" stroke-opacity="0.01" stroke-width="1" target-height="1199" target-width="1199" target-x="0.5" target-y="0.5"></path></g><g node-id="84"><g node-id="93"><path d="M 185.10 169.00 L 1050.20 169.00 L 1054.60 169.20 L 1058.90 169.90 L 1063.00 170.90 L 1067.00 172.40 L 1070.80 174.20 L 1077.70 178.90 L 1083.50 184.70 L 1086.00 188.10 L 1090.00 195.40 L 1091.50 199.40 L 1092.50 203.50 L 1093.20 207.80 L 1093.40 212.30 L 1093.40 796.10 L 1093.20 800.60 L 1092.50 804.90 L 1091.50 809.00 L 1090.00 813.00 L 1088.20 816.80 L 1083.50 823.60 L 1077.70 829.50 L 1070.80 834.10 L 1067.00 836.00 L 1063.00 837.40 L 1058.90 838.50 L 1054.60 839.10 L 1050.20 839.40 L 185.10 839.40 L 180.70 839.10 L 176.40 838.50 L 172.30 837.40 L 168.30 836.00 L 164.50 834.10 L 157.60 829.50 L 151.80 823.60 L 149.30 820.30 L 145.30 813.00 L 143.80 809.00 L 142.80 804.90 L 142.10 800.60 L 141.90 796.10 L 141.90 212.30 L 142.10 207.80 L 142.80 203.50 L 143.80 199.40 L 145.30 195.40 L 149.30 188.10 L 154.60 181.70 L 161.00 176.40 L 168.30 172.40 L 172.30 170.90 L 176.40 169.90 L 180.70 169.20 L 185.10 169.00 Z" fill="#ffffff" fill-rule="evenodd" group-id="2,11" id="bg" node-id="7" stroke="#eeeeee" stroke-linecap="butt" stroke-width="1" target-height="670.4" target-width="951.5" target-x="141.9" target-y="169"></path></g><g node-id="94"><path d="M 183.00 169.00 L 1050.20 169.00 L 1054.60 169.20 L 1058.90 169.90 L 1063.00 170.90 L 1067.00 172.40 L 1074.40 176.40 L 1077.70 178.90 L 1083.50 184.70 L 1086.00 188.10 L 1088.20 191.60 L 1090.00 195.40 L 1091.50 199.40 L 1092.50 203.50 L 1093.20 207.80 L 1093.40 212.30 L 1093.40 254.60 L 139.70 254.60 L 139.70 212.30 L 140.00 207.80 L 140.60 203.50 L 141.70 199.40 L 143.10 195.40 L 145.00 191.60 L 149.60 184.70 L 152.40 181.70 L 155.50 178.90 L 162.30 174.20 L 166.10 172.40 L 170.10 170.90 L 174.20 169.90 L 178.50 169.20 L 183.00 169.00 Z" fill="#efefef" fill-rule="evenodd" group-id="2,12" id="bg_title" node-id="8" stroke="none" target-height="85.600006" target-width="953.7" target-x="139.7" target-y="169"></path></g><g node-id="95"><g node-id="138"><path d="M 973.20 201.40 L 977.30 202.20 L 980.70 204.20 L 983.30 207.20 L 984.10 209.00 L 984.90 213.10 L 984.10 217.20 L 982.10 220.60 L 979.10 223.20 L 975.30 224.60 L 973.20 224.80 L 971.00 224.60 L 969.10 224.10 L 965.60 222.00 L 963.10 219.00 L 962.20 217.20 L 961.50 213.10 L 962.20 209.00 L 963.10 207.20 L 965.60 204.20 L 969.10 202.20 L 973.20 201.40 Z M 1010.20 201.40 L 1014.20 202.20 L 1017.70 204.20 L 1020.20 207.20 L 1021.10 209.00 L 1021.80 213.10 L 1021.10 217.20 L 1019.10 220.60 L 1016.00 223.20 L 1012.30 224.60 L 1008.00 224.60 L 1006.10 224.10 L 1002.60 222.00 L 1000.10 219.00 L 999.20 217.20 L 998.50 213.10 L 999.20 209.00 L 1001.20 205.60 L 1004.30 203.00 L 1006.10 202.20 L 1010.20 201.40 Z" fill="#2968ff" fill-opacity="0.3" fill-rule="evenodd" group-id="2,13,56" id="路径_1292" node-id="10" stroke="none" target-height="23.40001" target-width="60.299988" target-x="961.5" target-y="201.4"></path></g><path d="M 1045.20 201.40 L 1049.30 202.20 L 1052.70 204.20 L 1055.30 207.20 L 1056.10 209.00 L 1056.90 213.10 L 1056.10 217.20 L 1054.10 220.60 L 1051.10 223.20 L 1047.30 224.60 L 1045.20 224.80 L 1043.10 224.60 L 1041.10 224.10 L 1037.70 222.00 L 1035.10 219.00 L 1034.20 217.20 L 1033.50 213.10 L 1034.20 209.00 L 1036.30 205.60 L 1039.30 203.00 L 1041.10 202.20 L 1045.20 201.40 Z" fill="#2968ff" fill-rule="evenodd" group-id="2,13,57" id="路径_1295" node-id="11" stroke="none" target-height="23.40001" target-width="23.400024" target-x="1033.5" target-y="201.4"></path></g><g node-id="96"><g node-id="140"><path d="M 198.10 517.20 L 604.70 517.20 L 607.00 517.50 L 609.00 518.30 L 610.80 519.70 L 612.10 521.50 L 613.00 523.50 L 613.30 525.80 L 613.30 768.00 L 613.00 770.30 L 612.10 772.40 L 610.80 774.10 L 609.00 775.50 L 607.00 776.40 L 604.70 776.70 L 198.10 776.70 L 195.80 776.40 L 193.80 775.50 L 192.00 774.10 L 190.70 772.40 L 189.80 770.30 L 189.50 768.00 L 189.50 525.80 L 190.10 522.50 L 192.00 519.70 L 194.80 517.80 L 198.10 517.20 Z" fill="#8b93a0" fill-opacity="0.049" fill-rule="nonzero" group-id="2,14,58" id="路径_1491" node-id="13" stroke="none" target-height="259.5" target-width="423.8" target-x="189.5" target-y="517.2"></path></g><g node-id="141"><path d="M 652.30 517.20 L 1058.80 517.20 L 1061.10 517.50 L 1063.20 518.30 L 1064.90 519.70 L 1066.30 521.50 L 1067.10 523.50 L 1067.50 525.80 L 1067.50 768.00 L 1067.10 770.30 L 1066.30 772.40 L 1064.90 774.10 L 1063.20 775.50 L 1061.10 776.40 L 1058.80 776.70 L 652.30 776.70 L 649.90 776.40 L 647.90 775.50 L 646.10 774.10 L 644.80 772.40 L 643.90 770.30 L 643.60 768.00 L 643.60 525.80 L 643.90 523.50 L 644.80 521.50 L 646.10 519.70 L 647.90 518.30 L 649.90 517.50 L 652.30 517.20 Z" fill="#8b93a0" fill-opacity="0.049" fill-rule="nonzero" group-id="2,14,59" id="路径_1494" node-id="14" stroke="none" target-height="259.5" target-width="423.90002" target-x="643.6" target-y="517.2"></path></g><g node-id="142"><path d="M 266.20 629.60 L 271.10 629.40 L 275.70 628.70 L 280.10 627.50 L 284.30 626.00 L 288.40 624.00 L 292.20 621.70 L 295.80 619.00 L 299.10 616.00 L 302.10 612.70 L 304.80 609.10 L 307.10 605.30 L 309.10 601.20 L 310.60 597.00 L 311.80 592.60 L 312.50 588.00 L 312.70 583.10 L 312.50 578.50 L 311.80 574.00 L 310.70 569.60 L 309.20 565.30 L 307.30 561.20 L 304.90 557.30 L 302.20 553.70 L 299.10 550.20 L 295.70 547.10 L 292.00 544.40 L 288.10 542.10 L 284.00 540.20 L 279.80 538.60 L 275.40 537.50 L 270.90 536.90 L 266.20 536.60 L 261.40 536.90 L 256.80 537.60 L 252.40 538.70 L 248.10 540.30 L 244.00 542.30 L 240.20 544.60 L 236.70 547.20 L 233.40 550.20 L 230.40 553.60 L 227.70 557.10 L 225.40 560.90 L 223.40 565.00 L 221.80 569.30 L 220.70 573.70 L 220.00 578.30 L 219.70 583.10 L 220.00 587.80 L 220.70 592.30 L 221.70 596.60 L 223.30 600.90 L 225.20 605.00 L 227.50 608.90 L 230.30 612.60 L 233.40 616.00 L 236.80 619.10 L 240.50 621.80 L 244.30 624.10 L 248.40 626.10 L 252.70 627.60 L 257.10 628.70 L 261.60 629.40 L 266.20 629.60 Z" fill="#8b93a0" fill-opacity="0.09" fill-rule="nonzero" group-id="2,14,60" id="路径_1497" node-id="15" stroke="none" target-height="93" target-width="93.000015" target-x="219.7" target-y="536.6"></path></g><g node-id="143"><path d="M 336.80 547.40 L 560.00 547.40 L 561.80 547.70 L 563.30 548.30 L 564.80 549.40 L 565.90 550.90 L 566.50 552.40 L 566.80 554.20 L 566.50 556.00 L 565.90 557.60 L 564.80 559.00 L 563.30 560.10 L 561.80 560.80 L 560.00 561.00 L 336.80 561.00 L 335.10 560.80 L 333.50 560.10 L 332.00 559.00 L 330.90 557.60 L 330.30 556.00 L 330.00 554.20 L 330.30 552.40 L 330.90 550.90 L 332.00 549.40 L 333.50 548.30 L 335.10 547.70 L 336.80 547.40 Z M 336.80 578.00 L 560.00 578.00 L 561.80 578.20 L 563.30 578.90 L 564.80 580.00 L 565.90 581.40 L 566.50 583.00 L 566.80 584.80 L 566.50 586.60 L 565.90 588.20 L 564.80 589.60 L 563.30 590.70 L 561.80 591.30 L 560.00 591.60 L 336.80 591.60 L 335.10 591.30 L 333.50 590.70 L 332.00 589.60 L 330.90 588.20 L 330.30 586.60 L 330.00 584.80 L 330.30 583.00 L 330.90 581.40 L 332.00 580.00 L 333.50 578.90 L 335.10 578.20 L 336.80 578.00 Z M 336.80 608.50 L 560.00 608.50 L 561.80 608.80 L 563.30 609.40 L 564.80 610.50 L 565.90 612.00 L 566.50 613.50 L 566.80 615.30 L 566.50 617.10 L 565.90 618.70 L 564.80 620.10 L 563.30 621.20 L 561.80 621.90 L 560.00 622.10 L 336.80 622.10 L 335.10 621.90 L 333.50 621.20 L 332.00 620.10 L 330.90 618.70 L 330.30 617.10 L 330.00 615.30 L 330.30 613.50 L 330.90 612.00 L 332.00 610.50 L 333.50 609.40 L 335.10 608.80 L 336.80 608.50 Z M 336.80 637.40 L 560.00 637.40 L 561.80 637.60 L 563.30 638.30 L 564.80 639.40 L 565.90 640.80 L 566.50 642.40 L 566.80 644.20 L 566.50 646.00 L 565.90 647.60 L 564.80 649.00 L 563.30 650.10 L 561.80 650.70 L 560.00 651.00 L 336.80 651.00 L 335.10 650.70 L 333.50 650.10 L 332.00 649.00 L 330.90 647.60 L 330.30 646.00 L 330.00 644.20 L 330.30 642.40 L 330.90 640.80 L 332.00 639.40 L 333.50 638.30 L 335.10 637.60 L 336.80 637.40 Z M 336.80 667.90 L 560.00 667.90 L 561.80 668.20 L 563.30 668.80 L 564.80 669.90 L 565.90 671.40 L 566.50 672.90 L 566.80 674.70 L 566.50 676.50 L 565.90 678.10 L 564.80 679.50 L 563.30 680.60 L 561.80 681.30 L 560.00 681.50 L 336.80 681.50 L 335.10 681.30 L 333.50 680.60 L 332.00 679.50 L 330.90 678.10 L 330.30 676.50 L 330.00 674.70 L 330.30 672.90 L 330.90 671.40 L 332.00 669.90 L 333.50 668.80 L 335.10 668.20 L 336.80 667.90 Z M 677.50 547.40 L 900.60 547.40 L 902.40 547.70 L 904.00 548.30 L 905.40 549.40 L 906.50 550.90 L 907.20 552.40 L 907.40 554.20 L 907.20 556.00 L 906.50 557.60 L 905.40 559.00 L 904.00 560.10 L 902.40 560.80 L 900.60 561.00 L 677.50 561.00 L 675.70 560.80 L 674.10 560.10 L 672.70 559.00 L 671.60 557.60 L 670.90 556.00 L 670.70 554.20 L 670.90 552.40 L 671.60 550.90 L 672.70 549.40 L 674.10 548.30 L 675.70 547.70 L 677.50 547.40 Z M 677.50 578.00 L 900.60 578.00 L 902.40 578.20 L 904.00 578.90 L 905.40 580.00 L 906.50 581.40 L 907.20 583.00 L 907.40 584.80 L 907.20 586.60 L 906.50 588.20 L 905.40 589.60 L 904.00 590.70 L 902.40 591.30 L 900.60 591.60 L 677.50 591.60 L 675.70 591.30 L 674.10 590.70 L 672.70 589.60 L 671.60 588.20 L 670.90 586.60 L 670.70 584.80 L 670.90 583.00 L 671.60 581.40 L 672.70 580.00 L 674.10 578.90 L 675.70 578.20 L 677.50 578.00 Z" fill="#8b93a0" fill-opacity="0.09" fill-rule="evenodd" group-id="2,14,61" id="路径_1500" node-id="16" stroke="none" target-height="134.09998" target-width="577.4" target-x="330" target-y="547.4"></path></g><g node-id="144"><path d="M 250.70 294.40 L 329.10 294.40 L 331.80 294.70 L 334.30 295.50 L 336.70 296.70 L 338.80 298.50 L 340.50 300.60 L 341.70 302.90 L 342.50 305.50 L 342.70 308.20 L 342.70 388.80 L 342.50 391.30 L 341.90 393.60 L 340.90 395.70 L 339.50 397.70 L 336.00 400.70 L 333.90 401.70 L 331.60 402.30 L 329.10 402.60 L 250.70 402.60 L 248.20 402.30 L 245.90 401.70 L 243.80 400.70 L 240.20 397.70 L 238.90 395.70 L 237.90 393.60 L 237.30 391.30 L 237.00 388.80 L 237.00 308.20 L 237.30 305.70 L 237.90 303.40 L 238.90 301.20 L 241.90 297.70 L 243.80 296.30 L 245.90 295.30 L 248.20 294.70 L 250.70 294.40 Z M 479.10 294.40 L 557.50 294.40 L 560.00 294.70 L 562.30 295.30 L 564.40 296.30 L 568.00 299.30 L 569.30 301.20 L 570.30 303.40 L 571.00 305.70 L 571.20 308.20 L 571.20 388.80 L 571.00 391.30 L 570.30 393.60 L 568.00 397.70 L 564.40 400.70 L 562.30 401.70 L 560.00 402.30 L 557.50 402.60 L 479.10 402.60 L 476.60 402.30 L 474.30 401.70 L 472.20 400.70 L 468.70 397.70 L 466.30 393.60 L 465.70 391.30 L 465.50 388.80 L 465.50 308.20 L 465.70 305.70 L 466.30 303.40 L 467.30 301.20 L 470.30 297.70 L 472.20 296.30 L 474.30 295.30 L 476.60 294.70 L 479.10 294.40 Z M 705.90 294.40 L 784.30 294.40 L 786.80 294.70 L 789.10 295.30 L 791.20 296.30 L 794.70 299.30 L 797.10 303.40 L 797.70 305.70 L 797.90 308.20 L 797.90 388.80 L 797.70 391.30 L 797.10 393.60 L 796.10 395.70 L 794.70 397.70 L 791.20 400.70 L 789.10 401.70 L 786.80 402.30 L 784.30 402.60 L 705.90 402.60 L 703.40 402.30 L 701.10 401.70 L 699.00 400.70 L 695.40 397.70 L 694.10 395.70 L 693.10 393.60 L 692.50 391.30 L 692.20 388.80 L 692.20 308.20 L 692.50 305.70 L 693.10 303.40 L 694.10 301.20 L 697.10 297.70 L 701.10 295.30 L 703.40 294.70 L 705.90 294.40 Z M 934.30 294.40 L 1012.70 294.40 L 1015.20 294.70 L 1017.50 295.30 L 1019.60 296.30 L 1023.20 299.30 L 1025.50 303.40 L 1026.10 305.70 L 1026.40 308.20 L 1026.40 388.80 L 1026.10 391.30 L 1025.50 393.60 L 1024.50 395.70 L 1023.20 397.70 L 1019.60 400.70 L 1017.50 401.70 L 1015.20 402.30 L 1012.70 402.60 L 934.30 402.60 L 931.80 402.30 L 929.50 401.70 L 927.40 400.70 L 923.90 397.70 L 921.50 393.60 L 920.90 391.30 L 920.70 388.80 L 920.70 308.20 L 920.90 305.70 L 921.50 303.40 L 922.50 301.20 L 925.50 297.70 L 927.40 296.30 L 929.50 295.30 L 931.80 294.70 L 934.30 294.40 Z" fill="#f8f8f8" fill-rule="evenodd" group-id="2,14,62" id="路径_2348" node-id="17" stroke="none" target-height="108.20001" target-width="789.4" target-x="237" target-y="294.4"></path></g><g node-id="145"><path d="M 228.70 428.50 L 351.30 428.50 L 353.10 428.80 L 354.70 429.70 L 356.10 431.00 L 357.10 432.80 L 357.80 434.80 L 358.10 437.20 L 357.80 439.50 L 357.10 441.50 L 356.10 443.30 L 354.70 444.60 L 353.10 445.50 L 351.30 445.80 L 228.70 445.80 L 226.90 445.50 L 225.30 444.60 L 223.90 443.30 L 222.80 441.50 L 222.20 439.50 L 221.90 437.20 L 222.20 434.80 L 222.80 432.80 L 223.90 431.00 L 225.30 429.70 L 226.90 428.80 L 228.70 428.50 Z M 455.10 428.50 L 577.60 428.50 L 579.40 428.80 L 581.10 429.70 L 582.40 431.00 L 583.50 432.80 L 584.20 434.80 L 584.40 437.20 L 584.20 439.50 L 583.50 441.50 L 582.40 443.30 L 581.10 444.60 L 579.40 445.50 L 577.60 445.80 L 455.10 445.80 L 453.30 445.50 L 451.70 444.60 L 450.30 443.30 L 449.20 441.50 L 448.50 439.50 L 448.30 437.20 L 448.50 434.80 L 449.20 432.80 L 450.30 431.00 L 451.70 429.70 L 453.30 428.80 L 455.10 428.50 Z M 681.50 428.50 L 804.00 428.50 L 805.80 428.80 L 807.40 429.70 L 808.80 431.00 L 809.90 432.80 L 810.60 434.80 L 810.80 437.20 L 810.60 439.50 L 809.90 441.50 L 808.80 443.30 L 807.40 444.60 L 805.80 445.50 L 804.00 445.80 L 681.50 445.80 L 679.60 445.50 L 678.00 444.60 L 676.70 443.30 L 675.60 441.50 L 674.90 439.50 L 674.60 437.20 L 674.90 434.80 L 675.60 432.80 L 676.70 431.00 L 678.00 429.70 L 679.60 428.80 L 681.50 428.50 Z M 907.80 428.50 L 1030.40 428.50 L 1032.20 428.80 L 1033.80 429.70 L 1035.20 431.00 L 1036.30 432.80 L 1036.90 434.80 L 1037.20 437.20 L 1036.90 439.50 L 1036.30 441.50 L 1035.20 443.30 L 1033.80 444.60 L 1032.20 445.50 L 1030.40 445.80 L 907.80 445.80 L 906.00 445.50 L 904.40 444.60 L 903.00 443.30 L 901.90 441.50 L 901.30 439.50 L 901.00 437.20 L 901.30 434.80 L 901.90 432.80 L 903.00 431.00 L 904.40 429.70 L 906.00 428.80 L 907.80 428.50 Z" fill="#f8f8f8" fill-rule="evenodd" group-id="2,14,63" id="路径_2347" node-id="18" stroke="none" target-height="17.299988" target-width="815.2999" target-x="221.9" target-y="428.5"></path></g><path d="M 652.30 752.90 L 654.40 745.50 L 658.70 734.00 L 664.40 722.40 L 670.60 712.60 L 674.20 707.90 L 678.20 703.30 L 682.60 698.90 L 687.40 694.80 L 692.60 691.10 L 698.30 687.90 L 702.80 685.80 L 707.60 684.10 L 712.70 682.70 L 718.30 681.80 L 723.70 681.20 L 729.60 681.20 L 735.90 681.70 L 773.80 688.00 L 782.70 689.20 L 796.90 690.20 L 803.50 690.20 L 809.20 689.70 L 814.20 688.90 L 819.10 687.60 L 823.70 685.80 L 828.00 683.70 L 836.10 678.00 L 840.40 674.30 L 846.60 668.20 L 853.70 660.40 L 860.60 652.30 L 880.20 627.10 L 887.00 620.20 L 890.60 617.20 L 894.60 614.70 L 898.80 612.60 L 903.30 611.00 L 908.50 609.80 L 914.40 609.20 L 920.30 609.10 L 927.40 609.60 L 942.70 611.70 L 948.70 612.20 L 953.80 612.20 L 958.90 611.70 L 963.20 610.90 L 966.90 609.80 L 970.40 608.20 L 973.40 606.50 L 976.00 604.50 L 979.60 601.10 L 982.70 597.40 L 993.60 581.50 L 998.00 576.90 L 1005.90 570.60 L 1022.20 556.10 L 1025.50 553.80 L 1027.70 552.70 L 1030.00 552.00 L 1032.20 551.80 L 1034.50 552.00 L 1037.00 552.80 L 1039.80 554.20 L 1041.40 556.40 L 1042.20 558.60 L 1043.10 561.90 L 1044.10 568.60 L 1045.00 578.20 L 1045.50 588.60 L 1045.80 613.80 L 1044.90 656.80 L 1042.30 711.60 L 1039.80 752.90 Z" fill="#f1f1f3" fill-rule="evenodd" group-id="2,14,64" id="路径_2349" node-id="19" stroke="none" target-height="201.10004" target-width="393.50006" target-x="652.3" target-y="551.8"></path></g></g><g node-id="85"><g node-id="97"><path d="M 474.10 334.00 L 475.30 334.20 L 476.40 334.90 L 477.10 336.00 L 477.30 337.20 L 477.30 407.00 L 477.10 408.30 L 476.40 409.30 L 475.30 410.00 L 474.10 410.30 L 405.70 410.30 L 404.40 410.00 L 403.40 409.30 L 402.70 408.30 L 402.50 407.00 L 402.50 337.20 L 402.70 336.00 L 403.40 334.90 L 404.40 334.20 L 405.70 334.00 Z M 474.10 330.80 L 405.70 330.80 L 404.00 331.00 L 402.50 331.60 L 401.10 332.60 L 400.10 334.00 L 399.50 335.50 L 399.20 337.20 L 399.20 407.00 L 399.50 408.70 L 400.10 410.20 L 401.10 411.60 L 402.50 412.60 L 404.00 413.30 L 405.70 413.50 L 474.10 413.50 L 475.80 413.30 L 477.30 412.60 L 478.70 411.60 L 479.70 410.20 L 480.30 408.70 L 480.50 407.00 L 480.50 337.20 L 480.30 335.50 L 479.70 334.00 L 478.70 332.60 L 477.30 331.60 L 475.80 331.00 L 474.10 330.80 Z" fill="#8b93a0" fill-rule="nonzero" group-id="3,15" id="路径_1671" node-id="21" stroke="none" target-height="82.70001" target-width="81.29999" target-x="399.2" target-y="330.8"></path></g><path d="M 417.80 398.00 L 416.60 397.50 L 416.20 396.40 L 416.60 395.20 L 417.80 394.80 L 463.40 394.80 L 464.60 395.20 L 465.00 396.40 L 464.60 397.50 L 463.40 398.00 Z M 417.80 386.60 L 416.60 386.10 L 416.20 385.00 L 416.60 383.80 L 417.80 383.30 L 463.40 383.30 L 464.60 383.80 L 465.00 385.00 L 464.60 386.10 L 463.40 386.60 Z M 417.80 375.20 L 416.60 374.70 L 416.20 373.50 L 416.60 372.40 L 417.80 371.90 L 463.40 371.90 L 464.60 372.40 L 465.00 373.50 L 464.60 374.70 L 463.40 375.20 Z M 417.80 363.70 L 416.60 363.30 L 416.20 362.10 L 416.60 361.00 L 417.80 360.50 L 463.40 360.50 L 464.60 361.00 L 465.00 362.10 L 464.60 363.30 L 463.40 363.70 Z M 463.40 352.30 L 417.80 352.30 L 416.60 351.90 L 416.20 350.70 L 416.60 349.60 L 417.80 349.10 L 463.40 349.10 L 464.60 349.60 L 465.00 350.70 L 464.60 351.90 L 463.40 352.30 Z" fill="#2867ff" fill-rule="nonzero" group-id="3,16" id="路径_2350" node-id="22" stroke="none" target-height="48.899994" target-width="48.799988" target-x="416.2" target-y="349.1"></path></g><g node-id="86"><g node-id="99"><path d="M 714.10 321.30 L 715.40 321.60 L 716.40 322.30 L 717.10 323.30 L 717.40 324.60 L 717.40 394.40 L 717.10 395.60 L 716.40 396.70 L 715.40 397.40 L 714.10 397.60 L 645.70 397.60 L 644.50 397.40 L 643.40 396.70 L 642.70 395.60 L 642.50 394.40 L 642.50 324.60 L 642.70 323.30 L 643.40 322.30 L 644.50 321.60 L 645.70 321.30 Z M 714.10 318.10 L 645.70 318.10 L 644.00 318.30 L 642.50 319.00 L 641.20 320.00 L 640.10 321.40 L 639.50 322.90 L 639.30 324.60 L 639.30 394.40 L 639.50 396.10 L 640.10 397.60 L 641.20 399.00 L 642.50 400.00 L 644.00 400.60 L 645.70 400.80 L 714.10 400.80 L 715.80 400.60 L 717.30 400.00 L 718.70 399.00 L 719.70 397.60 L 720.40 396.10 L 720.60 394.40 L 720.60 324.60 L 720.40 322.90 L 719.70 321.40 L 718.70 320.00 L 717.30 319.00 L 715.80 318.30 L 714.10 318.10 Z" fill="#8b93a0" fill-rule="nonzero" group-id="4,17" id="路径_1671-2" node-id="24" stroke="none" target-height="82.69998" target-width="81.29999" target-x="639.3" target-y="318.1"></path></g><path d="M 657.80 385.30 L 656.70 384.90 L 656.20 383.70 L 656.70 382.60 L 657.80 382.10 L 703.50 382.10 L 704.60 382.60 L 705.10 383.70 L 704.60 384.90 L 703.50 385.30 Z M 657.80 373.90 L 656.70 373.50 L 656.20 372.30 L 656.70 371.20 L 657.80 370.70 L 703.50 370.70 L 704.60 371.20 L 705.10 372.30 L 704.60 373.50 L 703.50 373.90 Z M 657.80 362.50 L 656.70 362.10 L 656.20 360.90 L 656.70 359.80 L 657.80 359.30 L 703.50 359.30 L 704.60 359.80 L 705.10 360.90 L 704.60 362.10 L 703.50 362.50 Z M 657.80 351.10 L 656.70 350.60 L 656.20 349.50 L 656.70 348.40 L 657.80 347.90 L 703.50 347.90 L 704.60 348.40 L 705.10 349.50 L 704.60 350.60 L 703.50 351.10 Z M 703.50 339.70 L 657.80 339.70 L 656.70 339.20 L 656.20 338.10 L 656.70 336.90 L 657.80 336.50 L 703.50 336.50 L 704.60 336.90 L 705.10 338.10 L 704.60 339.20 L 703.50 339.70 Z" fill="#2867ff" fill-rule="nonzero" group-id="4,18" id="路径_2350-2" node-id="25" stroke="none" target-height="48.799988" target-width="48.899963" target-x="656.2" target-y="336.5"></path></g><g node-id="87"><g node-id="101"><path d="M 866.70 502.70 L 868.00 502.90 L 869.00 503.60 L 869.70 504.70 L 870.00 505.90 L 870.00 575.70 L 869.70 577.00 L 869.00 578.00 L 868.00 578.70 L 866.70 579.00 L 798.30 579.00 L 797.10 578.70 L 796.00 578.00 L 795.30 577.00 L 795.10 575.70 L 795.10 505.90 L 795.30 504.70 L 796.00 503.60 L 797.10 502.90 L 798.30 502.70 Z M 866.70 499.50 L 798.30 499.50 L 796.60 499.70 L 795.10 500.30 L 793.80 501.30 L 792.70 502.70 L 792.10 504.20 L 791.90 505.90 L 791.90 575.70 L 792.10 577.40 L 792.70 578.90 L 793.80 580.30 L 795.10 581.30 L 796.60 582.00 L 798.30 582.20 L 866.70 582.20 L 868.40 582.00 L 869.90 581.30 L 871.30 580.30 L 872.30 578.90 L 873.00 577.40 L 873.20 575.70 L 873.20 505.90 L 873.00 504.20 L 872.30 502.70 L 871.30 501.30 L 869.90 500.30 L 868.40 499.70 L 866.70 499.50 Z" fill="#8b93a0" fill-rule="nonzero" group-id="5,19" id="路径_1671-3" node-id="27" stroke="none" target-height="82.70001" target-width="81.29999" target-x="791.9" target-y="499.5"></path></g><path d="M 810.40 566.70 L 809.30 566.20 L 808.80 565.10 L 809.30 563.90 L 810.40 563.40 L 856.10 563.40 L 857.20 563.90 L 857.70 565.10 L 857.20 566.20 L 856.10 566.70 Z M 810.40 555.30 L 809.30 554.80 L 808.80 553.70 L 809.30 552.50 L 810.40 552.00 L 856.10 552.00 L 857.20 552.50 L 857.70 553.70 L 857.20 554.80 L 856.10 555.30 Z M 810.40 543.90 L 809.30 543.40 L 808.80 542.20 L 809.30 541.10 L 810.40 540.60 L 856.10 540.60 L 857.20 541.10 L 857.70 542.20 L 857.20 543.40 L 856.10 543.90 Z M 810.40 532.40 L 809.30 532.00 L 808.80 530.80 L 809.30 529.70 L 810.40 529.20 L 856.10 529.20 L 857.20 529.70 L 857.70 530.80 L 857.20 532.00 L 856.10 532.40 Z M 856.10 521.00 L 810.40 521.00 L 809.30 520.60 L 808.80 519.40 L 809.30 518.30 L 810.40 517.80 L 856.10 517.80 L 857.20 518.30 L 857.70 519.40 L 857.20 520.60 L 856.10 521.00 Z" fill="#2867ff" fill-rule="nonzero" group-id="5,20" id="路径_2350-3" node-id="28" stroke="none" target-height="48.900024" target-width="48.900024" target-x="808.8" target-y="517.8"></path></g><g node-id="88"><g node-id="103"><path d="M 591.80 413.50 L 521.60 413.50 L 518.90 412.90 L 516.60 411.40 L 515.00 409.10 L 514.50 406.30 L 514.50 356.10 L 515.00 353.40 L 516.60 351.00 L 518.90 349.50 L 521.60 348.90 L 591.80 348.90 L 594.60 349.50 L 596.90 351.00 L 598.40 353.40 L 599.00 356.10 L 599.00 406.30 L 598.40 409.10 L 596.90 411.40 L 594.60 412.90 L 591.80 413.50 Z M 521.60 352.20 L 520.10 352.50 L 518.80 353.30 L 518.00 354.60 L 517.70 356.10 L 517.70 406.30 L 518.00 407.80 L 518.80 409.10 L 520.10 410.00 L 521.60 410.30 L 591.80 410.30 L 593.30 410.00 L 594.60 409.10 L 595.50 407.80 L 595.80 406.30 L 595.80 356.10 L 595.50 354.60 L 594.60 353.30 L 593.30 352.50 L 591.80 352.20 Z" fill="#8b93a0" fill-rule="nonzero" group-id="6,21" id="路径_1725" node-id="30" stroke="none" target-height="64.600006" target-width="84.5" target-x="514.5" target-y="348.9"></path></g><g node-id="104"><path d="M 579.50 371.40 L 533.90 371.40 L 532.80 370.90 L 532.30 369.80 L 532.80 368.70 L 533.90 368.20 L 579.50 368.20 L 580.70 368.70 L 581.20 369.80 L 580.70 370.90 L 579.50 371.40 Z" fill="#2867ff" fill-rule="nonzero" group-id="6,22" id="路径_1728" node-id="31" stroke="none" target-height="3.1999817" target-width="48.900024" target-x="532.3" target-y="368.2"></path></g><g node-id="105"><path d="M 579.50 382.80 L 533.90 382.80 L 532.80 382.30 L 532.30 381.20 L 532.80 380.10 L 533.90 379.60 L 579.50 379.60 L 580.70 380.10 L 581.20 381.20 L 580.70 382.40 L 579.50 382.80 Z" fill="#2867ff" fill-rule="nonzero" group-id="6,23" id="路径_1731" node-id="32" stroke="none" target-height="3.1999817" target-width="48.900024" target-x="532.3" target-y="379.6"></path></g><path d="M 579.50 394.20 L 533.90 394.20 L 532.80 393.80 L 532.30 392.60 L 532.80 391.50 L 533.90 391.00 L 579.50 391.00 L 580.70 391.50 L 581.20 392.60 L 580.70 393.80 L 579.50 394.20 Z" fill="#2867ff" fill-rule="nonzero" group-id="6,24" id="路径_1734" node-id="33" stroke="none" target-height="3.2000122" target-width="48.900024" target-x="532.3" target-y="391"></path></g><g node-id="89"><g node-id="107"><path d="M 824.80 441.30 L 757.30 421.80 L 754.90 420.50 L 753.10 418.30 L 752.20 415.70 L 752.40 412.90 L 766.40 364.60 L 767.70 362.20 L 769.90 360.40 L 772.50 359.50 L 775.30 359.80 L 842.70 379.30 L 845.20 380.60 L 847.00 382.70 L 847.90 385.40 L 847.60 388.20 L 833.60 436.40 L 832.30 438.90 L 830.20 440.70 L 827.50 441.60 L 824.80 441.30 Z M 774.40 362.90 L 772.90 362.70 L 771.40 363.20 L 770.20 364.20 L 769.50 365.50 L 755.50 413.80 L 755.40 415.30 L 755.90 416.80 L 756.90 418.00 L 758.20 418.70 L 825.60 438.20 L 827.20 438.40 L 828.60 437.90 L 829.80 436.90 L 830.50 435.50 L 844.50 387.30 L 844.70 385.80 L 844.20 384.30 L 843.20 383.10 L 841.80 382.40 Z" fill="#8b93a0" fill-rule="nonzero" group-id="7,25" id="路径_1737" node-id="35" stroke="none" target-height="82.100006" target-width="95.70001" target-x="752.2" target-y="359.5"></path></g><g node-id="108"><path d="M 824.70 397.50 L 780.80 384.80 L 779.90 384.00 L 779.70 382.80 L 780.50 381.80 L 781.70 381.70 L 825.60 394.40 L 826.50 395.20 L 826.70 396.40 L 825.90 397.40 L 824.70 397.50 Z" fill="#2867ff" fill-rule="nonzero" group-id="7,26" id="路径_1740" node-id="36" stroke="none" target-height="15.799988" target-width="47" target-x="779.7" target-y="381.7"></path></g><g node-id="109"><path d="M 821.50 408.40 L 777.70 395.70 L 776.70 395.00 L 776.60 393.70 L 777.30 392.80 L 778.60 392.60 L 822.40 405.40 L 823.40 406.10 L 823.50 407.40 L 822.70 408.30 L 821.50 408.40 Z" fill="#2867ff" fill-rule="nonzero" group-id="7,27" id="路径_1743" node-id="37" stroke="none" target-height="15.799988" target-width="46.900024" target-x="776.6" target-y="392.6"></path></g><path d="M 818.30 419.40 L 774.50 406.70 L 773.50 405.90 L 773.40 404.70 L 774.20 403.70 L 775.40 403.60 L 819.20 416.30 L 820.20 417.10 L 820.30 418.30 L 819.60 419.30 L 818.30 419.40 Z" fill="#2867ff" fill-rule="nonzero" group-id="7,28" id="路径_1746" node-id="38" stroke="none" target-height="15.799988" target-width="46.899963" target-x="773.4" target-y="403.6"></path></g><g node-id="90"><g node-id="111"><path d="M 753.80 1020.00 L 882.50 1020.00 L 882.50 1008.30 L 753.80 1008.30 Z" fill="#e6e6e6" fill-rule="nonzero" group-id="8,29" id="路径_1751" node-id="40" stroke="none" target-height="11.700012" target-width="128.70001" target-x="753.8" target-y="1008.3"></path></g><g node-id="112"><g node-id="147"><path d="M 874.70 1014.10 L 759.70 1014.10 L 763.60 963.50 L 870.80 963.50 Z" fill="#e6e6e6" fill-rule="nonzero" group-id="8,30,65" id="路径_1749" node-id="42" stroke="none" target-height="50.599976" target-width="115" target-x="759.7" target-y="963.5"></path></g><g node-id="148"><path d="M 1037.40 637.00 L 597.90 637.00 L 595.60 637.20 L 593.50 637.90 L 591.40 639.00 L 589.70 640.40 L 588.20 642.20 L 587.10 644.20 L 586.50 646.40 L 586.20 648.70 L 586.20 916.70 L 1049.10 916.70 L 1049.10 648.70 L 1048.90 646.40 L 1048.20 644.20 L 1047.20 642.20 L 1045.70 640.40 L 1043.90 639.00 L 1041.90 637.90 L 1039.70 637.20 L 1037.40 637.00 Z" fill="#3e3d55" fill-rule="nonzero" group-id="8,30,66" id="路径_1754" node-id="43" stroke="none" target-height="279.7" target-width="462.89996" target-x="586.2" target-y="637"></path></g><g node-id="149"><path d="M 586.20 916.70 L 586.20 960.50 L 586.50 962.80 L 587.10 965.00 L 588.20 967.00 L 589.70 968.80 L 591.40 970.30 L 593.50 971.30 L 595.60 972.00 L 597.90 972.20 L 1037.40 972.20 L 1039.70 972.00 L 1041.90 971.30 L 1043.90 970.30 L 1045.70 968.80 L 1047.20 967.00 L 1048.20 965.00 L 1048.90 962.80 L 1049.10 960.50 L 1049.10 916.70 Z" fill="#e6e6e6" fill-rule="nonzero" group-id="8,30,67" id="路径_1757" node-id="44" stroke="none" target-height="55.5" target-width="462.89996" target-x="586.2" target-y="916.7"></path></g><g node-id="150"><path d="M 609.60 895.20 L 1026.70 895.20 L 1026.70 661.40 L 609.60 661.40 Z" fill="#f1f2f4" fill-rule="nonzero" group-id="8,30,68" id="路径_1759" node-id="45" stroke="none" target-height="233.79999" target-width="417.09998" target-x="609.6" target-y="661.4"></path></g><path d="M 818.20 955.70 L 820.50 955.40 L 822.60 954.80 L 824.70 953.70 L 826.40 952.20 L 827.90 950.50 L 829.00 948.40 L 829.60 946.30 L 829.90 944.00 L 829.60 941.70 L 829.00 939.50 L 827.90 937.50 L 826.40 935.70 L 824.70 934.20 L 822.60 933.20 L 820.50 932.50 L 818.20 932.30 L 814.10 933.00 L 812.30 933.90 L 809.20 936.40 L 807.20 939.90 L 806.50 944.00 L 807.20 948.10 L 809.20 951.50 L 812.30 954.10 L 814.10 954.90 L 818.20 955.70 Z" fill="#3e3d55" fill-rule="nonzero" group-id="8,30,69" id="路径_1762" node-id="46" stroke="none" target-height="23.400024" target-width="23.400024" target-x="806.5" target-y="932.3"></path></g><g node-id="113"><path d="M 637.30 669.00 L 637.90 667.40 L 639.50 666.80 L 641.00 667.40 L 641.70 669.00 L 641.00 670.60 L 639.50 671.20 L 637.90 670.60 L 637.30 669.00 Z M 628.80 669.00 L 629.50 667.40 L 631.10 666.80 L 631.90 667.00 L 633.10 668.10 L 633.30 669.00 L 632.60 670.60 L 631.10 671.20 L 630.20 671.10 L 629.00 669.90 L 628.80 669.00 Z M 620.40 669.00 L 621.10 667.40 L 622.60 666.80 L 623.50 667.00 L 624.70 668.10 L 624.80 669.00 L 624.20 670.60 L 622.60 671.20 L 621.80 671.10 L 620.60 669.90 L 620.40 669.00 Z" fill="#ffffff" fill-rule="nonzero" group-id="8,31" id="路径_2358" node-id="47" stroke="none" target-height="4.4000244" target-width="21.299988" target-x="620.4" target-y="666.8"></path></g><g node-id="114"><path d="M 620.40 873.00 L 1014.70 873.00 L 1014.70 676.60 L 620.40 676.60 Z" fill="#ffffff" fill-rule="nonzero" group-id="8,32" id="路径_1773" node-id="48" stroke="none" target-height="196.40002" target-width="394.3" target-x="620.4" target-y="676.6"></path></g><g node-id="115"><path d="M 906.50 779.70 L 905.60 779.30 L 905.10 778.30 L 905.10 707.30 L 905.60 706.30 L 906.50 705.90 L 988.50 705.90 L 989.50 706.30 L 989.90 707.30 L 989.90 778.30 L 989.50 779.30 L 988.50 779.70 Z M 777.30 779.70 L 776.30 779.30 L 775.90 778.30 L 775.90 708.10 L 776.30 707.10 L 777.30 706.70 L 858.40 706.70 L 859.40 707.10 L 859.80 708.10 L 859.80 778.30 L 859.40 779.30 L 858.40 779.70 Z M 646.60 779.70 L 645.60 779.30 L 645.20 778.30 L 645.20 707.80 L 645.60 706.80 L 646.60 706.40 L 728.00 706.40 L 729.00 706.80 L 729.40 707.80 L 729.40 778.30 L 729.00 779.30 L 728.00 779.70 Z" fill="#8b93a0" fill-opacity="0.122" fill-rule="nonzero" group-id="8,33" id="路径_2357" node-id="49" stroke="none" target-height="73.79999" target-width="344.7" target-x="645.2" target-y="705.9"></path></g><g node-id="116"><path d="M 908.00 834.00 L 906.90 833.80 L 905.90 833.20 L 905.30 832.20 L 905.10 831.10 L 905.30 830.00 L 905.90 829.10 L 906.90 828.50 L 908.00 828.30 L 942.40 828.30 L 944.50 829.10 L 945.10 830.00 L 945.30 831.10 L 945.10 832.20 L 944.50 833.20 L 943.50 833.80 L 942.40 834.00 Z M 780.40 834.00 L 779.30 833.80 L 778.30 833.20 L 777.70 832.20 L 777.50 831.10 L 777.70 830.00 L 778.30 829.10 L 779.30 828.50 L 780.40 828.30 L 814.80 828.30 L 815.90 828.50 L 816.90 829.10 L 817.50 830.00 L 817.70 831.10 L 817.50 832.20 L 816.90 833.20 L 815.90 833.80 L 814.80 834.00 Z M 648.10 834.00 L 647.00 833.80 L 646.10 833.20 L 645.40 832.20 L 645.20 831.10 L 646.10 829.10 L 648.10 828.30 L 682.50 828.30 L 683.60 828.50 L 684.60 829.10 L 685.20 830.00 L 685.40 831.10 L 684.60 833.20 L 682.50 834.00 Z" fill="#2968ff" fill-rule="nonzero" group-id="8,34" id="路径_2356" node-id="50" stroke="none" target-height="5.700012" target-width="300.09998" target-x="645.2" target-y="828.3"></path></g><path d="M 908.00 820.30 L 906.90 820.10 L 905.90 819.50 L 905.30 818.50 L 905.10 817.40 L 905.30 816.30 L 905.90 815.40 L 906.90 814.80 L 908.00 814.60 L 984.50 814.60 L 986.50 815.40 L 987.10 816.30 L 987.40 817.40 L 987.10 818.50 L 986.50 819.50 L 984.50 820.30 Z M 780.40 820.30 L 779.30 820.10 L 778.30 819.50 L 777.70 818.50 L 777.50 817.40 L 777.70 816.30 L 778.30 815.40 L 780.40 814.60 L 856.90 814.60 L 858.00 814.80 L 858.90 815.40 L 859.50 816.30 L 859.80 817.40 L 859.50 818.50 L 858.90 819.50 L 858.00 820.10 L 856.90 820.30 Z M 648.10 820.30 L 647.00 820.10 L 646.10 819.50 L 645.40 818.50 L 645.20 817.40 L 645.40 816.30 L 646.10 815.40 L 647.00 814.80 L 648.10 814.60 L 724.60 814.60 L 725.70 814.80 L 726.60 815.40 L 727.30 816.30 L 727.50 817.40 L 727.30 818.50 L 726.60 819.50 L 724.60 820.30 Z M 908.00 806.20 L 906.90 805.90 L 905.90 805.30 L 905.30 804.40 L 905.10 803.30 L 905.30 802.20 L 905.90 801.20 L 906.90 800.60 L 908.00 800.40 L 984.50 800.40 L 985.60 800.60 L 986.50 801.20 L 987.10 802.20 L 987.40 803.30 L 987.10 804.40 L 986.50 805.30 L 985.60 805.90 L 984.50 806.20 Z M 780.40 806.20 L 778.30 805.30 L 777.70 804.40 L 777.50 803.30 L 777.70 802.20 L 778.30 801.20 L 779.30 800.60 L 780.40 800.40 L 856.90 800.40 L 858.00 800.60 L 858.90 801.20 L 859.50 802.20 L 859.80 803.30 L 859.50 804.40 L 858.90 805.30 L 858.00 805.90 L 856.90 806.20 Z M 648.10 806.20 L 647.00 805.90 L 646.10 805.30 L 645.40 804.40 L 645.20 803.30 L 645.40 802.20 L 646.10 801.20 L 647.00 800.60 L 648.10 800.40 L 724.60 800.40 L 725.70 800.60 L 726.60 801.20 L 727.30 802.20 L 727.50 803.30 L 727.30 804.40 L 726.60 805.30 L 725.70 805.90 L 724.60 806.20 Z" fill="#8b93a0" fill-opacity="0.168" fill-rule="nonzero" group-id="8,35" id="路径_2355" node-id="51" stroke="none" target-height="19.899963" target-width="342.2" target-x="645.2" target-y="800.4"></path></g><g node-id="91"><g node-id="118"><path d="M 167.80 775.00 L 167.80 855.80 L 264.60 909.50 L 264.60 823.60 Z" fill="#192137" fill-rule="evenodd" group-id="9,36" id="路径_1812" node-id="53" stroke="none" target-height="134.5" target-width="96.8" target-x="167.8" target-y="775"></path></g><g node-id="119"><path d="M 264.20 823.60 L 264.20 894.30 L 387.80 856.40 L 387.80 792.00 Z" fill="#192137" fill-rule="evenodd" group-id="9,37" id="路径_1815" node-id="54" stroke="none" target-height="102.29999" target-width="123.599976" target-x="264.2" target-y="792"></path></g><g node-id="120"><path d="M 265.50 824.60 L 166.50 775.40 L 176.30 770.40 L 184.80 766.90 L 198.60 762.40 L 207.80 760.00 L 217.10 758.00 L 227.80 756.20 L 240.10 754.60 L 259.20 753.30 L 281.90 753.30 L 297.20 754.90 L 304.50 756.00 L 322.40 759.60 L 332.40 762.30 L 345.70 766.70 L 352.50 769.40 L 359.10 772.40 L 365.50 775.80 L 371.60 779.50 L 377.50 783.60 L 382.90 788.20 L 387.80 793.10 Z" fill="#2968ff" fill-rule="evenodd" group-id="9,38" id="路径_1818" node-id="55" stroke="none" target-height="71.29999" target-width="221.29999" target-x="166.5" target-y="753.3"></path></g><g node-id="121"><path d="M 346.30 902.50 L 346.30 959.20 L 265.20 908.20 L 265.20 847.10 Z" fill="#192137" fill-rule="evenodd" group-id="9,39" id="路径_1821" node-id="56" stroke="none" target-height="112.10004" target-width="81.099976" target-x="265.2" target-y="847.1"></path></g><g node-id="122"><path d="M 346.30 902.50 L 346.30 959.20 L 353.30 956.40 L 358.50 953.90 L 364.00 951.00 L 374.50 944.20 L 382.90 937.20 L 386.80 933.20 L 390.40 928.80 L 393.80 924.10 L 396.00 920.30 L 399.60 912.10 L 400.90 907.50 L 400.90 843.90 L 370.00 860.90 Z" fill="#192137" fill-rule="evenodd" group-id="9,40" id="路径_1824" node-id="57" stroke="none" target-height="115.29999" target-width="54.600006" target-x="346.3" target-y="843.9"></path></g><g node-id="123"><path d="M 265.20 847.10 L 346.30 903.10 L 349.20 902.50 L 356.60 900.30 L 367.00 895.80 L 374.50 891.30 L 378.40 888.40 L 382.10 885.30 L 385.60 881.70 L 389.10 877.50 L 392.20 873.10 L 395.00 868.10 L 397.50 862.50 L 398.90 858.50 L 400.10 851.90 L 400.30 847.60 L 400.10 843.10 L 399.20 838.00 L 396.70 831.10 L 394.80 827.30 L 392.50 823.70 L 389.60 820.00 L 385.90 816.20 Z" fill="#00bea6" fill-rule="evenodd" group-id="9,41" id="路径_1827" node-id="58" stroke="none" target-height="86.89996" target-width="135.09998" target-x="265.2" target-y="816.2"></path></g><g node-id="124"><path d="M 130.70 868.60 L 130.80 905.70 L 132.20 912.40 L 134.50 918.50 L 138.50 925.70 L 145.00 933.80 L 149.00 937.60 L 153.80 941.70 L 159.80 945.90 L 166.00 949.70 L 173.40 953.60 L 182.20 957.50 L 196.20 962.50 L 213.90 967.30 L 225.00 969.20 L 243.70 971.30 L 264.40 972.20 L 283.50 971.80 L 293.30 971.10 L 303.60 969.90 L 314.40 968.20 L 325.00 966.00 L 335.80 963.20 L 346.70 959.80 L 346.70 931.50 L 300.10 910.70 L 212.00 857.30 Z" fill="#192137" fill-rule="evenodd" group-id="9,42" id="路径_1830" node-id="59" stroke="none" target-height="114.900024" target-width="216.00002" target-x="130.7" target-y="857.3"></path></g><path d="M 347.40 930.50 L 331.10 934.90 L 323.00 936.70 L 302.00 940.30 L 289.70 941.80 L 272.40 943.00 L 263.00 943.30 L 244.10 942.70 L 234.30 941.80 L 224.60 940.50 L 214.80 938.60 L 204.90 936.30 L 190.40 931.60 L 176.20 925.50 L 169.40 921.80 L 162.60 917.80 L 156.10 913.20 L 147.50 906.30 L 142.50 900.80 L 139.60 897.10 L 134.90 889.00 L 132.00 881.30 L 131.10 877.20 L 130.70 872.80 L 130.70 868.20 L 131.20 864.70 L 133.20 857.40 L 134.90 853.40 L 139.40 845.90 L 142.60 841.90 L 150.40 833.80 L 155.20 829.80 L 167.60 821.10 L 266.80 871.10 Z" fill="#ffb906" fill-rule="evenodd" group-id="9,43" id="路径_1833" node-id="60" stroke="none" target-height="122.20001" target-width="216.7" target-x="130.7" target-y="821.1"></path></g><g node-id="92"><g node-id="126"><path d="M 375.70 869.20 L 377.10 869.10 L 379.30 868.00 L 380.90 866.00 L 381.30 864.70 L 381.20 862.10 L 380.00 859.90 L 377.90 858.40 L 376.60 858.00 L 374.10 858.20 L 371.90 859.40 L 371.00 860.40 L 370.10 862.90 L 370.30 865.40 L 371.70 867.60 L 374.20 869.00 L 375.70 869.20 Z" fill="#c1bbff" fill-rule="evenodd" group-id="10,44" id="路径_1838" node-id="62" stroke="none" target-height="11.200012" target-width="11.199982" target-x="370.1" target-y="858"></path></g><g node-id="127"><path d="M 222.40 775.40 L 223.90 775.20 L 226.50 773.70 L 227.40 772.50 L 228.10 769.70 L 227.90 768.20 L 226.50 765.70 L 225.30 764.80 L 222.40 764.00 L 221.00 764.20 L 218.40 765.70 L 217.50 766.90 L 216.80 769.70 L 217.00 771.20 L 218.40 773.70 L 221.00 775.20 L 222.40 775.40 Z" fill="#c1bbff" fill-rule="nonzero" group-id="10,45" id="路径_1844" node-id="63" stroke="none" target-height="11.400024" target-width="11.300003" target-x="216.8" target-y="764"></path></g><g node-id="128"><path d="M 204.40 904.90 L 205.90 904.70 L 208.40 903.20 L 209.30 902.00 L 210.10 899.20 L 209.90 897.70 L 208.40 895.20 L 205.90 893.70 L 202.90 893.70 L 200.40 895.20 L 199.50 896.40 L 198.70 899.20 L 198.90 900.70 L 200.40 903.20 L 201.60 904.10 L 204.40 904.90 Z" fill="#c1bbff" fill-rule="nonzero" group-id="10,46" id="路径_1850" node-id="64" stroke="none" target-height="11.200012" target-width="11.400009" target-x="198.7" target-y="893.7"></path></g><g node-id="129"><path d="M 147.00 980.30 L 148.40 980.10 L 150.60 978.80 L 151.80 976.60 L 152.00 975.30 L 151.80 973.90 L 150.60 971.70 L 148.40 970.40 L 147.00 970.20 L 145.60 970.40 L 143.40 971.70 L 142.10 973.90 L 142.00 975.30 L 142.10 976.60 L 143.40 978.80 L 144.50 979.60 L 147.00 980.30 Z" fill="none" group-id="10,47" id="路径_1851" node-id="65" stroke="#c1bbff" stroke-linecap="butt" stroke-width="1" target-height="10.099976" target-width="10" target-x="142" target-y="970.2"></path></g><g node-id="130"><path d="M 378.20 863.00 L 432.50 863.00 L 432.50 935.90" fill="none" group-id="10,48" id="路径_1834" node-id="66" stroke="#c1bbff" stroke-linecap="butt" stroke-width="1" target-height="72.900024" target-width="54.299988" target-x="378.2" target-y="863"></path></g><g node-id="131"><path d="M 222.40 696.80 L 222.40 769.70" fill="none" group-id="10,49" id="路径_1840" node-id="67" stroke="#9690d4" stroke-linecap="butt" stroke-width="1" target-height="72.900024" target-width="0" target-x="222.4" target-y="696.8"></path></g><g node-id="132"><path d="M 201.90 898.60 L 147.60 898.60 L 147.60 971.50" fill="none" group-id="10,50" id="路径_1846" node-id="68" stroke="#c1bbff" stroke-linecap="butt" stroke-width="1" target-height="72.900024" target-width="54.299988" target-x="147.6" target-y="898.6"></path></g><g node-id="133"><path d="M 195.30 647.50 L 192.30 647.90 L 189.70 649.50 L 187.80 652.00 L 187.10 655.00 L 189.90 655.00 L 190.10 653.60 L 191.50 651.20 L 193.90 650.00 L 196.70 650.00 L 199.00 651.10 L 200.20 653.10 L 200.20 655.40 L 199.80 656.50 L 199.00 657.40 L 197.80 658.10 L 196.60 658.40 L 193.40 658.50 L 193.40 660.70 L 196.80 660.80 L 199.30 661.90 L 200.60 664.00 L 200.60 666.60 L 200.10 667.80 L 199.30 668.80 L 198.00 669.70 L 196.70 670.20 L 193.80 670.20 L 191.30 669.10 L 190.50 668.20 L 189.50 666.00 L 189.40 664.70 L 186.60 664.70 L 187.40 668.10 L 189.50 670.90 L 191.20 672.00 L 193.10 672.60 L 195.10 672.70 L 198.40 672.20 L 201.20 670.60 L 203.00 668.10 L 203.60 665.20 L 203.40 663.90 L 202.30 661.60 L 200.90 660.30 L 199.10 659.50 L 200.80 658.80 L 202.00 657.50 L 202.80 655.90 L 203.00 654.10 L 202.50 651.40 L 200.90 649.30 L 199.20 648.20 L 197.30 647.60 L 195.30 647.50 Z M 215.50 647.50 L 213.40 647.70 L 211.60 648.40 L 210.10 649.70 L 208.90 651.30 L 207.70 654.10 L 207.10 657.10 L 207.10 663.10 L 207.70 666.10 L 208.90 668.90 L 210.10 670.50 L 211.60 671.70 L 213.40 672.50 L 215.50 672.70 L 217.50 672.50 L 219.30 671.70 L 220.80 670.50 L 222.00 668.90 L 223.20 666.10 L 223.80 663.10 L 223.80 657.10 L 223.20 654.10 L 222.00 651.30 L 220.80 649.70 L 219.30 648.50 L 217.50 647.70 L 215.50 647.50 Z M 215.50 649.90 L 217.00 650.10 L 218.20 650.70 L 219.30 651.80 L 220.10 653.40 L 220.80 655.60 L 221.20 660.10 L 220.80 664.60 L 220.10 666.80 L 219.30 668.40 L 218.20 669.50 L 217.00 670.10 L 215.50 670.30 L 213.90 670.10 L 212.70 669.50 L 211.60 668.40 L 210.80 666.80 L 210.10 664.60 L 209.70 660.10 L 210.10 655.60 L 210.80 653.40 L 211.60 651.80 L 212.70 650.70 L 214.00 650.10 L 215.50 649.90 Z M 250.80 658.90 L 249.60 659.00 L 247.40 660.00 L 245.80 662.40 L 245.40 664.00 L 245.40 667.30 L 245.80 668.80 L 247.40 671.10 L 249.60 672.10 L 252.00 672.10 L 254.10 671.10 L 255.00 670.30 L 256.20 667.30 L 256.20 664.00 L 255.00 660.90 L 253.10 659.40 L 250.80 658.90 Z M 247.90 647.50 L 234.20 672.70 L 236.40 672.70 L 250.00 647.50 Z M 233.50 648.00 L 231.20 648.40 L 229.30 650.00 L 228.60 651.40 L 228.00 654.60 L 228.10 656.30 L 229.30 659.30 L 231.20 660.80 L 233.50 661.30 L 235.80 660.80 L 237.70 659.30 L 238.40 657.80 L 239.00 654.60 L 238.90 653.00 L 237.70 650.00 L 235.90 648.40 L 233.50 648.00 Z M 250.80 660.80 L 252.10 661.20 L 253.10 662.20 L 253.70 665.60 L 253.10 668.90 L 252.20 670.00 L 250.80 670.40 L 249.40 670.00 L 248.50 668.90 L 248.00 667.30 L 247.90 665.60 L 248.00 663.90 L 248.50 662.20 L 249.40 661.10 L 250.80 660.80 Z M 233.50 649.80 L 234.20 649.90 L 235.40 650.60 L 236.30 652.90 L 236.40 654.60 L 235.80 657.90 L 234.90 659.00 L 233.50 659.40 L 232.10 659.00 L 231.20 658.00 L 230.70 656.30 L 230.60 654.60 L 230.70 652.90 L 231.20 651.20 L 232.20 650.20 L 233.50 649.80 Z" fill="#2968ff" fill-rule="nonzero" group-id="10,51" id="路径_2569" node-id="69" stroke="none" target-height="25.200012" target-width="69.600006" target-x="186.6" target-y="647.5"></path></g><g node-id="134"><path d="M 108.40 987.00 L 107.10 1000.40 L 109.80 1000.40 L 110.70 999.10 L 112.00 998.20 L 113.50 997.60 L 116.20 997.50 L 118.30 998.30 L 119.20 999.00 L 120.10 1000.40 L 120.60 1001.90 L 120.60 1005.10 L 120.00 1006.50 L 119.10 1007.70 L 117.80 1008.60 L 116.40 1009.20 L 112.90 1009.10 L 111.20 1008.20 L 110.20 1007.20 L 109.30 1004.70 L 106.60 1004.70 L 107.40 1007.70 L 109.40 1010.00 L 111.10 1011.00 L 112.90 1011.50 L 114.90 1011.70 L 116.50 1011.60 L 119.60 1010.50 L 122.10 1008.20 L 123.40 1005.20 L 123.40 1001.80 L 122.30 998.70 L 121.40 997.30 L 118.80 995.70 L 117.30 995.20 L 114.20 995.30 L 111.20 996.50 L 109.90 997.60 L 110.70 989.40 L 122.50 989.40 L 122.50 987.00 Z M 135.50 986.50 L 133.40 986.70 L 131.60 987.40 L 130.10 988.70 L 128.90 990.30 L 127.70 993.10 L 127.10 996.10 L 127.10 1002.10 L 127.70 1005.10 L 128.90 1007.90 L 130.10 1009.50 L 131.60 1010.70 L 133.40 1011.50 L 135.50 1011.70 L 137.50 1011.50 L 139.30 1010.70 L 140.80 1009.50 L 142.00 1007.90 L 143.20 1005.10 L 143.80 1002.10 L 143.80 996.10 L 143.20 993.10 L 142.00 990.30 L 140.80 988.70 L 139.30 987.50 L 137.50 986.70 L 135.50 986.50 Z M 135.50 988.90 L 137.00 989.10 L 138.20 989.70 L 139.30 990.80 L 140.10 992.40 L 140.80 994.60 L 141.20 999.10 L 140.80 1003.60 L 140.10 1005.80 L 139.30 1007.40 L 138.20 1008.50 L 137.00 1009.10 L 135.50 1009.30 L 133.90 1009.10 L 132.70 1008.50 L 131.60 1007.40 L 130.80 1005.80 L 130.10 1003.60 L 129.70 999.10 L 130.10 994.60 L 130.80 992.40 L 131.60 990.80 L 132.70 989.70 L 134.00 989.10 L 135.50 988.90 Z M 170.80 997.90 L 169.60 998.00 L 167.40 999.00 L 165.80 1001.40 L 165.40 1003.00 L 165.40 1006.30 L 165.80 1007.80 L 167.40 1010.10 L 169.60 1011.10 L 172.00 1011.10 L 174.10 1010.10 L 175.00 1009.30 L 176.20 1006.30 L 176.20 1003.00 L 175.00 999.90 L 173.10 998.40 L 170.80 997.90 Z M 167.90 986.50 L 154.20 1011.70 L 156.40 1011.70 L 170.00 986.50 Z M 153.50 987.00 L 151.20 987.40 L 149.30 989.00 L 148.60 990.40 L 148.00 993.60 L 148.10 995.30 L 149.30 998.30 L 151.20 999.80 L 153.50 1000.30 L 155.80 999.80 L 157.70 998.30 L 158.40 996.80 L 159.00 993.60 L 158.90 992.00 L 157.70 989.00 L 155.90 987.40 L 153.50 987.00 Z M 170.80 999.80 L 172.10 1000.20 L 173.10 1001.20 L 173.70 1004.60 L 173.10 1007.90 L 172.20 1009.00 L 170.80 1009.40 L 169.40 1009.00 L 168.50 1007.90 L 168.00 1006.30 L 167.90 1004.60 L 168.00 1002.90 L 168.50 1001.20 L 169.40 1000.10 L 170.80 999.80 Z M 153.50 988.80 L 154.20 988.90 L 155.40 989.60 L 156.30 991.90 L 156.40 993.60 L 155.80 996.90 L 154.90 998.00 L 153.50 998.40 L 152.10 998.00 L 151.20 997.00 L 150.70 995.30 L 150.60 993.60 L 150.70 991.90 L 151.20 990.20 L 152.20 989.20 L 153.50 988.80 Z" fill="#e9a100" fill-rule="nonzero" group-id="10,52" id="路径_2568" node-id="70" stroke="none" target-height="25.200012" target-width="69.6" target-x="106.6" target-y="986.5"></path></g><g node-id="135"><path d="M 412.40 969.50 L 409.20 970.10 L 406.40 971.90 L 404.70 975.00 L 404.20 978.40 L 407.00 978.40 L 407.10 976.70 L 408.50 973.60 L 410.20 972.20 L 412.30 971.90 L 414.90 972.40 L 416.00 973.10 L 416.80 974.10 L 417.30 976.50 L 417.10 978.10 L 416.50 979.60 L 415.50 980.90 L 408.90 985.90 L 406.40 988.20 L 404.60 991.00 L 404.00 994.20 L 420.10 994.20 L 420.10 991.80 L 407.40 991.80 L 408.10 990.30 L 409.70 988.50 L 417.70 982.30 L 418.70 981.00 L 419.90 978.10 L 420.00 975.10 L 418.90 972.50 L 416.70 970.60 L 413.90 969.60 L 412.40 969.50 Z M 432.50 969.50 L 430.40 969.70 L 428.60 970.40 L 427.10 971.70 L 425.90 973.30 L 424.70 976.10 L 424.10 979.10 L 424.10 985.10 L 424.70 988.10 L 425.90 990.90 L 427.10 992.50 L 428.60 993.70 L 430.40 994.50 L 432.50 994.70 L 434.50 994.50 L 436.30 993.70 L 437.80 992.50 L 439.00 990.90 L 440.20 988.10 L 440.80 985.10 L 440.80 979.10 L 440.20 976.10 L 439.00 973.30 L 437.80 971.70 L 436.30 970.50 L 434.50 969.70 L 432.50 969.50 Z M 432.50 971.90 L 434.00 972.10 L 435.20 972.70 L 436.30 973.80 L 437.10 975.40 L 437.80 977.60 L 438.20 982.10 L 437.80 986.60 L 437.10 988.80 L 436.30 990.40 L 435.20 991.50 L 434.00 992.10 L 432.50 992.30 L 430.90 992.10 L 429.70 991.50 L 428.60 990.40 L 427.80 988.80 L 427.10 986.60 L 426.70 982.10 L 427.10 977.60 L 427.80 975.40 L 428.60 973.80 L 429.70 972.70 L 431.00 972.10 L 432.50 971.90 Z M 467.80 980.90 L 466.60 981.00 L 464.40 982.00 L 462.80 984.40 L 462.40 986.00 L 462.40 989.30 L 462.80 990.80 L 464.40 993.10 L 466.60 994.10 L 469.00 994.10 L 471.10 993.10 L 472.00 992.30 L 473.20 989.30 L 473.20 986.00 L 472.00 982.90 L 470.10 981.40 L 467.80 980.90 Z M 464.90 969.50 L 451.20 994.70 L 453.40 994.70 L 467.00 969.50 Z M 450.50 970.00 L 449.30 970.00 L 447.20 971.10 L 445.60 973.40 L 445.10 975.00 L 445.10 978.30 L 446.30 981.30 L 447.20 982.20 L 449.30 983.20 L 450.50 983.30 L 452.80 982.80 L 454.70 981.30 L 455.40 979.80 L 456.00 976.60 L 455.90 975.00 L 454.70 972.00 L 452.90 970.40 L 450.50 970.00 Z M 467.80 982.80 L 469.10 983.20 L 470.10 984.20 L 470.70 987.60 L 470.10 990.90 L 469.20 992.00 L 467.80 992.40 L 466.40 992.00 L 465.50 990.90 L 465.00 989.30 L 464.90 987.60 L 465.00 985.90 L 465.50 984.20 L 466.40 983.10 L 467.80 982.80 Z M 450.50 971.80 L 451.20 971.90 L 452.40 972.60 L 453.30 974.90 L 453.40 976.60 L 452.80 979.90 L 451.90 981.00 L 450.50 981.40 L 449.10 981.00 L 448.20 980.00 L 447.70 978.30 L 447.60 976.60 L 447.70 974.90 L 448.20 973.20 L 449.20 972.20 L 450.50 971.80 Z" fill="#00bea6" fill-rule="nonzero" group-id="10,53" id="路径_2567" node-id="71" stroke="none" target-height="25.200012" target-width="69.20001" target-x="404" target-y="969.5"></path></g><g node-id="136"><path d="M 222.70 697.70 L 224.00 697.50 L 226.20 696.20 L 227.50 694.00 L 227.70 692.60 L 227.50 691.30 L 226.20 689.10 L 224.00 687.80 L 222.70 687.60 L 221.30 687.80 L 219.10 689.10 L 217.80 691.30 L 217.60 692.60 L 217.80 694.00 L 219.10 696.20 L 221.40 697.50 L 222.70 697.70 Z" fill="none" group-id="10,54" id="路径_2359" node-id="72" stroke="#9690d4" stroke-linecap="butt" stroke-width="1" target-height="10.100037" target-width="10.099991" target-x="217.6" target-y="687.6"></path></g><path d="M 433.10 944.70 L 434.80 944.40 L 436.30 943.50 L 437.40 942.30 L 438.00 940.60 L 438.10 938.90 L 437.50 937.30 L 436.50 935.90 L 435.00 935.00 L 433.30 934.60 L 431.60 934.80 L 430.10 935.60 L 428.90 936.90 L 428.20 938.50 L 428.10 940.20 L 428.50 941.80 L 429.50 943.20 L 430.60 944.00 L 433.10 944.70 Z" fill="none" group-id="10,55" id="路径_1839" node-id="73" stroke="#c1bbff" stroke-linecap="butt" stroke-width="1" target-height="10.100037" target-width="10" target-x="428.1" target-y="934.6"></path></g></svg>