<?xml version="1.0" standalone="no"?><!DOCTYPE svg PUBLIC "-//W3C//DTD SVG 1.1//EN" "http://www.w3.org/Graphics/SVG/1.1/DTD/svg11.dtd"><svg height="1062" node-id="1" sillyvg="true" template-height="1062" template-width="1200" version="1.1" viewBox="0 0 1200 1062" width="1200" xmlns="http://www.w3.org/2000/svg" xmlns:xlink="http://www.w3.org/1999/xlink"><defs node-id="214"></defs><path d="M 594.40 1061.80 L 704.90 1061.20 L 807.70 1059.30 L 900.70 1056.40 L 981.80 1052.50 L 1018.10 1050.10 L 1048.70 1047.70 L 1077.20 1045.00 L 1099.20 1042.30 L 1113.20 1040.20 L 1123.60 1038.20 L 1131.10 1036.30 L 1136.10 1034.70 L 1139.30 1033.20 L 1141.10 1031.90 L 1142.00 1030.90 L 1142.30 1029.90 L 1142.00 1028.90 L 1141.10 1027.80 L 1139.30 1026.50 L 1136.10 1025.10 L 1131.10 1023.40 L 1123.60 1021.60 L 1113.20 1019.60 L 1099.20 1017.40 L 1077.20 1014.70 L 1048.70 1012.00 L 1018.10 1009.60 L 981.80 1007.20 L 943.70 1005.20 L 856.20 1001.80 L 757.90 999.30 L 650.90 998.00 L 538.00 998.00 L 431.00 999.30 L 332.70 1001.80 L 245.20 1005.20 L 207.10 1007.20 L 170.80 1009.60 L 140.20 1012.00 L 111.70 1014.70 L 89.70 1017.40 L 75.70 1019.60 L 65.30 1021.60 L 57.80 1023.40 L 52.70 1025.10 L 49.60 1026.50 L 47.80 1027.80 L 46.90 1028.90 L 46.60 1029.90 L 46.90 1030.90 L 47.80 1031.90 L 49.60 1033.20 L 52.70 1034.70 L 57.80 1036.30 L 65.30 1038.20 L 75.70 1040.20 L 89.70 1042.30 L 111.70 1045.00 L 140.20 1047.70 L 170.80 1050.10 L 207.10 1052.50 L 288.20 1056.40 L 381.20 1059.30 L 484.00 1061.20 L 594.40 1061.80 Z" fill="#f5f5f5" fill-rule="nonzero" node-id="216" stroke="none" target-height="63.80005" target-width="1095.7001" target-x="46.6" target-y="998"></path><path d="M 561.70 836.20 L 16.10 836.20 L 13.00 835.90 L 10.00 835.00 L 7.20 833.50 L 4.70 831.50 L 2.70 829.00 L 1.20 826.30 L 0.30 823.20 L 0.00 820.10 L 0.00 53.20 L 0.30 50.10 L 1.30 47.10 L 2.80 44.30 L 4.80 41.90 L 7.20 39.90 L 10.00 38.40 L 13.00 37.50 L 16.10 37.20 L 561.70 37.20 L 564.80 37.50 L 567.80 38.40 L 570.60 39.90 L 573.10 41.90 L 575.10 44.40 L 576.60 47.20 L 577.50 50.20 L 577.80 53.30 L 577.80 820.10 L 577.50 823.20 L 576.60 826.20 L 575.10 829.00 L 573.10 831.50 L 570.60 833.50 L 567.80 835.00 L 564.80 835.90 L 561.70 836.20 Z M 16.10 37.80 L 13.10 38.10 L 10.20 39.00 L 7.60 40.40 L 5.20 42.30 L 3.30 44.70 L 1.90 47.30 L 1.00 50.20 L 0.70 53.20 L 0.70 820.10 L 1.00 823.10 L 1.90 826.00 L 3.30 828.60 L 5.20 831.00 L 7.60 832.90 L 10.20 834.30 L 13.10 835.20 L 16.10 835.50 L 561.70 835.50 L 564.70 835.20 L 567.60 834.30 L 570.20 832.90 L 572.60 831.00 L 574.50 828.60 L 575.90 826.00 L 576.80 823.10 L 577.10 820.10 L 577.10 53.20 L 576.80 50.20 L 575.90 47.30 L 574.50 44.70 L 572.60 42.30 L 570.20 40.40 L 567.60 39.00 L 564.70 38.10 L 561.70 37.80 L 16.10 37.80 Z" fill="#e6e6e6" fill-rule="nonzero" node-id="218" stroke="none" target-height="799" target-width="577.8" target-x="0" target-y="37.2"></path><path d="M 1172.80 836.20 L 627.20 836.20 L 624.10 835.90 L 621.10 835.00 L 618.30 833.50 L 615.80 831.50 L 613.80 829.00 L 612.30 826.20 L 611.40 823.20 L 611.10 820.10 L 611.10 53.20 L 611.50 50.10 L 612.40 47.10 L 613.90 44.30 L 615.90 41.90 L 618.30 39.90 L 621.10 38.40 L 624.10 37.50 L 627.20 37.20 L 1172.80 37.20 L 1175.90 37.50 L 1178.90 38.40 L 1181.70 39.90 L 1184.10 41.90 L 1186.10 44.30 L 1187.60 47.10 L 1188.60 50.10 L 1188.90 53.20 L 1188.90 820.10 L 1188.60 823.20 L 1187.70 826.20 L 1186.20 829.00 L 1184.20 831.50 L 1181.70 833.50 L 1179.00 835.00 L 1176.00 835.90 L 1172.80 836.20 Z M 627.20 37.80 L 624.20 38.10 L 621.30 39.00 L 618.70 40.40 L 616.30 42.30 L 614.40 44.70 L 613.00 47.30 L 612.10 50.20 L 611.80 53.20 L 611.80 820.10 L 612.10 823.10 L 613.00 826.00 L 614.40 828.60 L 616.30 831.00 L 618.70 832.90 L 621.30 834.30 L 624.20 835.20 L 627.20 835.50 L 1172.80 835.50 L 1175.80 835.20 L 1178.70 834.30 L 1181.30 832.90 L 1183.70 831.00 L 1185.60 828.60 L 1187.10 826.00 L 1187.90 823.10 L 1188.30 820.10 L 1188.30 53.20 L 1187.90 50.20 L 1187.10 47.30 L 1185.60 44.70 L 1183.70 42.30 L 1181.30 40.40 L 1178.70 39.00 L 1175.80 38.10 L 1172.80 37.80 L 627.20 37.80 Z" fill="#e6e6e6" fill-rule="nonzero" node-id="220" stroke="none" target-height="799" target-width="577.80005" target-x="611.1" target-y="37.2"></path><path d="M 156.50 979.40 L 40.10 979.40 L 40.10 980.10 L 156.50 980.10 L 156.50 979.40 Z" fill="#e0e0e0" fill-rule="nonzero" node-id="222" stroke="none" target-height="0.6999512" target-width="116.4" target-x="40.1" target-y="979.4"></path><path d="M 393.90 973.80 L 277.10 973.80 L 277.10 974.50 L 393.90 974.50 L 393.90 973.80 Z" fill="#e0e0e0" fill-rule="nonzero" node-id="224" stroke="none" target-height="0.7000122" target-width="116.79999" target-x="277.1" target-y="973.8"></path><path d="M 545.80 973.80 L 517.50 973.80 L 517.50 974.50 L 545.80 974.50 L 545.80 973.80 Z" fill="#e0e0e0" fill-rule="nonzero" node-id="226" stroke="none" target-height="0.7000122" target-width="28.299988" target-x="517.5" target-y="973.8"></path><path d="M 263.40 997.90 L 132.70 997.90 L 132.70 998.60 L 263.40 998.60 L 263.40 997.90 Z" fill="#e0e0e0" fill-rule="nonzero" node-id="228" stroke="none" target-height="0.6999512" target-width="130.7" target-x="132.7" target-y="997.9"></path><path d="M 715.40 979.00 L 654.30 979.00 L 654.30 979.70 L 715.40 979.70 L 715.40 979.00 Z" fill="#e0e0e0" fill-rule="nonzero" node-id="230" stroke="none" target-height="0.7000122" target-width="61.100037" target-x="654.3" target-y="979"></path><path d="M 819.40 979.00 L 740.50 979.00 L 740.50 979.70 L 819.40 979.70 L 819.40 979.00 Z" fill="#e0e0e0" fill-rule="nonzero" node-id="232" stroke="none" target-height="0.7000122" target-width="78.900024" target-x="740.5" target-y="979"></path><path d="M 1200.00 991.00 L 1023.60 991.00 L 1023.60 991.70 L 1200.00 991.70 L 1200.00 991.00 Z" fill="#e0e0e0" fill-rule="nonzero" node-id="234" stroke="none" target-height="0.7000122" target-width="176.40002" target-x="1023.6" target-y="991"></path><path d="M 1053.40 194.00 L 918.90 194.00 L 918.90 288.00 L 1053.40 288.00 L 1053.40 194.00 Z" fill="#e6e6e6" fill-rule="nonzero" node-id="236" stroke="none" target-height="94" target-width="134.5" target-x="918.9" target-y="194"></path><path d="M 979.50 194.00 L 918.90 194.00 L 918.90 288.00 L 979.50 288.00 L 979.50 194.00 Z" fill="#f0f0f0" fill-rule="nonzero" node-id="238" stroke="none" target-height="94" target-width="60.599976" target-x="918.9" target-y="194"></path><g node-id="724"><path d="M 949.20 206.80 L 952.10 207.00 L 955.00 207.60 L 957.70 208.70 L 960.30 210.10 L 962.60 212.00 L 964.70 214.10 L 966.30 216.50 L 967.70 219.10 L 968.60 221.90 L 969.10 224.80 L 969.20 227.80 L 968.80 230.70 L 968.00 233.60 L 966.80 236.20 L 965.30 238.70 L 963.30 241.00 L 961.10 242.90 L 958.60 244.50 L 955.90 245.60 L 953.10 246.40 L 950.10 246.80 L 947.20 246.70 L 944.30 246.20 L 941.50 245.30 L 938.90 244.00 L 936.50 242.30 L 934.30 240.30 L 932.50 237.90 L 931.10 235.30 L 930.00 232.60 L 929.40 229.70 L 929.10 226.80 L 929.30 224.10 L 930.70 219.10 L 933.30 214.60 L 935.00 212.60 L 937.00 210.90 L 941.50 208.30 L 946.50 206.90 L 949.20 206.80 Z" fill="#e0e0e0" fill-opacity="0.4" fill-rule="nonzero" group-id="1" node-id="242" stroke="none" target-height="40" target-width="40.100037" target-x="929.1" target-y="206.8"></path></g><path d="M 958.90 265.90 L 958.20 269.60 L 956.00 272.80 L 952.90 274.90 L 949.20 275.60 L 945.40 274.90 L 942.20 272.80 L 940.10 269.60 L 939.40 265.80 L 940.10 262.10 L 942.20 259.00 L 945.40 256.80 L 949.10 256.10 L 952.90 256.80 L 956.10 258.90 L 958.20 262.10 L 958.90 265.90 Z" fill="#e0e0e0" fill-rule="nonzero" node-id="245" stroke="none" target-height="19.5" target-width="19.5" target-x="939.4" target-y="256.1"></path><path d="M 949.00 233.90 L 950.60 233.60 L 953.10 232.20 L 954.50 229.70 L 954.70 228.10 L 954.50 226.60 L 953.10 224.10 L 950.60 222.70 L 949.00 222.40 L 947.50 222.70 L 945.00 224.10 L 943.50 226.60 L 943.30 228.10 L 943.50 229.70 L 945.00 232.20 L 947.50 233.60 L 949.00 233.90 Z" fill="#fafafa" fill-rule="nonzero" node-id="247" stroke="none" target-height="11.5" target-width="11.400024" target-x="943.3" target-y="222.4"></path><path d="M 766.20 160.30 L 708.10 160.30 L 708.10 288.00 L 766.20 288.00 L 766.20 160.30 Z" fill="#f0f0f0" fill-rule="nonzero" node-id="249" stroke="none" target-height="127.7" target-width="58.100037" target-x="708.1" target-y="160.3"></path><path d="M 841.80 160.30 L 764.60 160.30 L 764.60 288.00 L 841.80 288.00 L 841.80 160.30 Z" fill="#e6e6e6" fill-rule="nonzero" node-id="251" stroke="none" target-height="127.7" target-width="77.20001" target-x="764.6" target-y="160.3"></path><path d="M 736.90 200.90 L 740.00 201.50 L 742.70 203.20 L 744.40 205.90 L 745.00 208.90 L 744.40 212.10 L 742.70 214.70 L 741.40 215.70 L 738.50 216.90 L 735.40 216.90 L 732.40 215.70 L 730.20 213.40 L 729.00 210.50 L 729.00 207.40 L 730.20 204.50 L 732.50 202.20 L 735.30 201.00 L 736.90 200.90 Z" fill="#ffffff" fill-rule="nonzero" node-id="253" stroke="none" target-height="16" target-width="16" target-x="729" target-y="200.9"></path><path d="M 736.90 188.30 L 738.10 188.50 L 740.10 189.80 L 740.90 192.00 L 740.50 194.30 L 739.80 195.20 L 737.70 196.30 L 736.50 196.40 L 734.40 195.50 L 733.10 193.50 L 732.90 192.40 L 733.20 190.80 L 734.10 189.50 L 735.40 188.60 L 736.90 188.30 Z" fill="#ffffff" fill-rule="nonzero" node-id="255" stroke="none" target-height="8.099991" target-width="8" target-x="732.9" target-y="188.3"></path><path d="M 736.90 176.10 L 738.10 176.30 L 740.10 177.60 L 740.90 179.70 L 740.50 182.10 L 739.80 183.00 L 737.70 184.10 L 736.50 184.20 L 734.40 183.30 L 733.10 181.30 L 732.90 180.10 L 733.20 178.60 L 734.10 177.30 L 735.40 176.40 L 736.90 176.10 Z" fill="#ffffff" fill-rule="nonzero" node-id="257" stroke="none" target-height="8.099991" target-width="8" target-x="732.9" target-y="176.1"></path><path d="M 840.40 232.00 L 709.40 232.00 L 709.40 234.00 L 840.40 234.00 L 840.40 232.00 Z" fill="#e0e0e0" fill-rule="nonzero" node-id="259" stroke="none" target-height="2" target-width="131" target-x="709.4" target-y="232"></path><path d="M 840.40 243.30 L 709.40 243.30 L 709.40 245.30 L 840.40 245.30 L 840.40 243.30 Z" fill="#e0e0e0" fill-rule="nonzero" node-id="261" stroke="none" target-height="2" target-width="131" target-x="709.4" target-y="243.3"></path><path d="M 840.40 254.60 L 709.40 254.60 L 709.40 256.60 L 840.40 256.60 L 840.40 254.60 Z" fill="#e0e0e0" fill-rule="nonzero" node-id="263" stroke="none" target-height="2" target-width="131" target-x="709.4" target-y="254.6"></path><path d="M 840.40 266.00 L 709.40 266.00 L 709.40 268.00 L 840.40 268.00 L 840.40 266.00 Z" fill="#e0e0e0" fill-rule="nonzero" node-id="265" stroke="none" target-height="2" target-width="131" target-x="709.4" target-y="266"></path><path d="M 840.40 277.30 L 709.40 277.30 L 709.40 279.30 L 840.40 279.30 L 840.40 277.30 Z" fill="#e0e0e0" fill-rule="nonzero" node-id="267" stroke="none" target-height="2" target-width="131" target-x="709.4" target-y="277.3"></path><path d="M 738.30 235.40 L 732.80 235.40 L 732.80 240.90 L 738.30 240.90 L 738.30 235.40 Z" fill="#e0e0e0" fill-rule="nonzero" node-id="269" stroke="none" target-height="5.5" target-width="5.5" target-x="732.8" target-y="235.4"></path><path d="M 738.30 247.30 L 732.80 247.30 L 732.80 252.90 L 738.30 252.90 L 738.30 247.30 Z" fill="#e0e0e0" fill-rule="nonzero" node-id="271" stroke="none" target-height="5.599991" target-width="5.5" target-x="732.8" target-y="247.3"></path><path d="M 738.30 258.10 L 732.80 258.10 L 732.80 263.60 L 738.30 263.60 L 738.30 258.10 Z" fill="#e0e0e0" fill-rule="nonzero" node-id="273" stroke="none" target-height="5.5" target-width="5.5" target-x="732.8" target-y="258.1"></path><path d="M 738.30 269.70 L 732.80 269.70 L 732.80 275.20 L 738.30 275.20 L 738.30 269.70 Z" fill="#e0e0e0" fill-rule="nonzero" node-id="275" stroke="none" target-height="5.5" target-width="5.5" target-x="732.8" target-y="269.7"></path><path d="M 738.30 280.90 L 732.80 280.90 L 732.80 286.40 L 738.30 286.40 L 738.30 280.90 Z" fill="#e0e0e0" fill-rule="nonzero" node-id="277" stroke="none" target-height="5.5" target-width="5.5" target-x="732.8" target-y="280.9"></path><path d="M 596.90 413.70 L 594.10 413.70 L 594.10 305.60 L 594.80 299.80 L 597.00 294.60 L 598.60 292.20 L 600.50 290.00 L 605.10 286.50 L 610.40 284.30 L 613.20 283.70 L 709.40 283.50 L 709.40 286.40 L 613.60 286.50 L 611.10 287.00 L 606.50 288.90 L 602.50 292.00 L 600.90 293.90 L 599.50 296.00 L 597.60 300.60 L 596.90 305.60 L 596.90 413.70 Z" fill="#e0e0e0" fill-rule="nonzero" node-id="279" stroke="none" target-height="130.20001" target-width="115.30005" target-x="594.1" target-y="283.5"></path><path d="M 591.30 413.90 L 588.40 413.90 L 588.40 304.80 L 588.70 301.20 L 589.40 297.80 L 590.50 294.50 L 592.00 291.40 L 593.90 288.50 L 596.30 285.90 L 598.90 283.50 L 601.80 281.60 L 604.90 280.10 L 608.20 279.00 L 611.60 278.30 L 615.20 278.00 L 709.40 278.00 L 709.40 280.90 L 615.20 280.90 L 612.00 281.10 L 609.00 281.70 L 606.00 282.70 L 603.20 284.10 L 600.60 285.80 L 598.30 287.90 L 596.20 290.30 L 594.50 292.80 L 593.10 295.60 L 592.10 298.60 L 591.50 301.60 L 591.30 304.80 L 591.30 413.90 Z" fill="#e0e0e0" fill-rule="nonzero" node-id="281" stroke="none" target-height="135.9" target-width="121" target-x="588.4" target-y="278"></path><path d="M 281.90 142.50 L 193.40 142.50 L 193.40 236.70 L 281.90 236.70 L 281.90 142.50 Z" fill="#e6e6e6" fill-rule="nonzero" node-id="283" stroke="none" target-height="94.2" target-width="88.5" target-x="193.4" target-y="142.5"></path><path d="M 304.50 142.50 L 281.90 142.50 L 281.90 236.70 L 304.50 236.70 L 304.50 142.50 Z" fill="#f5f5f5" fill-rule="nonzero" node-id="285" stroke="none" target-height="94.2" target-width="22.600006" target-x="281.9" target-y="142.5"></path><path d="M 236.70 128.00 L 170.20 128.00 L 170.20 236.70 L 236.70 236.70 L 236.70 128.00 Z" fill="#e6e6e6" fill-rule="nonzero" node-id="287" stroke="none" target-height="108.7" target-width="66.5" target-x="170.2" target-y="128"></path><path d="M 255.90 128.00 L 236.60 128.00 L 236.60 236.70 L 255.90 236.70 L 255.90 128.00 Z" fill="#f5f5f5" fill-rule="nonzero" node-id="289" stroke="none" target-height="108.7" target-width="19.299988" target-x="236.6" target-y="128"></path><path d="M 217.10 142.50 L 161.10 142.50 L 161.10 236.70 L 217.10 236.70 L 217.10 142.50 Z" fill="#ebebeb" fill-rule="nonzero" node-id="291" stroke="none" target-height="94.2" target-width="56" target-x="161.1" target-y="142.5"></path><path d="M 229.90 142.50 L 217.10 142.50 L 217.10 236.70 L 229.90 236.70 L 229.90 142.50 Z" fill="#f5f5f5" fill-rule="nonzero" node-id="293" stroke="none" target-height="94.2" target-width="12.799988" target-x="217.1" target-y="142.5"></path><path d="M 171.20 158.40 L 97.80 158.40 L 97.80 236.70 L 171.20 236.70 L 171.20 158.40 Z" fill="#e6e6e6" fill-rule="nonzero" node-id="295" stroke="none" target-height="78.3" target-width="73.399994" target-x="97.8" target-y="158.4"></path><path d="M 190.10 158.40 L 171.20 158.40 L 171.20 236.70 L 190.10 236.70 L 190.10 158.40 Z" fill="#f5f5f5" fill-rule="nonzero" node-id="297" stroke="none" target-height="78.3" target-width="18.90001" target-x="171.2" target-y="158.4"></path><path d="M 133.70 146.40 L 78.50 146.40 L 78.50 236.70 L 133.70 236.70 L 133.70 146.40 Z" fill="#e6e6e6" fill-rule="nonzero" node-id="299" stroke="none" target-height="90.3" target-width="55.199997" target-x="78.5" target-y="146.4"></path><path d="M 149.60 146.40 L 133.70 146.40 L 133.70 236.70 L 149.60 236.70 L 149.60 146.40 Z" fill="#f5f5f5" fill-rule="nonzero" node-id="301" stroke="none" target-height="90.3" target-width="15.900009" target-x="133.7" target-y="146.4"></path><path d="M 117.40 158.40 L 63.80 158.40 L 63.80 236.70 L 117.40 236.70 L 117.40 158.40 Z" fill="#e6e6e6" fill-rule="nonzero" node-id="303" stroke="none" target-height="78.3" target-width="53.600002" target-x="63.8" target-y="158.4"></path><path d="M 128.10 158.40 L 117.40 158.40 L 117.40 236.70 L 128.10 236.70 L 128.10 158.40 Z" fill="#f0f0f0" fill-rule="nonzero" node-id="305" stroke="none" target-height="78.3" target-width="10.700005" target-x="117.4" target-y="158.4"></path><path d="M 1.10 263.90 L 577.50 263.90 L 577.50 236.60 L 1.10 236.60 L 1.10 263.90 Z" fill="#e6e6e6" fill-rule="nonzero" node-id="307" stroke="none" target-height="27.299988" target-width="576.4" target-x="1.1" target-y="236.6"></path><path d="M 104.60 264.50 L 136.40 264.50 L 113.20 299.60 L 104.60 299.60 L 104.60 264.50 Z" fill="#e0e0e0" fill-rule="nonzero" node-id="309" stroke="none" target-height="35.100006" target-width="31.799995" target-x="104.6" target-y="264.5"></path><path d="M 104.60 264.50 L 100.00 264.50 L 100.00 299.60 L 104.60 299.60 L 104.60 264.50 Z" fill="#e0e0e0" fill-rule="nonzero" node-id="311" stroke="none" target-height="35.100006" target-width="4.5999985" target-x="100" target-y="264.5"></path><path d="M 462.50 264.50 L 494.40 264.50 L 471.20 299.60 L 462.50 299.60 L 462.50 264.50 Z" fill="#e0e0e0" fill-rule="nonzero" node-id="313" stroke="none" target-height="35.100006" target-width="31.899994" target-x="462.5" target-y="264.5"></path><path d="M 462.60 264.50 L 458.00 264.50 L 458.00 299.60 L 462.60 299.60 L 462.60 264.50 Z" fill="#e0e0e0" fill-rule="nonzero" node-id="315" stroke="none" target-height="35.100006" target-width="4.600006" target-x="458" target-y="264.5"></path><path d="M 1188.40 288.00 L 612.10 288.00 L 612.10 315.30 L 1188.40 315.30 L 1188.40 288.00 Z" fill="#e6e6e6" fill-rule="nonzero" node-id="317" stroke="none" target-height="27.299988" target-width="576.30005" target-x="612.1" target-y="288"></path><path d="M 1085.00 351.00 L 1076.30 351.00 L 1053.10 315.90 L 1085.00 315.90 L 1085.00 351.00 Z" fill="#e0e0e0" fill-rule="nonzero" node-id="319" stroke="none" target-height="35.100006" target-width="31.900024" target-x="1053.1" target-y="315.9"></path><path d="M 1089.60 315.90 L 1085.00 315.90 L 1085.00 351.00 L 1089.60 351.00 L 1089.60 315.90 Z" fill="#e0e0e0" fill-rule="nonzero" node-id="321" stroke="none" target-height="35.100006" target-width="4.5999756" target-x="1085" target-y="315.9"></path><path d="M 727.00 351.00 L 718.30 351.00 L 695.10 315.90 L 727.00 315.90 L 727.00 351.00 Z" fill="#e0e0e0" fill-rule="nonzero" node-id="323" stroke="none" target-height="35.100006" target-width="31.900024" target-x="695.1" target-y="315.9"></path><path d="M 731.60 315.90 L 727.00 315.90 L 727.00 351.00 L 731.60 351.00 L 731.60 315.90 Z" fill="#e0e0e0" fill-rule="nonzero" node-id="325" stroke="none" target-height="35.100006" target-width="4.5999756" target-x="727" target-y="315.9"></path><path d="M 446.00 181.80 L 445.80 177.70 L 445.20 173.70 L 444.20 169.80 L 454.70 160.60 L 448.10 149.20 L 434.90 153.60 L 431.90 150.80 L 425.40 146.10 L 418.10 142.80 L 414.20 141.70 L 411.30 128.00 L 398.10 128.00 L 395.30 141.70 L 391.40 142.80 L 384.10 146.10 L 377.60 150.80 L 374.60 153.60 L 361.40 149.20 L 354.80 160.60 L 365.30 169.80 L 364.30 173.80 L 363.50 181.80 L 364.30 189.80 L 365.30 193.70 L 354.80 202.90 L 361.40 214.40 L 374.60 209.90 L 377.60 212.70 L 384.10 217.40 L 391.40 220.70 L 395.30 221.80 L 398.10 235.50 L 411.30 235.50 L 414.20 221.80 L 418.10 220.70 L 425.40 217.40 L 431.90 212.70 L 434.90 209.90 L 448.10 214.40 L 454.70 202.90 L 444.20 193.70 L 445.20 189.80 L 446.00 181.80 Z M 404.80 204.00 L 401.70 203.70 L 398.60 203.00 L 395.70 201.90 L 393.00 200.40 L 390.50 198.40 L 388.30 196.10 L 386.50 193.60 L 385.10 190.80 L 384.10 187.80 L 383.60 184.70 L 383.50 181.50 L 383.90 178.40 L 384.70 175.40 L 386.00 172.50 L 387.70 169.80 L 389.70 167.50 L 392.10 165.40 L 394.80 163.70 L 397.60 162.40 L 400.70 161.60 L 403.80 161.20 L 406.90 161.30 L 410.00 161.80 L 413.00 162.80 L 415.80 164.20 L 418.40 166.00 L 420.70 168.20 L 422.60 170.70 L 424.20 173.40 L 425.30 176.40 L 426.00 179.40 L 426.20 182.60 L 426.00 185.40 L 424.60 190.80 L 421.80 195.60 L 420.00 197.70 L 417.80 199.60 L 413.00 202.30 L 407.70 203.80 L 404.80 204.00 Z" fill="#f0f0f0" fill-rule="nonzero" node-id="327" stroke="none" target-height="107.5" target-width="99.900024" target-x="354.8" target-y="128"></path><path d="M 517.30 188.70 L 515.00 185.40 L 512.30 182.60 L 515.10 173.80 L 507.50 169.60 L 501.60 176.70 L 497.60 175.90 L 493.70 175.70 L 489.70 176.10 L 485.80 177.10 L 479.60 170.40 L 472.20 174.90 L 475.30 183.50 L 472.70 186.50 L 470.60 189.90 L 468.90 193.50 L 467.80 197.40 L 458.90 199.40 L 459.10 208.10 L 468.20 209.60 L 469.40 213.40 L 471.30 217.00 L 473.60 220.20 L 476.40 223.10 L 473.50 231.80 L 481.20 236.00 L 487.10 228.90 L 491.00 229.70 L 495.00 229.90 L 498.90 229.50 L 502.80 228.50 L 509.00 235.30 L 516.40 230.70 L 513.30 222.10 L 515.90 219.10 L 518.10 215.70 L 519.70 212.10 L 520.80 208.30 L 529.70 206.30 L 529.50 197.50 L 520.50 196.00 L 519.20 192.20 L 517.30 188.70 Z M 501.90 215.30 L 499.40 216.50 L 496.70 217.20 L 494.00 217.40 L 491.20 217.00 L 488.60 216.10 L 486.20 214.70 L 484.10 212.80 L 482.50 210.70 L 481.20 208.20 L 480.50 205.40 L 480.40 202.70 L 480.80 200.00 L 481.70 197.30 L 483.10 195.00 L 484.90 192.90 L 487.10 191.20 L 489.60 190.00 L 492.30 189.30 L 495.10 189.10 L 497.80 189.50 L 500.40 190.40 L 502.80 191.90 L 504.90 193.70 L 506.60 195.90 L 507.80 198.40 L 508.40 201.10 L 508.60 203.80 L 508.20 206.60 L 507.30 209.20 L 505.90 211.60 L 504.10 213.60 L 501.90 215.30 Z" fill="#f0f0f0" fill-rule="nonzero" node-id="329" stroke="none" target-height="66.399994" target-width="70.80002" target-x="458.9" target-y="169.6"></path><path d="M 1171.30 642.90 L 19.70 642.90 L 19.70 657.40 L 1171.30 657.40 L 1171.30 642.90 Z" fill="#429cfd" fill-rule="nonzero" node-id="331" stroke="none" target-height="14.5" target-width="1151.6001" target-x="19.7" target-y="642.9"></path><path d="M 88.30 653.30 L 88.30 999.00 L 97.30 999.00 L 108.60 653.30 L 88.30 653.30 Z" fill="#429cfd" fill-rule="nonzero" node-id="333" stroke="none" target-height="345.7" target-width="20.299995" target-x="88.3" target-y="653.3"></path><path d="M 194.30 664.60 L 194.30 984.90 L 203.30 984.90 L 214.60 664.60 L 194.30 664.60 Z" fill="#429cfd" fill-rule="nonzero" node-id="335" stroke="none" target-height="320.30005" target-width="20.300003" target-x="194.3" target-y="664.6"></path><g node-id="725"><path d="M 194.30 664.60 L 194.30 984.90 L 203.30 984.90 L 214.60 664.60 L 194.30 664.60 Z" fill="#000000" fill-opacity="0.5" fill-rule="nonzero" group-id="2" node-id="339" stroke="none" target-height="320.30005" target-width="20.300003" target-x="194.3" target-y="664.6"></path></g><path d="M 1106.80 653.30 L 1106.80 999.00 L 1097.90 999.00 L 1086.50 653.30 L 1106.80 653.30 Z" fill="#429cfd" fill-rule="nonzero" node-id="342" stroke="none" target-height="345.7" target-width="20.300049" target-x="1086.5" target-y="653.3"></path><path d="M 1000.80 664.60 L 1000.80 984.90 L 991.80 984.90 L 980.50 664.60 L 1000.80 664.60 Z" fill="#429cfd" fill-rule="nonzero" node-id="344" stroke="none" target-height="320.30005" target-width="20.299988" target-x="980.5" target-y="664.6"></path><g node-id="726"><path d="M 1000.80 664.60 L 1000.80 984.90 L 991.80 984.90 L 980.50 664.60 L 1000.80 664.60 Z" fill="#000000" fill-opacity="0.5" fill-rule="nonzero" group-id="3" node-id="348" stroke="none" target-height="320.30005" target-width="20.299988" target-x="980.5" target-y="664.6"></path></g><path d="M 1127.30 672.90 L 67.10 672.90 L 43.60 657.40 L 1150.80 657.40 L 1127.30 672.90 Z" fill="#429cfd" fill-rule="nonzero" node-id="351" stroke="none" target-height="15.5" target-width="1107.2001" target-x="43.6" target-y="657.4"></path><g node-id="727"><path d="M 1127.30 672.90 L 67.10 672.90 L 43.60 657.40 L 1150.80 657.40 L 1127.30 672.90 Z" fill="#000000" fill-opacity="0.5" fill-rule="nonzero" group-id="4" node-id="355" stroke="none" target-height="15.5" target-width="1107.2001" target-x="43.6" target-y="657.4"></path></g><path d="M 95.40 598.50 L 95.40 609.80 L 95.50 611.20 L 96.50 613.70 L 106.40 623.80 L 109.20 625.50 L 110.80 628.30 L 112.70 630.90 L 115.10 633.20 L 117.70 635.20 L 120.60 636.70 L 123.60 637.90 L 126.80 638.50 L 130.00 638.80 L 136.40 638.60 L 142.30 637.10 L 145.00 635.70 L 149.80 632.10 L 151.80 629.80 L 154.80 624.50 L 156.30 618.70 L 156.50 589.30 L 107.10 589.30 L 107.10 591.50 L 101.00 591.60 L 98.50 592.60 L 96.50 594.60 L 95.50 597.10 L 95.40 598.50 Z M 101.00 598.50 L 101.10 598.00 L 101.90 597.20 L 107.10 597.10 L 107.10 616.40 L 101.20 610.30 L 101.00 598.50 Z" fill="#429cfd" fill-rule="nonzero" node-id="358" stroke="none" target-height="49.5" target-width="61.1" target-x="95.4" target-y="589.3"></path><g node-id="728"><path d="M 95.40 598.50 L 95.40 609.80 L 95.50 611.20 L 96.50 613.70 L 106.40 623.80 L 109.20 625.50 L 110.80 628.30 L 112.70 630.90 L 115.10 633.20 L 117.70 635.20 L 120.60 636.70 L 123.60 637.90 L 126.80 638.50 L 130.00 638.80 L 136.40 638.60 L 142.30 637.10 L 145.00 635.70 L 149.80 632.10 L 151.80 629.80 L 154.80 624.50 L 156.30 618.70 L 156.50 589.30 L 107.10 589.30 L 107.10 591.50 L 101.00 591.60 L 98.50 592.60 L 96.50 594.60 L 95.50 597.10 L 95.40 598.50 Z M 101.00 598.50 L 101.10 598.00 L 101.90 597.20 L 107.10 597.10 L 107.10 616.40 L 101.20 610.30 L 101.00 598.50 Z" fill="#ffffff" fill-opacity="0.5" fill-rule="nonzero" group-id="5" node-id="362" stroke="none" target-height="49.5" target-width="61.1" target-x="95.4" target-y="589.3"></path></g><path d="M 168.20 642.60 L 97.20 642.60 L 94.80 642.20 L 92.60 641.30 L 90.50 640.00 L 88.70 638.40 L 176.60 638.40 L 174.80 640.00 L 172.80 641.30 L 170.60 642.10 L 168.20 642.60 Z" fill="#429cfd" fill-rule="nonzero" node-id="365" stroke="none" target-height="4.199951" target-width="87.90001" target-x="88.7" target-y="638.4"></path><g node-id="729"><path d="M 168.20 642.60 L 97.20 642.60 L 94.80 642.20 L 92.60 641.30 L 90.50 640.00 L 88.70 638.40 L 176.60 638.40 L 174.80 640.00 L 172.80 641.30 L 170.60 642.10 L 168.20 642.60 Z" fill="#ffffff" fill-opacity="0.5" fill-rule="nonzero" group-id="6" node-id="369" stroke="none" target-height="4.199951" target-width="87.90001" target-x="88.7" target-y="638.4"></path></g><path d="M 1123.80 608.00 L 1122.90 602.90 L 1120.90 599.30 L 1119.00 597.50 L 1116.70 596.00 L 1113.80 594.80 L 1109.20 593.60 L 1103.80 592.80 L 1103.80 588.70 L 1103.20 587.40 L 1102.60 587.10 L 1063.50 586.90 L 1062.20 587.40 L 1061.60 588.70 L 1061.60 642.10 L 1103.80 642.10 L 1103.80 636.30 L 1106.50 635.70 L 1109.10 634.60 L 1111.60 632.90 L 1115.90 628.60 L 1117.80 625.90 L 1120.30 621.60 L 1122.10 617.00 L 1123.00 613.80 L 1123.80 608.00 Z M 1103.80 629.40 L 1103.80 599.70 L 1107.80 600.40 L 1112.90 601.90 L 1115.50 604.10 L 1116.20 605.60 L 1116.50 607.50 L 1115.90 612.80 L 1113.70 618.90 L 1112.20 621.90 L 1110.30 624.70 L 1108.40 626.90 L 1106.90 628.10 L 1103.80 629.40 Z" fill="#429cfd" fill-rule="nonzero" node-id="372" stroke="none" target-height="55.19995" target-width="62.200073" target-x="1061.6" target-y="586.9"></path><g node-id="730"><path d="M 1123.80 608.00 L 1122.90 602.90 L 1120.90 599.30 L 1119.00 597.50 L 1116.70 596.00 L 1113.80 594.80 L 1109.20 593.60 L 1103.80 592.80 L 1103.80 588.70 L 1103.60 588.00 L 1102.60 587.10 L 1063.50 586.90 L 1062.20 587.40 L 1061.60 588.70 L 1061.60 642.10 L 1103.80 642.10 L 1103.80 636.30 L 1106.50 635.70 L 1109.10 634.60 L 1111.60 632.90 L 1115.90 628.60 L 1117.80 625.90 L 1120.30 621.60 L 1122.10 617.00 L 1123.00 613.80 L 1123.80 608.00 Z M 1103.80 629.40 L 1103.80 599.70 L 1107.80 600.40 L 1112.90 601.90 L 1115.50 604.10 L 1116.20 605.60 L 1116.50 607.50 L 1116.40 610.20 L 1115.90 612.80 L 1113.70 618.90 L 1112.20 621.90 L 1110.30 624.70 L 1108.40 626.90 L 1106.90 628.10 L 1103.80 629.40 Z" fill="#ffffff" fill-opacity="0.5" fill-rule="nonzero" group-id="7" node-id="376" stroke="none" target-height="55.19995" target-width="62.200073" target-x="1061.6" target-y="586.9"></path></g><path d="M 611.10 574.00 L 577.80 574.00 L 577.80 641.70 L 611.10 641.70 L 611.10 574.00 Z" fill="#429cfd" fill-rule="nonzero" node-id="379" stroke="none" target-height="67.70001" target-width="33.299988" target-x="577.8" target-y="574"></path><g node-id="731"><path d="M 611.10 574.00 L 577.80 574.00 L 577.80 641.70 L 611.10 641.70 L 611.10 574.00 Z" fill="#ffffff" fill-opacity="0.5" fill-rule="nonzero" group-id="8" node-id="383" stroke="none" target-height="67.70001" target-width="33.299988" target-x="577.8" target-y="574"></path></g><path d="M 626.10 642.90 L 563.00 642.90 L 578.40 629.40 L 610.80 629.40 L 626.10 642.90 Z" fill="#429cfd" fill-rule="nonzero" node-id="386" stroke="none" target-height="13.5" target-width="63.099976" target-x="563" target-y="629.4"></path><g node-id="732"><path d="M 626.10 642.90 L 563.00 642.90 L 578.40 629.40 L 610.80 629.40 L 626.10 642.90 Z" fill="#ffffff" fill-opacity="0.5" fill-rule="nonzero" group-id="9" node-id="390" stroke="none" target-height="13.5" target-width="63.099976" target-x="563" target-y="629.4"></path></g><path d="M 764.90 621.00 L 607.10 621.00 L 635.60 643.00 L 793.40 643.00 L 764.90 621.00 Z" fill="#429cfd" fill-rule="nonzero" node-id="393" stroke="none" target-height="22" target-width="186.30005" target-x="607.1" target-y="621"></path><g node-id="733"><path d="M 764.90 621.00 L 607.10 621.00 L 635.60 643.00 L 793.40 643.00 L 764.90 621.00 Z" fill="#ffffff" fill-opacity="0.4" fill-rule="nonzero" group-id="10" node-id="397" stroke="none" target-height="22" target-width="186.30005" target-x="607.1" target-y="621"></path></g><path d="M 610.80 643.00 L 607.10 621.00 L 635.60 643.00 L 610.80 643.00 Z" fill="#429cfd" fill-rule="nonzero" node-id="400" stroke="none" target-height="22" target-width="28.5" target-x="607.1" target-y="621"></path><g node-id="734"><path d="M 610.80 643.00 L 607.10 621.00 L 635.60 643.00 L 610.80 643.00 Z" fill="#000000" fill-opacity="0.5" fill-rule="nonzero" group-id="11" node-id="404" stroke="none" target-height="22" target-width="28.5" target-x="607.1" target-y="621"></path></g><path d="M 737.20 413.90 L 450.10 413.90 L 447.30 414.60 L 445.40 416.60 L 444.60 419.30 L 444.60 595.40 L 445.40 598.10 L 447.30 600.10 L 448.60 600.60 L 450.10 600.80 L 737.20 600.80 L 740.00 600.10 L 741.90 598.10 L 742.70 595.40 L 742.70 419.30 L 742.50 417.80 L 741.10 415.50 L 738.70 414.10 L 737.20 413.90 Z" fill="#429cfd" fill-rule="nonzero" node-id="407" stroke="none" target-height="186.9" target-width="298.1" target-x="444.6" target-y="413.9"></path><g node-id="735"><path d="M 731.50 425.60 L 455.40 425.60 L 455.40 588.50 L 731.50 588.50 L 731.50 425.60 Z" fill="#000000" fill-opacity="0.5" fill-rule="nonzero" group-id="12" node-id="411" stroke="none" target-height="162.9" target-width="276.1" target-x="455.4" target-y="425.6"></path></g><g node-id="736"><path d="M 722.70 459.10 L 583.40 459.10 L 583.40 555.00 L 722.70 555.00 L 722.70 459.10 Z" fill="#000000" fill-opacity="0.4" fill-rule="nonzero" group-id="13" node-id="416" stroke="none" target-height="95.899994" target-width="139.29999" target-x="583.4" target-y="459.1"></path></g><path d="M 722.70 459.10 L 583.40 459.10 L 583.40 467.80 L 722.70 467.80 L 722.70 459.10 Z" fill="#429cfd" fill-rule="nonzero" node-id="419" stroke="none" target-height="8.699982" target-width="139.29999" target-x="583.4" target-y="459.1"></path><path d="M 609.00 512.10 L 633.00 525.50 L 634.00 526.40 L 634.60 528.40 L 634.30 529.80 L 633.50 530.90 L 632.40 531.70 L 631.10 532.00 L 629.60 531.70 L 598.90 514.60 L 597.70 513.60 L 597.30 512.10 L 597.70 510.60 L 598.90 509.60 L 628.20 493.20 L 631.10 492.30 L 632.40 492.50 L 633.60 493.30 L 634.40 494.50 L 634.60 495.80 L 634.10 497.80 L 633.00 498.70 L 609.00 512.10 Z" fill="#ffffff" fill-rule="nonzero" node-id="421" stroke="none" target-height="39.700012" target-width="37.299988" target-x="597.3" target-y="492.3"></path><path d="M 667.60 488.60 L 644.30 538.40 L 643.40 539.50 L 642.40 540.10 L 641.30 540.20 L 639.90 540.00 L 638.80 539.20 L 638.00 538.20 L 637.70 536.90 L 638.00 535.40 L 661.80 484.30 L 662.70 483.20 L 664.80 482.40 L 666.20 482.70 L 667.30 483.40 L 668.00 484.50 L 668.30 485.80 L 667.60 488.60 Z" fill="#ffffff" fill-rule="nonzero" node-id="423" stroke="none" target-height="57.80002" target-width="30.599976" target-x="637.7" target-y="482.4"></path><path d="M 695.90 512.10 L 671.90 498.70 L 670.80 497.80 L 670.30 495.80 L 670.60 494.50 L 671.40 493.30 L 672.50 492.50 L 673.90 492.30 L 676.70 493.20 L 706.10 509.60 L 707.20 510.60 L 707.60 512.10 L 707.20 513.60 L 706.10 514.60 L 676.70 531.00 L 673.90 532.00 L 672.50 531.70 L 671.30 530.90 L 670.50 529.70 L 670.30 528.40 L 670.80 526.40 L 671.90 525.50 L 695.90 512.10 Z" fill="#ffffff" fill-rule="nonzero" node-id="425" stroke="none" target-height="39.700012" target-width="37.299988" target-x="670.3" target-y="492.3"></path><path d="M 476.20 440.60 L 466.80 440.60 L 466.80 450.00 L 476.20 450.00 L 476.20 440.60 Z" fill="#ffffff" fill-rule="nonzero" node-id="427" stroke="none" target-height="9.399994" target-width="9.400024" target-x="466.8" target-y="440.6"></path><path d="M 476.20 465.00 L 466.80 465.00 L 466.80 474.50 L 476.20 474.50 L 476.20 465.00 Z" fill="#ffffff" fill-rule="nonzero" node-id="429" stroke="none" target-height="9.5" target-width="9.400024" target-x="466.8" target-y="465"></path><path d="M 476.20 489.40 L 466.80 489.40 L 466.80 498.90 L 476.20 498.90 L 476.20 489.40 Z" fill="#ffffff" fill-rule="nonzero" node-id="431" stroke="none" target-height="9.5" target-width="9.400024" target-x="466.8" target-y="489.4"></path><path d="M 476.20 513.80 L 466.80 513.80 L 466.80 523.30 L 476.20 523.30 L 476.20 513.80 Z" fill="#ffffff" fill-rule="nonzero" node-id="433" stroke="none" target-height="9.5" target-width="9.400024" target-x="466.8" target-y="513.8"></path><path d="M 476.20 538.30 L 466.80 538.30 L 466.80 547.70 L 476.20 547.70 L 476.20 538.30 Z" fill="#ffffff" fill-rule="nonzero" node-id="435" stroke="none" target-height="9.400024" target-width="9.400024" target-x="466.8" target-y="538.3"></path><path d="M 476.20 562.70 L 466.80 562.70 L 466.80 572.10 L 476.20 572.10 L 476.20 562.70 Z" fill="#ffffff" fill-rule="nonzero" node-id="437" stroke="none" target-height="9.399963" target-width="9.400024" target-x="466.8" target-y="562.7"></path><path d="M 522.80 442.70 L 485.20 442.70 L 485.20 445.60 L 522.80 445.60 L 522.80 442.70 Z" fill="#ffffff" fill-rule="nonzero" node-id="439" stroke="none" target-height="2.899994" target-width="37.599976" target-x="485.2" target-y="442.7"></path><path d="M 507.30 467.20 L 493.90 467.20 L 493.90 470.00 L 507.30 470.00 L 507.30 467.20 Z" fill="#ffffff" fill-rule="nonzero" node-id="441" stroke="none" target-height="2.7999878" target-width="13.399994" target-x="493.9" target-y="467.2"></path><path d="M 565.60 494.70 L 552.20 494.70 L 552.20 497.50 L 565.60 497.50 L 565.60 494.70 Z" fill="#ffffff" fill-rule="nonzero" node-id="443" stroke="none" target-height="2.7999878" target-width="13.399963" target-x="552.2" target-y="494.7"></path><path d="M 507.30 516.40 L 493.90 516.40 L 493.90 519.30 L 507.30 519.30 L 507.30 516.40 Z" fill="#ffffff" fill-rule="nonzero" node-id="445" stroke="none" target-height="2.8999634" target-width="13.399994" target-x="493.9" target-y="516.4"></path><path d="M 526.60 516.40 L 513.20 516.40 L 513.20 519.30 L 526.60 519.30 L 526.60 516.40 Z" fill="#ffffff" fill-rule="nonzero" node-id="447" stroke="none" target-height="2.8999634" target-width="13.399963" target-x="513.2" target-y="516.4"></path><path d="M 547.40 494.70 L 513.20 494.70 L 513.20 497.50 L 547.40 497.50 L 547.40 494.70 Z" fill="#ffffff" fill-rule="nonzero" node-id="449" stroke="none" target-height="2.7999878" target-width="34.200012" target-x="513.2" target-y="494.7"></path><path d="M 555.70 516.40 L 533.20 516.40 L 533.20 519.30 L 555.70 519.30 L 555.70 516.40 Z" fill="#ffffff" fill-rule="nonzero" node-id="451" stroke="none" target-height="2.8999634" target-width="22.5" target-x="533.2" target-y="516.4"></path><path d="M 546.50 568.80 L 533.10 568.80 L 533.10 571.60 L 546.50 571.60 L 546.50 568.80 Z" fill="#ffffff" fill-rule="nonzero" node-id="453" stroke="none" target-height="2.7999878" target-width="13.400024" target-x="533.1" target-y="568.8"></path><path d="M 565.80 568.80 L 552.40 568.80 L 552.40 571.60 L 565.80 571.60 L 565.80 568.80 Z" fill="#ffffff" fill-rule="nonzero" node-id="455" stroke="none" target-height="2.7999878" target-width="13.399963" target-x="552.4" target-y="568.8"></path><path d="M 579.80 568.80 L 572.30 568.80 L 572.30 571.60 L 579.80 571.60 L 579.80 568.80 Z" fill="#ffffff" fill-rule="nonzero" node-id="457" stroke="none" target-height="2.7999878" target-width="7.5" target-x="572.3" target-y="568.8"></path><path d="M 555.70 467.20 L 514.00 467.20 L 514.00 470.00 L 555.70 470.00 L 555.70 467.20 Z" fill="#ffffff" fill-rule="nonzero" node-id="459" stroke="none" target-height="2.7999878" target-width="41.700012" target-x="514" target-y="467.2"></path><path d="M 526.60 542.00 L 513.20 542.00 L 513.20 544.80 L 526.60 544.80 L 526.60 542.00 Z" fill="#ffffff" fill-rule="nonzero" node-id="461" stroke="none" target-height="2.7999878" target-width="13.399963" target-x="513.2" target-y="542"></path><path d="M 538.80 542.00 L 531.10 542.00 L 531.10 544.80 L 538.80 544.80 L 538.80 542.00 Z" fill="#ffffff" fill-rule="nonzero" node-id="463" stroke="none" target-height="2.7999878" target-width="7.700012" target-x="531.1" target-y="542"></path><path d="M 566.60 542.00 L 544.80 542.00 L 544.80 544.80 L 566.60 544.80 L 566.60 542.00 Z" fill="#ffffff" fill-rule="nonzero" node-id="465" stroke="none" target-height="2.7999878" target-width="21.799988" target-x="544.8" target-y="542"></path><path d="M 570.30 336.00 L 569.90 341.20 L 569.00 346.10 L 567.70 351.00 L 565.90 355.70 L 563.60 360.30 L 561.00 364.70 L 557.90 368.90 L 554.40 373.00 L 550.70 376.80 L 542.10 383.70 L 532.30 389.70 L 521.50 394.30 L 509.80 397.70 L 497.40 399.70 L 490.90 400.00 L 484.30 400.00 L 477.70 399.50 L 471.20 398.60 L 464.80 397.10 L 458.40 395.20 L 452.30 392.90 L 450.40 396.80 L 447.90 400.60 L 445.90 402.90 L 440.60 407.40 L 437.50 409.30 L 429.20 413.00 L 424.50 414.40 L 412.50 417.00 L 419.80 410.40 L 424.30 404.70 L 427.10 398.60 L 428.30 393.10 L 428.30 389.30 L 427.90 385.70 L 427.10 382.20 L 425.30 376.90 L 417.20 358.70 L 416.00 355.10 L 414.40 347.70 L 413.90 340.20 L 414.30 335.10 L 415.20 330.10 L 416.50 325.20 L 418.30 320.50 L 420.60 315.90 L 423.20 311.50 L 426.30 307.30 L 429.80 303.20 L 437.60 295.80 L 442.10 292.50 L 451.90 286.60 L 462.70 281.90 L 474.40 278.50 L 486.80 276.60 L 493.30 276.20 L 499.80 276.20 L 506.10 276.70 L 512.10 277.50 L 517.90 278.70 L 529.20 282.20 L 539.20 286.90 L 544.00 289.80 L 548.30 292.90 L 552.30 296.30 L 555.90 299.90 L 559.20 303.80 L 562.10 307.90 L 564.60 312.10 L 566.70 316.60 L 568.30 321.20 L 569.40 326.00 L 570.10 330.90 L 570.30 336.00 Z" fill="#429cfd" fill-rule="nonzero" node-id="467" stroke="none" target-height="140.79999" target-width="157.79999" target-x="412.5" target-y="276.2"></path><path d="M 493.00 300.30 L 455.40 300.30 L 455.40 303.10 L 493.00 303.10 L 493.00 300.30 Z" fill="#ffffff" fill-rule="nonzero" node-id="469" stroke="none" target-height="2.8000183" target-width="37.600006" target-x="455.4" target-y="300.3"></path><path d="M 477.60 324.70 L 464.20 324.70 L 464.20 327.60 L 477.60 327.60 L 477.60 324.70 Z" fill="#ffffff" fill-rule="nonzero" node-id="471" stroke="none" target-height="2.899994" target-width="13.399994" target-x="464.2" target-y="324.7"></path><path d="M 535.90 352.20 L 522.50 352.20 L 522.50 355.00 L 535.90 355.00 L 535.90 352.20 Z" fill="#ffffff" fill-rule="nonzero" node-id="473" stroke="none" target-height="2.7999878" target-width="13.400024" target-x="522.5" target-y="352.2"></path><path d="M 477.60 374.00 L 464.20 374.00 L 464.20 376.80 L 477.60 376.80 L 477.60 374.00 Z" fill="#ffffff" fill-rule="nonzero" node-id="475" stroke="none" target-height="2.7999878" target-width="13.399994" target-x="464.2" target-y="374"></path><path d="M 496.90 374.00 L 483.50 374.00 L 483.50 376.80 L 496.90 376.80 L 496.90 374.00 Z" fill="#ffffff" fill-rule="nonzero" node-id="477" stroke="none" target-height="2.7999878" target-width="13.399994" target-x="483.5" target-y="374"></path><path d="M 517.70 352.20 L 483.50 352.20 L 483.50 355.00 L 517.70 355.00 L 517.70 352.20 Z" fill="#ffffff" fill-rule="nonzero" node-id="479" stroke="none" target-height="2.7999878" target-width="34.200012" target-x="483.5" target-y="352.2"></path><path d="M 525.90 374.00 L 503.40 374.00 L 503.40 376.80 L 525.90 376.80 L 525.90 374.00 Z" fill="#ffffff" fill-rule="nonzero" node-id="481" stroke="none" target-height="2.7999878" target-width="22.50003" target-x="503.4" target-y="374"></path><path d="M 526.00 324.70 L 484.30 324.70 L 484.30 327.60 L 526.00 327.60 L 526.00 324.70 Z" fill="#ffffff" fill-rule="nonzero" node-id="483" stroke="none" target-height="2.899994" target-width="41.700012" target-x="484.3" target-y="324.7"></path><path d="M 733.40 983.80 L 712.80 977.60 L 717.60 927.10 L 738.20 933.30 L 733.40 983.80 Z" fill="#7f3e3b" fill-rule="nonzero" node-id="485" stroke="none" target-height="56.700012" target-width="25.400024" target-x="712.8" target-y="927.1"></path><g node-id="737"><path d="M 739.90 921.80 L 719.30 915.70 L 716.60 944.00 L 737.40 947.90 L 739.90 921.80 Z" fill="#000000" fill-opacity="0.2" fill-rule="nonzero" group-id="14" node-id="489" stroke="none" target-height="32.200012" target-width="23.300049" target-x="716.6" target-y="915.7"></path></g><path d="M 855.30 671.90 L 828.90 675.40 L 808.10 679.50 L 796.50 682.30 L 784.90 685.60 L 773.30 689.40 L 765.70 692.40 L 751.40 699.00 L 744.70 702.90 L 738.60 707.00 L 733.20 711.30 L 729.40 714.90 L 726.10 718.70 L 723.30 722.60 L 720.90 726.70 L 719.10 731.00 L 717.90 735.50 L 717.20 740.30 L 717.10 745.40 L 718.20 760.10 L 720.50 782.80 L 721.30 794.60 L 721.40 817.60 L 719.60 853.70 L 716.90 887.70 L 712.80 931.90 L 748.40 933.80 L 759.60 892.50 L 765.90 866.50 L 772.00 838.20 L 774.70 823.90 L 776.90 810.00 L 778.70 796.30 L 779.80 784.00 L 780.20 775.90 L 779.80 762.70 L 811.10 762.80 L 836.30 762.10 L 849.30 761.30 L 862.10 760.00 L 874.40 758.10 L 882.50 756.50 L 890.00 754.60 L 896.90 752.40 L 902.00 750.40 L 910.60 745.90 L 914.30 743.40 L 917.60 740.40 L 920.40 737.30 L 922.70 733.90 L 924.40 730.20 L 927.40 721.00 L 929.80 711.60 L 931.70 702.10 L 933.00 692.50 L 933.70 682.90 L 933.80 673.10 L 855.30 671.90 Z" fill="#429cfd" fill-rule="nonzero" node-id="492" stroke="none" target-height="261.89996" target-width="221" target-x="712.8" target-y="671.9"></path><path d="M 754.10 940.60 L 707.50 932.60 L 708.30 912.00 L 756.50 922.80 L 754.10 940.60 Z" fill="#263238" fill-rule="nonzero" node-id="494" stroke="none" target-height="28.599976" target-width="49" target-x="707.5" target-y="912"></path><path d="M 710.70 969.10 L 734.40 973.80 L 735.50 974.60 L 735.80 975.80 L 733.80 998.40 L 733.40 999.90 L 732.40 1001.20 L 731.00 1002.00 L 729.50 1002.20 L 706.90 996.90 L 692.80 994.10 L 674.60 991.10 L 673.00 990.30 L 670.90 988.10 L 669.90 985.40 L 670.00 983.30 L 670.50 981.50 L 671.90 979.90 L 687.80 977.00 L 694.00 975.50 L 698.80 974.00 L 703.20 972.10 L 708.00 969.40 L 710.70 969.10 Z" fill="#263238" fill-rule="nonzero" node-id="496" stroke="none" target-height="33.100037" target-width="65.89996" target-x="669.9" target-y="969.1"></path><path d="M 700.00 973.20 L 705.60 973.30 L 706.00 973.00 L 706.00 972.50 L 701.10 968.60 L 698.50 967.40 L 697.40 967.40 L 696.50 967.80 L 695.70 969.30 L 695.80 970.70 L 696.20 971.40 L 697.30 972.30 L 700.00 973.20 Z M 704.50 972.40 L 699.60 972.00 L 697.90 971.50 L 697.00 970.80 L 696.80 969.90 L 697.20 968.60 L 698.40 968.40 L 702.10 970.40 L 704.50 972.40 Z" fill="#429cfd" fill-rule="nonzero" node-id="498" stroke="none" target-height="5.8999634" target-width="10.299988" target-x="695.7" target-y="967.4"></path><path d="M 705.70 973.40 L 706.20 973.00 L 706.80 969.50 L 706.60 965.70 L 706.00 964.30 L 705.10 963.50 L 704.00 963.30 L 702.80 963.50 L 702.00 964.50 L 701.80 965.70 L 702.00 967.40 L 703.50 970.70 L 705.70 973.40 Z M 704.20 964.30 L 705.20 964.90 L 705.70 967.20 L 705.80 969.50 L 705.40 971.90 L 704.30 970.30 L 703.00 966.70 L 702.90 964.80 L 703.10 964.50 L 704.20 964.30 Z" fill="#429cfd" fill-rule="nonzero" node-id="500" stroke="none" target-height="10.100037" target-width="5" target-x="701.8" target-y="963.3"></path><path d="M 641.50 991.60 L 621.90 982.80 L 635.50 934.40 L 655.10 943.20 L 641.50 991.60 Z" fill="#7f3e3b" fill-rule="nonzero" node-id="502" stroke="none" target-height="57.19995" target-width="33.19995" target-x="621.9" target-y="934.4"></path><g node-id="738"><path d="M 658.40 930.80 L 638.80 922.00 L 631.80 946.90 L 651.40 955.70 L 658.40 930.80 Z" fill="#000000" fill-opacity="0.2" fill-rule="nonzero" group-id="15" node-id="506" stroke="none" target-height="33.700012" target-width="26.600037" target-x="631.8" target-y="922"></path></g><path d="M 813.10 671.90 L 796.30 674.00 L 778.40 676.90 L 756.80 681.10 L 733.40 686.70 L 721.50 690.20 L 709.90 694.00 L 702.30 696.90 L 688.40 703.00 L 681.80 706.50 L 675.90 710.10 L 670.70 713.90 L 666.90 717.00 L 663.70 720.20 L 658.60 726.70 L 656.70 730.30 L 655.30 734.00 L 654.50 737.80 L 653.40 767.20 L 652.60 780.10 L 651.00 799.40 L 646.50 836.50 L 643.90 853.70 L 638.50 884.80 L 633.50 909.60 L 628.50 931.70 L 659.60 947.20 L 668.10 928.90 L 681.50 896.90 L 691.60 869.80 L 696.50 855.10 L 701.10 840.30 L 705.10 825.20 L 709.40 805.30 L 711.00 795.70 L 712.30 786.00 L 712.90 776.80 L 713.10 768.20 L 725.00 765.70 L 732.30 764.90 L 743.50 764.10 L 756.00 763.70 L 808.90 763.20 L 822.10 762.70 L 842.30 761.00 L 856.20 758.40 L 865.60 755.40 L 872.90 751.60 L 876.00 749.30 L 878.60 746.70 L 880.60 743.80 L 882.20 740.60 L 885.20 730.50 L 887.50 717.40 L 888.30 709.70 L 888.70 702.10 L 888.60 688.60 L 887.20 671.90 L 813.10 671.90 Z" fill="#429cfd" fill-rule="nonzero" node-id="509" stroke="none" target-height="275.3" target-width="260.2" target-x="628.5" target-y="671.9"></path><path d="M 664.70 951.70 L 622.90 932.90 L 626.20 915.70 L 670.30 931.00 L 664.70 951.70 Z" fill="#263238" fill-rule="nonzero" node-id="511" stroke="none" target-height="36" target-width="47.399963" target-x="622.9" target-y="915.7"></path><path d="M 623.90 966.50 L 647.70 971.50 L 648.80 972.30 L 649.10 973.70 L 647.20 998.40 L 646.60 1000.30 L 645.70 1001.60 L 644.80 1002.20 L 642.90 1002.50 L 587.40 989.00 L 585.40 988.20 L 583.80 987.20 L 581.90 984.40 L 581.20 981.40 L 581.40 979.00 L 582.10 977.20 L 583.70 975.60 L 600.60 974.20 L 606.40 973.10 L 614.60 970.50 L 621.00 966.90 L 622.90 966.40 L 623.90 966.50 Z" fill="#263238" fill-rule="nonzero" node-id="513" stroke="none" target-height="36.099976" target-width="67.89996" target-x="581.2" target-y="966.4"></path><path d="M 614.20 971.90 L 618.90 968.70 L 618.90 967.90 L 614.00 967.50 L 610.90 967.80 L 609.50 968.20 L 608.60 968.80 L 608.20 969.70 L 608.50 971.30 L 609.40 972.40 L 610.00 972.80 L 611.50 972.80 L 614.20 971.90 Z M 617.40 968.60 L 613.30 971.20 L 611.50 971.80 L 610.40 971.70 L 609.70 971.10 L 609.30 969.80 L 610.10 969.00 L 614.10 968.40 L 617.40 968.60 Z" fill="#429cfd" fill-rule="nonzero" node-id="515" stroke="none" target-height="5.299988" target-width="10.700012" target-x="608.2" target-y="967.5"></path><path d="M 618.70 968.70 L 618.90 968.00 L 616.20 963.30 L 614.90 961.90 L 613.60 961.20 L 612.50 961.10 L 611.40 961.50 L 610.60 962.40 L 610.50 963.70 L 611.00 964.80 L 612.20 966.00 L 615.40 967.90 L 617.10 968.50 L 618.70 968.70 Z M 612.20 962.20 L 613.30 962.20 L 615.20 963.70 L 616.60 965.50 L 617.70 967.70 L 615.90 967.10 L 612.70 965.00 L 611.50 963.50 L 611.40 963.10 L 612.20 962.20 Z" fill="#429cfd" fill-rule="nonzero" node-id="517" stroke="none" target-height="7.6000366" target-width="8.400024" target-x="610.5" target-y="961.1"></path><path d="M 866.80 501.10 L 872.50 514.30 L 877.70 527.50 L 882.60 541.00 L 887.00 554.60 L 892.00 573.20 L 895.60 590.40 L 896.50 598.10 L 897.10 605.80 L 897.30 613.50 L 897.00 619.60 L 896.10 625.50 L 894.60 631.40 L 891.80 638.30 L 888.00 644.00 L 884.70 647.60 L 882.50 649.20 L 878.80 651.30 L 872.70 653.30 L 867.70 654.00 L 863.30 654.10 L 851.40 653.40 L 843.80 652.30 L 832.60 650.00 L 821.50 647.30 L 810.60 644.20 L 799.70 640.60 L 789.00 636.60 L 793.10 621.00 L 820.10 624.20 L 846.60 626.30 L 859.00 626.30 L 864.20 625.60 L 866.40 624.90 L 864.80 625.90 L 865.90 622.90 L 866.50 618.20 L 866.60 613.40 L 866.00 605.40 L 864.80 597.40 L 861.50 583.10 L 855.90 564.30 L 851.70 551.80 L 847.10 539.20 L 837.10 514.60 L 866.80 501.10 Z" fill="#7f3e3b" fill-rule="nonzero" node-id="519" stroke="none" target-height="152.99997" target-width="108.29999" target-x="789" target-y="501.1"></path><path d="M 800.90 625.30 L 782.20 614.70 L 772.80 635.00 L 780.80 637.90 L 787.90 639.70 L 791.60 640.20 L 794.70 640.30 L 796.70 640.00 L 798.20 639.30 L 799.30 638.40 L 800.90 625.30 Z" fill="#7f3e3b" fill-rule="nonzero" node-id="521" stroke="none" target-height="25.599976" target-width="28.100037" target-x="772.8" target-y="614.7"></path><path d="M 767.00 618.60 L 758.40 632.10 L 772.80 634.90 L 782.20 614.60 L 767.00 618.60 Z" fill="#7f3e3b" fill-rule="nonzero" node-id="523" stroke="none" target-height="20.300049" target-width="23.799988" target-x="758.4" target-y="614.6"></path><path d="M 823.10 517.20 L 817.60 530.50 L 805.80 556.60 L 793.20 582.50 L 786.30 595.30 L 779.00 607.90 L 771.40 620.30 L 767.20 626.60 L 762.60 632.80 L 757.40 639.10 L 751.70 644.80 L 748.90 646.90 L 745.80 648.50 L 742.50 649.70 L 737.00 650.90 L 732.40 651.20 L 720.00 650.70 L 712.20 649.70 L 700.80 647.40 L 689.40 644.70 L 678.30 641.50 L 667.20 637.90 L 656.20 633.80 L 660.40 618.20 L 687.90 621.40 L 701.60 622.70 L 714.90 623.50 L 727.30 623.30 L 732.30 622.50 L 733.80 622.00 L 732.30 622.80 L 738.60 614.80 L 745.50 603.90 L 752.10 592.20 L 758.30 580.20 L 770.30 555.30 L 792.90 504.80 L 823.10 517.20 Z" fill="#7f3e3b" fill-rule="nonzero" node-id="525" stroke="none" target-height="146.40002" target-width="166.89996" target-x="656.2" target-y="504.8"></path><path d="M 668.40 622.30 L 649.60 611.50 L 640.20 631.80 L 648.20 634.70 L 655.40 636.50 L 659.10 637.00 L 662.20 637.10 L 664.20 636.80 L 665.70 636.20 L 666.70 635.20 L 668.40 622.30 Z" fill="#7f3e3b" fill-rule="nonzero" node-id="527" stroke="none" target-height="25.599976" target-width="28.200012" target-x="640.2" target-y="611.5"></path><path d="M 634.50 615.60 L 625.90 629.10 L 640.20 631.90 L 649.60 611.60 L 634.50 615.60 Z" fill="#7f3e3b" fill-rule="nonzero" node-id="529" stroke="none" target-height="20.300049" target-width="23.699951" target-x="625.9" target-y="611.6"></path><path d="M 871.60 417.00 L 859.60 430.80 L 841.30 449.70 L 843.90 456.70 L 844.70 460.40 L 845.20 467.90 L 844.80 471.30 L 844.20 473.50 L 843.10 475.60 L 841.50 477.70 L 839.50 479.50 L 836.70 481.30 L 832.90 483.20 L 831.40 485.70 L 830.30 489.10 L 830.30 490.90 L 831.30 493.00 L 833.70 494.80 L 835.70 495.40 L 841.40 495.90 L 845.20 495.70 L 856.10 494.00 L 865.20 491.30 L 872.50 487.80 L 878.70 483.20 L 881.00 480.80 L 883.80 476.70 L 884.50 475.10 L 882.10 472.90 L 879.90 470.30 L 878.00 467.10 L 875.10 459.80 L 874.00 455.60 L 872.70 449.00 L 871.40 435.40 L 871.30 428.80 L 871.60 417.00 Z" fill="#7f3e3b" fill-rule="nonzero" node-id="531" stroke="none" target-height="78.899994" target-width="54.200012" target-x="830.3" target-y="417"></path><path d="M 810.80 401.30 L 810.60 402.70 L 809.40 404.50 L 808.60 404.80 L 807.70 404.60 L 806.50 402.90 L 806.50 400.20 L 807.70 398.30 L 808.50 398.00 L 809.30 398.20 L 810.10 399.00 L 810.80 401.30 Z" fill="#263238" fill-rule="nonzero" node-id="533" stroke="none" target-height="6.799988" target-width="4.299988" target-x="806.5" target-y="398"></path><path d="M 817.00 394.40 L 816.50 394.20 L 814.80 392.20 L 813.20 390.90 L 811.30 390.00 L 808.50 389.20 L 808.30 387.90 L 808.90 387.40 L 811.90 387.80 L 814.30 389.00 L 816.30 390.60 L 818.10 393.10 L 817.90 393.90 L 817.00 394.40 Z" fill="#263238" fill-rule="nonzero" node-id="535" stroke="none" target-height="7" target-width="9.799988" target-x="808.3" target-y="387.4"></path><path d="M 810.10 402.40 L 808.30 407.50 L 806.20 412.30 L 803.60 416.90 L 805.40 417.70 L 807.40 418.00 L 809.30 418.00 L 811.30 417.50 L 810.10 402.40 Z" fill="#630f0f" fill-rule="nonzero" node-id="537" stroke="none" target-height="15.600006" target-width="7.700012" target-x="803.6" target-y="402.4"></path><path d="M 873.30 391.90 L 872.00 414.40 L 870.30 424.30 L 867.80 431.30 L 866.10 434.50 L 863.90 437.70 L 861.20 440.80 L 858.30 443.70 L 855.00 446.10 L 851.40 448.00 L 847.60 449.40 L 843.60 450.30 L 839.60 450.70 L 835.50 450.50 L 831.50 449.70 L 827.60 448.40 L 824.00 446.60 L 820.60 444.40 L 817.50 441.70 L 814.90 438.50 L 812.70 435.10 L 811.00 431.40 L 809.80 427.50 L 808.20 418.80 L 807.50 409.00 L 808.10 398.80 L 810.00 388.80 L 811.50 384.00 L 813.40 379.40 L 815.70 375.20 L 818.40 371.30 L 820.80 368.70 L 823.40 366.30 L 826.30 364.30 L 829.50 362.50 L 833.20 361.00 L 837.10 360.00 L 841.00 359.50 L 845.00 359.50 L 849.00 360.00 L 852.80 361.00 L 856.50 362.50 L 859.90 364.50 L 863.10 367.00 L 865.90 369.80 L 868.30 373.00 L 870.30 376.40 L 871.80 380.10 L 872.80 384.00 L 873.30 387.90 L 873.30 391.90 Z" fill="#7f3e3b" fill-rule="nonzero" node-id="539" stroke="none" target-height="91.20001" target-width="65.79999" target-x="807.5" target-y="359.5"></path><path d="M 883.70 399.60 L 881.90 404.50 L 877.50 413.70 L 871.90 422.40 L 868.80 426.50 L 838.80 432.10 L 832.80 428.90 L 827.70 425.10 L 825.20 422.70 L 821.90 417.90 L 820.50 413.50 L 820.30 411.10 L 820.60 408.60 L 821.40 405.90 L 819.80 403.70 L 819.00 399.70 L 819.00 396.90 L 819.90 391.20 L 821.70 386.20 L 825.50 388.30 L 829.80 389.00 L 834.00 388.10 L 837.70 385.80 L 839.30 387.80 L 841.30 389.30 L 843.60 390.30 L 846.00 390.80 L 848.60 390.70 L 851.00 390.10 L 853.20 388.90 L 855.10 387.20 L 857.20 388.90 L 859.60 390.00 L 862.20 390.50 L 864.90 390.40 L 867.50 389.70 L 869.80 388.40 L 871.80 386.60 L 873.30 384.40 L 875.30 385.40 L 877.30 385.90 L 879.50 386.00 L 881.70 385.60 L 883.60 384.80 L 885.90 383.20 L 885.90 387.40 L 885.60 391.50 L 884.90 395.60 L 883.70 399.60 Z" fill="#263238" fill-rule="nonzero" node-id="541" stroke="none" target-height="48.899994" target-width="66.900024" target-x="819" target-y="383.2"></path><g node-id="739"><path d="M 883.70 399.60 L 881.90 404.50 L 877.50 413.70 L 871.90 422.40 L 868.80 426.50 L 838.80 432.10 L 832.80 428.90 L 827.70 425.10 L 825.20 422.70 L 821.90 417.90 L 820.50 413.50 L 820.30 411.10 L 820.60 408.60 L 821.40 405.90 L 819.80 403.70 L 819.00 399.70 L 819.00 396.90 L 819.90 391.20 L 821.70 386.20 L 825.50 388.30 L 829.80 389.00 L 834.00 388.10 L 837.70 385.80 L 839.30 387.80 L 841.30 389.30 L 843.60 390.30 L 846.00 390.80 L 848.60 390.70 L 851.00 390.10 L 853.20 388.90 L 855.10 387.20 L 857.20 388.90 L 859.60 390.00 L 862.20 390.50 L 864.90 390.40 L 867.50 389.70 L 869.80 388.40 L 871.80 386.60 L 873.30 384.40 L 875.30 385.40 L 877.30 385.90 L 879.50 386.00 L 881.70 385.60 L 883.60 384.80 L 885.90 383.20 L 885.90 387.40 L 885.60 391.50 L 884.90 395.60 L 883.70 399.60 Z" fill="#ffffff" fill-opacity="0.1" fill-rule="nonzero" group-id="16" node-id="545" stroke="none" target-height="48.899994" target-width="66.900024" target-x="819" target-y="383.2"></path></g><path d="M 888.10 371.60 L 888.70 373.60 L 888.90 375.60 L 888.70 377.70 L 888.10 379.70 L 887.20 381.50 L 885.40 383.50 L 883.60 384.70 L 881.70 385.50 L 879.50 385.80 L 877.30 385.70 L 875.30 385.20 L 873.30 384.30 L 871.80 386.50 L 869.80 388.20 L 867.50 389.50 L 864.90 390.20 L 862.20 390.30 L 859.60 389.80 L 857.20 388.70 L 855.10 387.10 L 853.20 388.80 L 851.00 390.00 L 848.60 390.60 L 846.00 390.70 L 843.60 390.20 L 841.30 389.10 L 839.30 387.60 L 837.70 385.70 L 836.00 387.00 L 832.00 388.60 L 827.60 388.70 L 823.50 387.30 L 821.70 386.10 L 820.10 384.50 L 818.50 381.60 L 816.20 383.40 L 814.50 384.00 L 812.70 384.30 L 809.20 383.80 L 807.60 383.00 L 806.00 381.50 L 804.80 379.70 L 804.10 377.60 L 804.00 375.40 L 804.30 373.60 L 802.40 375.60 L 799.80 376.60 L 797.00 376.60 L 794.50 375.40 L 793.40 374.50 L 792.60 372.90 L 792.00 369.50 L 792.70 366.10 L 794.80 363.20 L 796.20 362.20 L 799.70 360.90 L 803.70 361.00 L 805.80 361.50 L 809.70 363.60 L 809.00 361.70 L 808.70 359.80 L 809.00 357.80 L 809.70 356.00 L 810.70 354.40 L 812.20 353.00 L 813.90 352.00 L 815.70 351.40 L 817.70 351.30 L 819.70 351.70 L 821.40 352.40 L 823.00 353.60 L 822.90 352.20 L 823.40 349.30 L 824.10 348.00 L 826.10 345.90 L 829.00 345.00 L 833.20 345.40 L 835.60 346.30 L 837.90 347.70 L 839.70 349.40 L 841.40 346.20 L 844.50 342.50 L 846.50 341.00 L 849.70 340.00 L 851.60 340.10 L 856.80 342.30 L 859.60 344.40 L 860.50 345.50 L 860.70 347.00 L 862.50 344.90 L 864.30 343.80 L 866.20 343.10 L 868.30 343.00 L 871.30 343.40 L 877.00 345.30 L 882.90 347.90 L 888.20 351.20 L 890.50 353.30 L 892.50 355.70 L 893.40 357.60 L 894.20 361.90 L 893.50 366.10 L 892.70 368.00 L 891.40 369.60 L 889.90 370.80 L 888.10 371.60 Z" fill="#263238" fill-rule="nonzero" node-id="548" stroke="none" target-height="50.700012" target-width="102.20001" target-x="792" target-y="340"></path><path d="M 834.60 408.10 L 833.20 413.60 L 830.70 418.70 L 827.10 423.20 L 825.30 424.50 L 823.80 425.10 L 822.40 425.10 L 821.10 424.60 L 820.00 423.60 L 819.00 422.10 L 817.80 418.20 L 817.70 413.10 L 818.70 407.20 L 820.80 401.60 L 823.40 398.00 L 826.10 396.40 L 828.10 396.00 L 829.70 396.20 L 831.20 396.90 L 832.40 398.00 L 833.40 399.40 L 834.70 403.30 L 834.60 408.10 Z" fill="#7f3e3b" fill-rule="nonzero" node-id="550" stroke="none" target-height="29.100006" target-width="17" target-x="817.7" target-y="396"></path><path d="M 925.00 483.10 L 923.90 481.00 L 922.10 478.90 L 920.00 477.00 L 917.50 475.30 L 912.00 472.70 L 909.30 472.00 L 906.90 471.80 L 894.80 472.00 L 886.80 472.50 L 862.60 475.40 L 846.60 478.10 L 830.70 481.40 L 820.10 484.60 L 810.80 487.90 L 799.50 492.60 L 806.40 546.30 L 809.00 570.50 L 811.30 596.10 L 812.60 624.40 L 813.30 672.90 L 933.90 672.90 L 936.20 655.40 L 937.20 636.70 L 937.70 586.30 L 937.40 571.40 L 935.60 543.70 L 933.50 523.90 L 932.20 514.50 L 929.00 497.00 L 927.00 489.30 L 925.00 483.10 Z" fill="#263238" fill-rule="nonzero" node-id="552" stroke="none" target-height="201.10004" target-width="138.20001" target-x="799.5" target-y="471.8"></path><g node-id="740"><path d="M 808.70 567.30 L 811.50 600.80 L 813.40 597.80 L 817.20 590.00 L 819.60 583.60 L 824.10 569.20 L 829.20 547.60 L 833.40 523.80 L 808.70 567.30 Z" fill="#000000" fill-opacity="0.2" fill-rule="nonzero" group-id="17" node-id="556" stroke="none" target-height="77" target-width="24.700012" target-x="808.7" target-y="523.8"></path></g><path d="M 792.60 496.40 L 787.80 500.00 L 785.30 502.70 L 781.80 507.10 L 775.00 517.90 L 771.90 523.80 L 766.40 535.40 L 762.20 545.60 L 758.40 555.70 L 798.00 585.50 L 802.50 580.80 L 807.70 574.70 L 812.70 568.20 L 817.70 560.90 L 826.90 546.10 L 830.90 538.80 L 835.70 528.00 L 837.50 521.70 L 838.00 517.30 L 837.80 513.20 L 837.00 509.30 L 835.60 505.50 L 833.70 502.10 L 831.40 499.00 L 826.90 495.10 L 821.50 492.40 L 815.40 490.90 L 808.30 491.00 L 804.70 491.60 L 801.00 492.60 L 796.90 494.20 L 792.60 496.40 Z" fill="#263238" fill-rule="nonzero" node-id="559" stroke="none" target-height="94.600006" target-width="79.599976" target-x="758.4" target-y="490.9"></path><path d="M 758.50 1002.70 L 758.20 1005.10 L 757.60 1007.30 L 756.40 1009.50 L 754.90 1011.40 L 753.00 1012.90 L 750.90 1014.00 L 748.60 1014.70 L 746.20 1014.90 L 743.80 1014.70 L 741.50 1014.00 L 739.40 1012.90 L 737.50 1011.30 L 736.00 1009.50 L 734.90 1007.40 L 734.10 1005.10 L 733.90 1002.60 L 734.10 1000.30 L 734.80 998.00 L 736.00 995.80 L 737.50 994.00 L 739.40 992.40 L 741.50 991.30 L 743.80 990.60 L 746.20 990.40 L 748.60 990.60 L 750.90 991.30 L 753.00 992.40 L 754.90 994.00 L 756.40 995.80 L 757.60 997.90 L 758.20 1000.20 L 758.50 1002.70 Z" fill="#263238" fill-rule="nonzero" node-id="561" stroke="none" target-height="24.5" target-width="24.599976" target-x="733.9" target-y="990.4"></path><path d="M 942.00 1002.70 L 942.20 1005.10 L 942.90 1007.30 L 944.00 1009.50 L 945.60 1011.40 L 947.40 1012.90 L 949.50 1014.00 L 951.90 1014.70 L 954.20 1014.90 L 956.70 1014.70 L 959.00 1014.00 L 961.10 1012.90 L 962.90 1011.30 L 964.50 1009.50 L 965.60 1007.40 L 966.30 1005.10 L 966.50 1002.60 L 966.30 1000.30 L 965.60 998.00 L 964.50 995.80 L 963.00 994.00 L 961.10 992.40 L 958.90 991.30 L 956.70 990.60 L 954.30 990.40 L 951.80 990.60 L 949.50 991.30 L 947.40 992.40 L 945.60 994.00 L 944.00 995.80 L 942.90 997.90 L 942.20 1000.20 L 942.00 1002.70 Z" fill="#263238" fill-rule="nonzero" node-id="563" stroke="none" target-height="24.5" target-width="24.5" target-x="942" target-y="990.4"></path><path d="M 838.20 998.60 L 838.40 1001.00 L 839.10 1003.30 L 840.30 1005.40 L 841.80 1007.30 L 843.60 1008.80 L 845.80 1009.90 L 848.10 1010.60 L 850.50 1010.90 L 852.90 1010.60 L 855.20 1009.90 L 857.30 1008.80 L 859.20 1007.30 L 860.70 1005.40 L 861.80 1003.30 L 862.50 1001.00 L 862.80 998.60 L 862.50 996.20 L 861.80 993.90 L 860.70 991.70 L 859.20 989.90 L 857.30 988.40 L 855.20 987.20 L 852.90 986.50 L 850.50 986.30 L 848.10 986.50 L 845.80 987.20 L 843.70 988.40 L 841.80 989.90 L 840.20 991.80 L 839.10 993.90 L 838.40 996.20 L 838.20 998.60 Z" fill="#263238" fill-rule="nonzero" node-id="565" stroke="none" target-height="24.600037" target-width="24.599976" target-x="838.2" target-y="986.3"></path><path d="M 846.70 983.60 L 846.70 959.80 L 811.50 959.80 L 804.60 960.00 L 797.70 960.60 L 790.90 961.70 L 725.30 974.40 L 723.90 974.90 L 721.70 976.80 L 720.60 979.40 L 720.90 982.40 L 722.60 984.80 L 723.80 985.60 L 726.60 986.20 L 846.70 983.60 Z" fill="#263238" fill-rule="nonzero" node-id="567" stroke="none" target-height="26.400024" target-width="126.10004" target-x="720.6" target-y="959.8"></path><path d="M 846.70 983.60 L 846.70 959.80 L 881.90 959.80 L 888.80 960.10 L 895.60 960.70 L 976.10 973.60 L 978.70 974.80 L 980.50 977.20 L 980.90 980.10 L 980.50 981.60 L 978.90 984.00 L 977.60 984.80 L 974.80 985.40 L 846.70 983.60 Z" fill="#263238" fill-rule="nonzero" node-id="569" stroke="none" target-height="25.600037" target-width="134.20001" target-x="846.7" target-y="959.8"></path><path d="M 868.40 851.00 L 824.90 851.00 L 824.90 959.80 L 868.40 959.80 L 868.40 851.00 Z" fill="#263238" fill-rule="nonzero" node-id="571" stroke="none" target-height="108.79999" target-width="43.5" target-x="824.9" target-y="851"></path><path d="M 862.20 800.40 L 831.10 800.40 L 831.10 851.00 L 862.20 851.00 L 862.20 800.40 Z" fill="#263238" fill-rule="nonzero" node-id="573" stroke="none" target-height="50.599976" target-width="31.100037" target-x="831.1" target-y="800.4"></path><g node-id="741"><path d="M 831.10 815.30 L 862.20 823.10 L 862.20 800.40 L 831.10 800.40 L 831.10 815.30 Z" fill="#000000" fill-opacity="0.5" fill-rule="nonzero" group-id="18" node-id="577" stroke="none" target-height="22.699951" target-width="31.100037" target-x="831.1" target-y="800.4"></path></g><path d="M 746.20 685.90 L 730.40 685.90 L 730.40 753.30 L 746.20 753.30 L 746.20 685.90 Z" fill="#263238" fill-rule="nonzero" node-id="580" stroke="none" target-height="67.39996" target-width="15.799988" target-x="730.4" target-y="685.9"></path><path d="M 825.40 800.40 L 825.40 507.40 L 825.60 503.30 L 826.30 499.30 L 827.30 495.40 L 828.80 491.50 L 830.70 487.90 L 833.00 484.50 L 835.60 481.40 L 859.40 460.20 L 863.10 457.40 L 867.00 455.00 L 871.20 453.10 L 875.60 451.80 L 880.20 451.00 L 884.80 450.70 L 960.20 450.70 L 997.00 490.00 L 997.00 800.40 L 825.40 800.40 Z" fill="#429cfd" fill-rule="nonzero" node-id="582" stroke="none" target-height="349.7" target-width="171.59998" target-x="825.4" target-y="450.7"></path><path d="M 713.10 743.70 L 885.20 743.70 L 885.20 800.40 L 685.10 800.40 L 681.50 800.10 L 678.10 799.10 L 674.80 797.60 L 671.90 795.60 L 669.40 793.10 L 667.40 790.10 L 665.90 786.80 L 665.00 783.50 L 664.70 779.90 L 665.10 776.30 L 666.00 772.90 L 667.50 769.70 L 670.00 765.80 L 676.00 758.90 L 683.00 753.10 L 686.90 750.60 L 691.00 748.50 L 699.50 745.50 L 704.00 744.50 L 708.50 743.90 L 713.10 743.70 Z" fill="#429cfd" fill-rule="nonzero" node-id="584" stroke="none" target-height="56.700012" target-width="220.5" target-x="664.7" target-y="743.7"></path><g node-id="742"><path d="M 997.00 490.00 L 997.00 800.40 L 685.10 800.40 L 681.50 800.10 L 678.10 799.10 L 674.80 797.60 L 671.90 795.60 L 669.40 793.10 L 667.40 790.10 L 665.90 786.80 L 665.00 783.50 L 664.70 779.90 L 665.10 776.30 L 666.00 772.90 L 667.50 769.70 L 672.90 762.20 L 679.40 755.80 L 686.90 750.60 L 695.20 746.80 L 704.00 744.50 L 713.10 743.70 L 799.80 743.70 L 803.20 743.50 L 806.40 742.80 L 809.60 741.80 L 812.60 740.30 L 815.40 738.40 L 818.00 736.20 L 820.20 733.60 L 822.10 730.80 L 823.50 727.80 L 824.60 724.70 L 825.30 721.40 L 825.50 718.00 L 825.50 507.40 L 825.70 503.30 L 826.40 499.30 L 827.40 495.40 L 828.90 491.50 L 830.80 487.90 L 833.10 484.50 L 835.70 481.40 L 838.60 478.50 L 859.50 460.20 L 863.20 457.40 L 867.20 455.00 L 871.40 453.10 L 875.80 451.80 L 880.30 451.00 L 884.90 450.70 L 960.40 450.70 L 997.00 490.00 Z" fill="#ffffff" fill-opacity="0.7" fill-rule="nonzero" group-id="19" node-id="588" stroke="none" target-height="349.7" target-width="332.3" target-x="664.7" target-y="450.7"></path></g><path d="M 850.50 800.40 L 850.50 507.40 L 850.70 503.30 L 851.40 499.30 L 852.40 495.40 L 853.90 491.50 L 855.80 487.90 L 858.10 484.50 L 860.70 481.40 L 884.50 460.20 L 888.20 457.40 L 892.10 455.00 L 896.30 453.10 L 900.70 451.80 L 905.30 451.00 L 909.90 450.70 L 968.70 450.70 L 972.70 450.90 L 976.50 451.50 L 980.30 452.50 L 984.00 453.90 L 987.50 455.60 L 990.80 457.70 L 993.90 460.10 L 996.70 462.80 L 1011.80 478.80 L 1014.90 482.60 L 1017.50 486.60 L 1019.50 491.00 L 1021.00 495.50 L 1021.90 500.30 L 1022.20 505.10 L 1022.20 771.00 L 1022.00 774.90 L 1021.20 778.60 L 1020.00 782.30 L 1018.30 785.70 L 1016.10 788.90 L 1013.60 791.80 L 1010.70 794.40 L 1007.50 796.50 L 1004.10 798.20 L 1000.40 799.40 L 996.70 800.10 L 992.80 800.40 L 850.50 800.40 Z" fill="#429cfd" fill-rule="nonzero" node-id="591" stroke="none" target-height="349.7" target-width="171.70001" target-x="850.5" target-y="450.7"></path><g node-id="743"><path d="M 850.50 800.40 L 850.50 507.40 L 850.70 503.30 L 851.40 499.30 L 852.40 495.40 L 853.90 491.50 L 855.80 487.90 L 858.10 484.50 L 860.70 481.40 L 884.50 460.20 L 888.20 457.40 L 892.10 455.00 L 896.30 453.10 L 900.70 451.80 L 905.30 451.00 L 909.90 450.70 L 968.70 450.70 L 972.70 450.90 L 976.50 451.50 L 980.30 452.50 L 984.00 453.90 L 987.50 455.60 L 990.80 457.70 L 993.90 460.10 L 996.70 462.80 L 1011.80 478.80 L 1014.90 482.60 L 1017.50 486.60 L 1019.50 491.00 L 1021.00 495.50 L 1021.90 500.30 L 1022.20 505.10 L 1022.20 771.00 L 1022.00 774.90 L 1021.20 778.60 L 1020.00 782.30 L 1018.30 785.70 L 1016.10 788.90 L 1013.60 791.80 L 1010.70 794.40 L 1007.50 796.50 L 1004.10 798.20 L 1000.40 799.40 L 996.70 800.10 L 992.80 800.40 L 850.50 800.40 Z" fill="#ffffff" fill-opacity="0.5" fill-rule="nonzero" group-id="20" node-id="595" stroke="none" target-height="349.7" target-width="171.70001" target-x="850.5" target-y="450.7"></path></g><path d="M 791.90 706.50 L 783.10 703.70 L 774.30 701.40 L 765.40 699.60 L 756.40 698.40 L 747.30 697.60 L 738.30 697.40 L 729.20 697.60 L 720.10 698.40 L 711.10 699.60 L 702.20 701.40 L 693.40 703.70 L 681.90 707.20 L 679.20 707.40 L 676.40 707.20 L 673.80 706.40 L 671.30 705.20 L 669.10 703.60 L 667.20 701.60 L 665.70 699.30 L 664.90 696.90 L 664.60 694.50 L 664.90 692.10 L 665.60 689.70 L 666.70 687.40 L 668.40 685.30 L 670.30 683.40 L 672.70 681.80 L 675.50 680.60 L 685.80 677.30 L 696.10 674.70 L 706.50 672.60 L 717.10 671.10 L 727.70 670.20 L 738.20 669.90 L 748.80 670.20 L 759.40 671.10 L 769.90 672.60 L 780.30 674.70 L 790.70 677.30 L 800.90 680.60 L 803.70 681.80 L 806.10 683.40 L 808.10 685.30 L 809.70 687.40 L 810.90 689.70 L 811.60 692.10 L 811.90 694.50 L 811.60 696.90 L 810.80 699.30 L 809.30 701.60 L 807.40 703.60 L 805.20 705.20 L 802.70 706.40 L 800.10 707.20 L 797.30 707.40 L 794.60 707.20 L 791.90 706.50 Z" fill="#429cfd" fill-rule="nonzero" node-id="598" stroke="none" target-height="37.5" target-width="147.30005" target-x="664.6" target-y="669.9"></path><g node-id="744"><path d="M 791.90 706.50 L 783.10 703.70 L 774.30 701.40 L 765.40 699.60 L 756.40 698.40 L 747.30 697.60 L 738.30 697.40 L 729.20 697.60 L 720.10 698.40 L 711.10 699.60 L 702.20 701.40 L 693.40 703.70 L 681.90 707.20 L 679.20 707.40 L 676.40 707.20 L 673.80 706.40 L 671.30 705.20 L 669.10 703.60 L 667.20 701.60 L 665.70 699.30 L 664.90 696.90 L 664.60 694.50 L 664.90 692.10 L 665.60 689.70 L 666.70 687.40 L 668.40 685.30 L 670.30 683.40 L 672.70 681.80 L 675.50 680.60 L 685.80 677.30 L 696.10 674.70 L 706.50 672.60 L 717.10 671.10 L 727.70 670.20 L 738.20 669.90 L 748.80 670.20 L 759.40 671.10 L 769.90 672.60 L 780.30 674.70 L 790.70 677.30 L 800.90 680.60 L 803.70 681.80 L 806.10 683.40 L 808.10 685.30 L 809.70 687.40 L 810.90 689.70 L 811.60 692.10 L 811.90 694.50 L 811.60 696.90 L 810.80 699.30 L 809.30 701.60 L 807.40 703.60 L 805.20 705.20 L 802.70 706.40 L 800.10 707.20 L 797.30 707.40 L 794.60 707.20 L 791.90 706.50 Z" fill="#ffffff" fill-opacity="0.7" fill-rule="nonzero" group-id="21" node-id="602" stroke="none" target-height="37.5" target-width="147.30005" target-x="664.6" target-y="669.9"></path></g><path d="M 352.90 426.10 L 352.60 427.40 L 353.10 429.40 L 353.80 429.80 L 354.60 429.90 L 356.20 428.70 L 357.10 426.30 L 356.60 424.30 L 355.90 423.80 L 355.10 423.80 L 354.20 424.20 L 352.90 426.10 Z" fill="#263238" fill-rule="nonzero" node-id="605" stroke="none" target-height="6.100006" target-width="4.5" target-x="352.6" target-y="423.8"></path><path d="M 352.50 427.90 L 353.00 433.70 L 354.00 439.40 L 355.60 445.00 L 353.40 445.40 L 351.20 445.30 L 349.10 444.70 L 347.10 443.70 L 352.50 427.90 Z" fill="#a02724" fill-rule="nonzero" node-id="607" stroke="none" target-height="17.5" target-width="8.5" target-x="347.1" target-y="427.9"></path><path d="M 350.10 414.80 L 354.60 414.50 L 359.00 416.10 L 359.70 415.70 L 359.90 415.00 L 359.70 414.30 L 357.60 413.10 L 355.20 412.40 L 352.70 412.30 L 350.30 412.80 L 349.70 413.30 L 349.70 414.10 L 350.10 414.80 Z" fill="#263238" fill-rule="nonzero" node-id="609" stroke="none" target-height="3.8000183" target-width="10.199982" target-x="349.7" target-y="412.3"></path><path d="M 290.90 432.30 L 292.70 443.30 L 293.30 449.50 L 293.80 462.50 L 293.50 468.80 L 292.90 472.90 L 291.10 480.20 L 289.70 483.50 L 288.00 486.20 L 286.00 488.60 L 287.60 492.00 L 289.40 494.30 L 291.80 496.60 L 295.30 499.10 L 297.90 500.60 L 305.20 503.20 L 309.30 504.10 L 314.30 504.60 L 320.30 504.90 L 329.80 504.30 L 335.70 502.70 L 337.70 501.70 L 338.90 500.70 L 339.90 499.40 L 340.40 496.70 L 340.00 494.70 L 339.20 492.80 L 336.00 488.60 L 332.60 487.60 L 327.80 485.20 L 326.10 483.80 L 324.20 481.60 L 322.90 479.20 L 322.10 476.60 L 321.70 471.00 L 322.90 463.20 L 324.00 458.50 L 290.90 432.30 Z" fill="#b55b52" fill-rule="nonzero" node-id="611" stroke="none" target-height="72.600006" target-width="54.399994" target-x="286" target-y="432.3"></path><path d="M 298.20 403.10 L 294.20 417.40 L 291.70 429.30 L 291.30 433.00 L 291.50 439.90 L 293.10 446.80 L 294.50 450.30 L 296.30 453.40 L 298.30 456.20 L 300.60 458.60 L 303.20 460.80 L 307.00 463.30 L 311.10 465.10 L 315.50 466.50 L 320.00 467.20 L 324.40 467.30 L 328.90 466.80 L 332.20 466.00 L 335.30 464.90 L 338.20 463.40 L 341.10 461.50 L 343.60 459.30 L 345.80 456.60 L 347.80 453.60 L 349.50 450.00 L 354.60 433.00 L 356.80 421.80 L 357.40 412.50 L 357.10 408.70 L 355.50 401.40 L 354.10 398.00 L 352.20 394.80 L 349.70 391.60 L 346.70 388.60 L 343.70 386.30 L 340.40 384.30 L 337.00 382.80 L 333.30 381.80 L 329.60 381.20 L 325.80 381.10 L 322.00 381.50 L 318.30 382.40 L 314.80 383.70 L 311.40 385.40 L 308.40 387.60 L 305.50 390.10 L 303.10 393.00 L 301.00 396.20 L 299.30 399.60 L 298.20 403.10 Z" fill="#b55b52" fill-rule="nonzero" node-id="613" stroke="none" target-height="86.19998" target-width="66.100006" target-x="291.3" target-y="381.1"></path><path d="M 275.40 410.20 L 274.40 402.30 L 274.40 398.30 L 274.80 394.40 L 276.30 389.40 L 277.40 387.00 L 278.90 384.80 L 280.70 382.90 L 285.10 379.90 L 287.50 379.00 L 290.10 378.50 L 292.60 378.40 L 295.00 378.90 L 297.40 379.90 L 299.30 376.60 L 301.50 373.40 L 304.10 370.60 L 307.00 368.00 L 310.20 365.90 L 313.60 364.10 L 317.10 362.70 L 320.90 361.70 L 324.70 361.20 L 328.50 361.10 L 332.30 361.50 L 336.10 362.30 L 339.80 363.50 L 343.20 365.20 L 346.50 367.20 L 349.50 369.60 L 352.20 372.40 L 354.50 375.40 L 356.50 378.70 L 358.10 382.20 L 359.30 385.90 L 360.00 389.70 L 360.30 393.50 L 360.20 397.40 L 359.60 401.20 L 358.50 404.90 L 357.10 408.40 L 355.20 411.80 L 353.00 414.90 L 350.40 417.80 L 347.50 420.30 L 344.30 422.50 L 349.00 405.10 L 348.00 409.10 L 346.70 412.90 L 344.80 416.50 L 342.60 419.80 L 340.00 422.80 L 336.90 425.60 L 339.80 408.30 L 339.00 412.30 L 337.70 416.10 L 335.70 419.80 L 333.20 423.00 L 330.30 425.80 L 326.90 428.20 L 330.30 416.10 L 326.30 427.00 L 323.10 433.60 L 318.00 449.30 L 316.30 452.40 L 314.50 454.90 L 313.00 456.20 L 311.30 457.10 L 305.20 458.10 L 301.60 458.30 L 295.60 457.50 L 292.90 456.60 L 288.40 453.90 L 286.60 452.20 L 284.50 449.50 L 282.80 446.50 L 281.30 443.10 L 279.60 437.70 L 278.40 431.90 L 275.40 410.20 Z" fill="#263238" fill-rule="nonzero" node-id="615" stroke="none" target-height="97.19998" target-width="85.899994" target-x="274.4" target-y="361.1"></path><path d="M 320.40 420.20 L 320.40 425.60 L 321.60 430.80 L 323.80 435.70 L 325.30 437.50 L 326.60 438.60 L 328.00 439.10 L 329.40 439.20 L 330.80 438.80 L 332.10 437.90 L 334.30 435.20 L 335.10 433.20 L 335.90 430.20 L 336.30 426.60 L 336.20 422.90 L 335.50 419.40 L 334.60 417.20 L 333.40 415.40 L 331.90 413.90 L 330.10 412.80 L 328.40 412.30 L 326.80 412.30 L 325.20 412.80 L 323.80 413.60 L 321.60 416.30 L 320.40 420.20 Z" fill="#b55b52" fill-rule="nonzero" node-id="617" stroke="none" target-height="26.900024" target-width="15.899994" target-x="320.4" target-y="412.3"></path><path d="M 240.70 623.90 L 223.10 616.40 L 218.70 615.40 L 217.70 615.60 L 223.00 603.50 L 230.90 588.20 L 232.40 584.60 L 234.50 576.90 L 234.70 573.70 L 234.30 570.50 L 233.40 567.30 L 232.00 564.40 L 225.80 556.20 L 224.50 554.90 L 221.50 553.10 L 217.80 552.40 L 215.10 552.50 L 201.70 575.40 L 193.20 591.80 L 189.50 600.00 L 186.30 608.30 L 182.90 619.90 L 182.00 626.20 L 182.30 629.20 L 183.60 633.10 L 186.20 636.80 L 189.60 639.50 L 192.50 641.00 L 198.90 642.80 L 207.00 643.60 L 212.30 643.60 L 222.70 642.80 L 227.70 641.90 L 232.00 640.70 L 236.90 638.50 L 238.60 637.30 L 240.00 635.80 L 240.70 634.20 L 241.00 632.40 L 240.70 623.90 Z" fill="#b55b52" fill-rule="nonzero" node-id="619" stroke="none" target-height="91.19995" target-width="59" target-x="182" target-y="552.4"></path><path d="M 238.10 623.20 L 251.40 618.80 L 250.20 642.90 L 246.70 642.70 L 241.60 641.50 L 237.10 639.20 L 233.90 636.10 L 238.10 623.20 Z" fill="#b55b52" fill-rule="nonzero" node-id="621" stroke="none" target-height="24.100037" target-width="17.5" target-x="233.9" target-y="618.8"></path><path d="M 268.10 618.40 L 266.20 638.30 L 250.20 642.90 L 251.40 618.80 L 268.10 618.40 Z" fill="#b55b52" fill-rule="nonzero" node-id="623" stroke="none" target-height="24.5" target-width="17.90001" target-x="250.2" target-y="618.4"></path><path d="M 421.00 640.30 L 414.20 633.60 L 408.60 627.00 L 402.70 619.10 L 395.00 607.70 L 389.90 599.50 L 384.30 589.50 L 372.70 567.50 L 362.70 546.90 L 358.00 536.30 L 386.90 523.90 L 393.70 536.90 L 408.70 563.00 L 430.00 604.50 L 432.60 609.20 L 437.10 615.20 L 418.50 636.70 L 421.00 640.30 Z" fill="#b55b52" fill-rule="nonzero" node-id="625" stroke="none" target-height="116.39996" target-width="79.100006" target-x="358" target-y="523.9"></path><path d="M 445.40 546.50 L 439.80 539.60 L 437.10 529.30 L 454.60 513.10 L 458.30 518.40 L 461.70 523.90 L 462.20 525.30 L 461.60 544.90 L 445.40 546.50 Z" fill="#b55b52" fill-rule="nonzero" node-id="627" stroke="none" target-height="33.400024" target-width="25.100006" target-x="437.1" target-y="513.1"></path><path d="M 437.20 518.20 L 450.30 506.40 L 454.40 513.30 L 437.00 529.40 L 437.20 518.20 Z" fill="#b55b52" fill-rule="nonzero" node-id="629" stroke="none" target-height="23.00003" target-width="17.399994" target-x="437" target-y="506.4"></path><path d="M 445.70 541.60 L 446.00 541.00 L 447.20 542.30 L 450.70 539.40 L 453.70 538.30 L 455.20 538.30 L 458.00 539.30 L 459.40 540.30 L 460.60 541.90 L 461.20 543.70 L 462.00 552.70 L 461.40 573.50 L 459.20 596.20 L 457.00 608.80 L 452.50 622.90 L 450.60 627.30 L 448.30 631.30 L 446.50 633.70 L 444.10 636.10 L 438.40 640.20 L 435.30 641.60 L 432.00 642.50 L 428.60 642.90 L 426.30 642.70 L 424.20 642.10 L 422.10 641.10 L 420.30 639.70 L 418.80 638.10 L 417.60 636.10 L 417.20 634.70 L 417.30 630.40 L 418.00 626.60 L 420.60 617.50 L 425.70 604.40 L 434.00 585.20 L 437.80 574.40 L 440.50 564.40 L 445.70 541.60 Z" fill="#b55b52" fill-rule="nonzero" node-id="631" stroke="none" target-height="104.60004" target-width="44.799988" target-x="417.2" target-y="538.3"></path><path d="M 408.30 539.40 L 434.70 539.10 L 437.90 538.60 L 441.10 537.60 L 443.70 535.70 L 445.90 533.40 L 447.70 530.80 L 450.40 523.50 L 452.10 514.70 L 453.80 501.30 L 455.60 492.40 L 457.10 488.10 L 459.00 484.10 L 462.40 479.30 L 464.50 477.20 L 460.70 477.50 L 441.70 477.90 L 432.30 479.20 L 428.10 480.50 L 425.50 481.70 L 423.20 483.20 L 421.10 485.00 L 420.10 486.50 L 417.60 493.40 L 413.70 508.60 L 409.60 529.50 L 408.30 539.40 Z" fill="#429cfd" fill-rule="nonzero" node-id="633" stroke="none" target-height="62.200012" target-width="56.200012" target-x="408.3" target-y="477.2"></path><g node-id="745"><path d="M 408.30 539.40 L 434.70 539.10 L 437.90 538.60 L 441.10 537.60 L 443.70 535.70 L 445.90 533.40 L 447.70 530.80 L 450.40 523.50 L 452.10 514.70 L 453.80 501.30 L 455.60 492.40 L 457.10 488.10 L 459.00 484.10 L 462.40 479.30 L 464.50 477.20 L 460.70 477.50 L 441.70 477.90 L 432.30 479.20 L 428.10 480.50 L 425.50 481.70 L 423.20 483.20 L 421.10 485.00 L 420.10 486.50 L 417.60 493.40 L 413.70 508.60 L 409.60 529.50 L 408.30 539.40 Z" fill="#ffffff" fill-opacity="0.5" fill-rule="nonzero" group-id="22" node-id="637" stroke="none" target-height="62.200012" target-width="56.200012" target-x="408.3" target-y="477.2"></path></g><path d="M 447.80 505.10 L 446.70 506.60 L 446.00 509.30 L 445.90 511.50 L 447.20 513.80 L 449.80 525.10 L 458.60 520.30 L 450.70 506.20 L 449.40 505.10 L 447.80 505.10 Z" fill="#b55b52" fill-rule="nonzero" node-id="640" stroke="none" target-height="19.99997" target-width="12.700012" target-x="445.9" target-y="505.1"></path><path d="M 248.70 492.60 L 245.90 493.60 L 242.80 495.30 L 239.40 497.90 L 233.00 504.30 L 224.70 514.80 L 219.90 521.80 L 211.20 535.90 L 204.10 548.80 L 197.60 561.60 L 239.00 589.90 L 247.70 577.00 L 256.00 563.80 L 263.80 550.30 L 271.20 536.60 L 273.30 531.40 L 274.80 526.40 L 275.60 521.70 L 275.80 517.00 L 275.50 512.70 L 274.60 508.70 L 273.20 504.90 L 271.50 501.50 L 269.20 498.60 L 266.60 496.20 L 263.60 494.30 L 260.30 492.90 L 254.90 492.00 L 248.70 492.60 Z" fill="#429cfd" fill-rule="nonzero" node-id="642" stroke="none" target-height="97.900024" target-width="78.19998" target-x="197.6" target-y="492"></path><path d="M 278.80 494.20 L 276.70 488.90 L 276.10 486.40 L 276.20 484.30 L 276.70 483.10 L 277.70 482.10 L 279.20 481.30 L 285.60 480.10 L 295.90 479.20 L 308.10 478.80 L 319.70 479.30 L 324.90 480.00 L 330.70 481.80 L 332.60 483.00 L 334.20 484.50 L 335.50 486.30 L 336.50 488.40 L 337.00 490.60 L 337.00 492.90 L 336.60 495.30 L 278.80 494.20 Z" fill="#263238" fill-rule="nonzero" node-id="644" stroke="none" target-height="16.5" target-width="60.899994" target-x="276.1" target-y="478.8"></path><g node-id="746"><path d="M 261.50 529.70 L 232.00 585.10 L 239.00 589.90 L 249.60 574.40 L 261.60 555.30 L 261.50 529.70 Z" fill="#000000" fill-opacity="0.2" fill-rule="nonzero" group-id="23" node-id="648" stroke="none" target-height="60.200012" target-width="29.600006" target-x="232" target-y="529.7"></path></g><path d="M 374.10 520.90 L 374.80 526.60 L 375.20 534.10 L 375.00 543.70 L 369.70 625.40 L 368.40 662.90 L 368.20 684.80 L 250.60 684.80 L 250.70 679.10 L 253.50 650.80 L 254.40 638.40 L 254.80 623.00 L 254.70 612.40 L 253.20 586.90 L 251.80 573.40 L 249.70 558.40 L 246.70 541.60 L 246.40 527.80 L 246.90 505.00 L 247.60 496.30 L 248.40 493.00 L 248.70 492.70 L 260.10 490.90 L 271.60 489.60 L 283.10 488.60 L 299.80 488.00 L 316.50 488.00 L 333.10 488.60 L 336.70 489.20 L 341.00 490.30 L 357.40 496.00 L 360.80 497.50 L 363.60 499.40 L 366.00 501.60 L 368.00 504.20 L 369.70 507.10 L 371.10 510.30 L 372.80 515.40 L 374.10 520.90 Z" fill="#429cfd" fill-rule="nonzero" node-id="651" stroke="none" target-height="196.79999" target-width="128.80002" target-x="246.4" target-y="488"></path><g node-id="747"><path d="M 343.00 543.40 L 345.20 552.90 L 346.90 558.20 L 349.80 565.90 L 353.30 573.70 L 357.20 581.30 L 361.40 588.40 L 365.90 595.10 L 370.30 600.90 L 371.90 570.90 L 343.00 543.40 Z" fill="#000000" fill-opacity="0.2" fill-rule="nonzero" group-id="24" node-id="655" stroke="none" target-height="57.5" target-width="28.899994" target-x="343" target-y="543.4"></path></g><path d="M 334.50 515.50 L 334.40 518.50 L 334.80 522.00 L 335.70 526.10 L 337.80 532.30 L 340.80 539.20 L 344.40 546.20 L 348.30 553.30 L 356.80 566.90 L 364.60 578.40 L 372.70 589.40 L 413.90 561.20 L 408.60 549.60 L 405.80 544.30 L 398.40 531.70 L 393.80 525.10 L 388.70 518.70 L 383.20 512.70 L 378.80 508.60 L 374.70 505.30 L 370.70 502.70 L 366.80 500.60 L 362.70 498.90 L 358.80 497.90 L 355.20 497.30 L 351.90 497.30 L 348.60 497.80 L 345.60 498.90 L 342.90 500.40 L 340.40 502.40 L 338.40 504.80 L 336.80 507.70 L 335.50 511.20 L 334.50 515.50 Z" fill="#429cfd" fill-rule="nonzero" node-id="658" stroke="none" target-height="92.10004" target-width="79.5" target-x="334.4" target-y="497.3"></path><path d="M 469.30 976.30 L 491.30 976.30 L 496.30 925.40 L 474.30 925.40 L 469.30 976.30 Z" fill="#b55b52" fill-rule="nonzero" node-id="660" stroke="none" target-height="50.899963" target-width="27" target-x="469.3" target-y="925.4"></path><g node-id="748"><path d="M 496.00 928.50 L 493.40 954.70 L 471.40 954.70 L 474.00 928.50 L 496.00 928.50 Z" fill="#000000" fill-opacity="0.2" fill-rule="nonzero" group-id="25" node-id="664" stroke="none" target-height="26.200012" target-width="24.600006" target-x="471.4" target-y="928.5"></path></g><path d="M 382.60 976.30 L 404.60 976.30 L 415.70 925.40 L 393.70 925.40 L 382.60 976.30 Z" fill="#b55b52" fill-rule="nonzero" node-id="667" stroke="none" target-height="50.899963" target-width="33.100006" target-x="382.6" target-y="925.4"></path><g node-id="749"><path d="M 393.20 928.10 L 415.20 928.10 L 409.50 954.40 L 387.50 954.40 L 393.20 928.10 Z" fill="#000000" fill-opacity="0.2" fill-rule="nonzero" group-id="26" node-id="671" stroke="none" target-height="26.300049" target-width="27.700012" target-x="387.5" target-y="928.1"></path></g><path d="M 492.60 966.50 L 468.60 966.50 L 467.30 967.10 L 466.70 968.40 L 462.30 993.60 L 462.20 995.10 L 462.60 996.50 L 463.50 997.70 L 464.70 998.60 L 497.50 997.70 L 536.20 998.60 L 538.40 998.30 L 540.20 997.70 L 543.10 995.40 L 544.90 992.50 L 545.60 990.20 L 545.60 988.20 L 545.30 987.00 L 544.00 985.70 L 525.70 981.30 L 514.50 977.90 L 505.30 973.60 L 496.20 967.40 L 494.50 966.70 L 492.60 966.50 Z" fill="#263238" fill-rule="nonzero" node-id="674" stroke="none" target-height="32.099976" target-width="83.39996" target-x="462.2" target-y="966.5"></path><path d="M 510.00 974.60 L 514.00 974.30 L 515.60 973.70 L 516.50 973.00 L 516.90 971.80 L 516.50 970.70 L 514.90 969.50 L 513.40 969.30 L 511.50 969.60 L 507.80 970.80 L 503.00 973.30 L 503.30 974.00 L 510.00 974.60 Z M 513.50 970.40 L 514.50 970.40 L 515.50 971.10 L 515.80 971.90 L 514.80 972.80 L 511.40 973.40 L 504.90 973.10 L 510.50 970.90 L 513.50 970.40 Z" fill="#429cfd" fill-rule="nonzero" node-id="676" stroke="none" target-height="5.299988" target-width="13.900024" target-x="503" target-y="969.3"></path><path d="M 503.40 974.00 L 506.80 971.80 L 509.90 968.60 L 510.90 966.90 L 511.10 965.50 L 510.70 964.60 L 510.10 964.30 L 509.20 964.10 L 507.70 964.20 L 506.40 965.00 L 505.10 966.30 L 504.20 968.10 L 503.20 971.60 L 502.90 973.40 L 503.40 974.00 Z M 508.80 965.10 L 509.70 965.20 L 510.10 965.70 L 509.20 967.80 L 506.90 970.40 L 504.00 972.50 L 504.50 970.10 L 505.50 967.80 L 506.90 965.80 L 508.80 965.10 Z" fill="#429cfd" fill-rule="nonzero" node-id="678" stroke="none" target-height="9.900024" target-width="8.200012" target-x="502.9" target-y="964.1"></path><path d="M 406.20 966.50 L 381.50 966.50 L 380.20 967.10 L 379.60 968.40 L 375.30 993.60 L 375.20 995.10 L 375.60 996.50 L 376.50 997.80 L 377.80 998.60 L 402.20 997.70 L 426.70 998.60 L 428.90 998.30 L 430.70 997.70 L 433.30 995.50 L 434.90 992.60 L 435.30 990.20 L 435.20 988.20 L 434.10 986.20 L 427.40 983.80 L 423.20 981.90 L 419.70 979.60 L 417.20 977.50 L 415.10 975.20 L 409.80 968.00 L 408.10 966.80 L 406.20 966.50 Z" fill="#263238" fill-rule="nonzero" node-id="680" stroke="none" target-height="32.099976" target-width="60.099976" target-x="375.2" target-y="966.5"></path><path d="M 419.10 977.40 L 421.90 977.20 L 424.40 976.00 L 424.70 975.40 L 424.70 974.10 L 423.70 972.70 L 421.40 972.20 L 419.90 972.50 L 416.80 973.70 L 413.00 976.10 L 413.30 976.80 L 419.10 977.40 Z M 421.90 973.20 L 423.10 973.50 L 423.70 974.50 L 423.50 975.30 L 422.80 975.70 L 420.10 976.30 L 414.80 976.00 L 419.30 973.70 L 421.90 973.20 Z" fill="#429cfd" fill-rule="nonzero" node-id="682" stroke="none" target-height="5.200012" target-width="11.700012" target-x="413" target-y="972.2"></path><path d="M 413.60 976.80 L 416.40 974.60 L 419.00 971.40 L 419.70 969.60 L 419.80 968.40 L 419.30 967.40 L 418.20 967.00 L 417.00 967.10 L 416.00 967.60 L 414.90 969.00 L 414.00 970.80 L 412.90 976.30 L 413.10 976.80 L 413.60 976.80 Z M 418.10 967.90 L 418.90 968.10 L 419.10 968.50 L 418.40 970.50 L 416.60 973.10 L 414.20 975.30 L 414.70 972.80 L 415.50 970.50 L 416.80 968.40 L 418.10 967.90 Z" fill="#429cfd" fill-rule="nonzero" node-id="684" stroke="none" target-height="9.799988" target-width="6.899994" target-x="412.9" target-y="967"></path><path d="M 333.00 684.70 L 349.60 692.00 L 377.00 704.90 L 398.60 716.10 L 420.00 728.50 L 429.90 734.90 L 442.00 743.80 L 451.90 752.50 L 455.70 756.80 L 458.60 760.70 L 452.60 797.20 L 445.90 833.10 L 432.90 896.20 L 422.90 940.50 L 383.70 940.50 L 384.00 919.80 L 384.90 899.10 L 386.30 878.50 L 388.30 857.90 L 390.80 837.40 L 393.90 816.90 L 393.90 810.30 L 393.50 804.60 L 392.70 799.60 L 391.50 795.30 L 389.80 791.00 L 387.80 787.10 L 385.40 783.80 L 382.70 780.80 L 379.70 778.20 L 372.70 773.80 L 368.80 772.00 L 363.40 770.00 L 357.50 768.40 L 351.20 767.10 L 341.60 765.70 L 300.60 762.20 L 290.90 760.90 L 284.50 759.80 L 278.60 758.30 L 273.00 756.50 L 265.20 752.90 L 258.60 748.20 L 255.80 745.40 L 253.20 742.20 L 251.00 738.60 L 249.10 734.50 L 247.70 730.30 L 246.70 725.60 L 246.10 720.10 L 246.00 713.90 L 246.30 707.90 L 247.10 701.10 L 248.50 693.40 L 250.60 684.70 L 333.00 684.70 Z" fill="#263238" fill-rule="nonzero" node-id="686" stroke="none" target-height="255.79999" target-width="212.6" target-x="246" target-y="684.7"></path><g node-id="750"><path d="M 405.00 755.60 L 394.10 756.60 L 360.40 761.60 L 378.50 775.80 L 387.90 782.50 L 401.60 791.30 L 409.90 795.60 L 414.30 797.20 L 420.30 798.40 L 423.30 798.60 L 426.10 798.40 L 429.80 797.60 L 437.90 794.60 L 446.10 790.20 L 449.90 787.50 L 453.00 784.60 L 456.30 780.30 L 457.30 778.20 L 457.90 775.90 L 458.00 773.60 L 457.50 771.30 L 456.40 769.10 L 454.90 767.10 L 452.80 765.30 L 447.60 762.30 L 439.40 759.30 L 433.90 758.00 L 422.80 756.40 L 412.70 755.60 L 405.00 755.60 Z" fill="#000000" fill-opacity="0.3" fill-rule="nonzero" group-id="27" node-id="690" stroke="none" target-height="43" target-width="97.600006" target-x="360.4" target-y="755.6"></path></g><path d="M 368.30 684.70 L 398.40 689.70 L 422.80 694.70 L 450.40 701.50 L 464.70 705.70 L 478.90 710.30 L 492.60 715.50 L 501.50 719.30 L 509.80 723.20 L 517.50 727.40 L 520.60 729.50 L 523.10 732.10 L 525.30 735.20 L 527.00 738.50 L 528.40 742.30 L 529.50 746.40 L 530.70 752.80 L 531.50 766.60 L 530.50 802.00 L 529.40 817.80 L 527.70 833.50 L 525.50 849.10 L 522.80 864.60 L 519.50 880.10 L 515.70 895.40 L 511.40 910.50 L 506.60 925.60 L 501.20 940.50 L 468.50 940.50 L 469.20 903.10 L 469.40 859.20 L 469.10 801.10 L 468.70 798.00 L 467.90 795.10 L 466.60 792.30 L 464.80 789.60 L 462.70 787.30 L 457.00 782.80 L 448.50 778.30 L 442.80 776.00 L 429.80 772.20 L 415.10 769.10 L 403.40 767.30 L 391.10 765.90 L 357.70 763.10 L 349.80 761.70 L 342.00 759.80 L 334.30 757.40 L 326.90 754.50 L 319.70 751.00 L 312.70 747.10 L 305.90 742.60 L 299.40 737.70 L 293.40 732.40 L 287.80 726.70 L 282.60 720.60 L 277.80 714.20 L 273.50 707.40 L 269.60 700.40 L 262.70 684.70 L 368.30 684.70 Z" fill="#263238" fill-rule="nonzero" node-id="693" stroke="none" target-height="255.79999" target-width="268.8" target-x="262.7" target-y="684.7"></path><path d="M 509.20 931.70 L 507.00 947.20 L 461.80 947.20 L 460.60 933.40 L 509.20 931.70 Z" fill="#429cfd" fill-rule="nonzero" node-id="695" stroke="none" target-height="15.5" target-width="48.600006" target-x="460.6" target-y="931.7"></path><path d="M 426.70 931.70 L 422.50 947.20 L 377.30 947.20 L 378.10 933.40 L 426.70 931.70 Z" fill="#429cfd" fill-rule="nonzero" node-id="697" stroke="none" target-height="15.5" target-width="49.400024" target-x="377.3" target-y="931.7"></path><path d="M 305.20 762.70 L 272.80 1001.50 L 266.90 1000.60 L 291.90 760.90 L 305.20 762.70 Z" fill="#429cfd" fill-rule="nonzero" node-id="699" stroke="none" target-height="240.59998" target-width="38.30002" target-x="266.9" target-y="760.9"></path><g node-id="751"><path d="M 304.00 771.30 L 272.80 1001.50 L 266.90 1000.60 L 290.90 771.20 L 304.00 771.30 Z" fill="#000000" fill-opacity="0.4" fill-rule="nonzero" group-id="28" node-id="703" stroke="none" target-height="230.29999" target-width="37.100006" target-x="266.9" target-y="771.2"></path></g><path d="M 419.10 771.20 L 235.50 771.20 L 236.20 765.80 L 237.10 763.20 L 239.80 758.50 L 241.60 756.40 L 243.70 754.60 L 248.40 751.90 L 251.00 751.00 L 256.40 750.30 L 400.90 750.40 L 406.20 751.90 L 408.60 753.10 L 413.00 756.40 L 414.80 758.50 L 417.50 763.20 L 418.40 765.80 L 419.10 771.20 Z" fill="#429cfd" fill-rule="nonzero" node-id="706" stroke="none" target-height="20.900024" target-width="183.6" target-x="235.5" target-y="750.3"></path><g node-id="752"><path d="M 419.10 771.20 L 235.50 771.20 L 236.20 765.80 L 237.10 763.20 L 239.80 758.50 L 241.60 756.40 L 243.70 754.60 L 248.40 751.90 L 251.00 751.00 L 256.40 750.30 L 400.90 750.40 L 406.20 751.90 L 408.60 753.10 L 413.00 756.40 L 414.80 758.50 L 417.50 763.20 L 418.40 765.80 L 419.10 771.20 Z" fill="#ffffff" fill-opacity="0.7" fill-rule="nonzero" group-id="29" node-id="710" stroke="none" target-height="20.900024" target-width="183.6" target-x="235.5" target-y="750.3"></path></g><path d="M 244.00 771.20 L 216.30 1003.40 L 222.20 1003.40 L 257.30 771.20 L 244.00 771.20 Z" fill="#429cfd" fill-rule="nonzero" node-id="713" stroke="none" target-height="232.20001" target-width="40.999985" target-x="216.3" target-y="771.2"></path><path d="M 410.60 771.20 L 438.30 1003.40 L 432.40 1003.40 L 397.30 771.20 L 410.60 771.20 Z" fill="#429cfd" fill-rule="nonzero" node-id="715" stroke="none" target-height="232.20001" target-width="41" target-x="397.3" target-y="771.2"></path><g node-id="753"><path d="M 410.60 771.20 L 438.30 1003.40 L 432.40 1003.40 L 397.30 771.20 L 410.60 771.20 Z" fill="#000000" fill-opacity="0.4" fill-rule="nonzero" group-id="30" node-id="719" stroke="none" target-height="232.20001" target-width="41" target-x="397.3" target-y="771.2"></path></g><path d="M 373.60 771.20 L 374.10 1003.40 L 368.20 1003.40 L 360.20 771.20 L 373.60 771.20 Z" fill="#429cfd" fill-rule="nonzero" node-id="722" stroke="none" target-height="232.20001" target-width="13.899994" target-x="360.2" target-y="771.2"></path></svg>