<?xml version="1.0" standalone="no"?><!DOCTYPE svg PUBLIC "-//W3C//DTD SVG 1.1//EN" "http://www.w3.org/Graphics/SVG/1.1/DTD/svg11.dtd"><svg t="1716953423547" class="icon" viewBox="0 0 1024 1024" version="1.1" xmlns="http://www.w3.org/2000/svg" p-id="8194" xmlns:xlink="http://www.w3.org/1999/xlink" width="200" height="200"><path d="M888.439 198.218l0.21-0.217-332.688-123.856c-26.313-9.615-55.267-9.615-81.586 0l-319.687 119.106c-2.428 1.055-4.967 2.111-8.35 3.275-20.080 6.551-33.82 17.018-43.114 28.32l412.052 152.079 411.628-151.971c-17.011-20.4-38.465-26.738-38.465-26.738z" fill="#3451b2" p-id="8195"></path><path d="M720.084 622.742v-296.862l-200.475 73.979v319.474l186.315-75.035c8.558-3.381 14.161-12.051 14.161-21.557z" fill="#3451b2" p-id="8196"></path><path d="M932.085 247.57l-107.687 39.732v335.44c0 52.416-31.179 98.809-79.476 118.255l-225.311 90.99v113.716l388.486-144.574c23.142-8.56 38.78-31.069 38.78-56.219v-445.878c0.001-22.299-6.336-38.887-14.794-51.462z" fill="#3451b2" p-id="8197"></path><path d="M324.414 644.298l186.319 75.142v-319.584l-200.48-73.979v296.864c0 9.506 5.708 18.174 14.161 21.556z" fill="#3451b2" p-id="8198"></path><path d="M285.417 740.997c-48.401-19.449-79.47-65.841-79.47-118.255v-335.44l-107.905-39.839c-11.942 18.176-14.161 36.669-14.474 43.65v453.797c0 25.151 15.425 47.66 38.677 56.219l388.486 144.574v-113.716l-225.315-90.989z" fill="#3451b2" p-id="8199"></path></svg>