<?xml version="1.0" standalone="no"?><!DOCTYPE svg PUBLIC "-//W3C//DTD SVG 1.1//EN" "http://www.w3.org/Graphics/SVG/1.1/DTD/svg11.dtd"><svg height="500" node-id="1" sillyvg="true" template-height="500" template-width="500" version="1.1" viewBox="0 0 500 500" width="500" xmlns="http://www.w3.org/2000/svg" xmlns:xlink="http://www.w3.org/1999/xlink"><defs node-id="22"><clipPath id="XMLID_2_" node-id="7"><path d="M 385.00 334.30 L 88.40 334.30 L 158.80 286.50 L 158.80 162.80 L 159.50 158.90 L 161.40 155.70 L 164.30 153.30 L 167.80 152.00 L 385.00 151.80 L 388.80 152.50 L 392.10 154.40 L 394.50 157.20 L 395.30 158.90 L 396.00 162.80 L 396.00 323.30 L 395.30 327.20 L 394.50 328.90 L 392.10 331.70 L 388.80 333.60 L 385.00 334.30 Z" fill="#000000" fill-rule="nonzero" node-id="25" stroke="none" target-height="182.49998" target-width="307.6" target-x="88.4" target-y="151.8"></path></clipPath></defs><g node-id="66"><g node-id="67"><path d="M 385.00 334.30 L 88.40 334.30 L 158.80 286.50 L 158.80 162.80 L 159.50 158.90 L 161.40 155.70 L 164.30 153.30 L 167.80 152.00 L 385.00 151.80 L 388.80 152.50 L 392.10 154.40 L 394.50 157.20 L 395.30 158.90 L 396.00 162.80 L 396.00 323.30 L 395.30 327.20 L 394.50 328.90 L 392.10 331.70 L 388.80 333.60 L 385.00 334.30 Z" fill="#ff6666" fill-rule="nonzero" group-id="1,2" node-id="35" stroke="none" target-height="182.49998" target-width="307.6" target-x="88.4" target-y="151.8"></path></g><g clip-path="url(#XMLID_2_)" group-id="1,3" node-id="38"><path d="M 99.20 100.60 L 432.30 100.60 L 432.30 186.10 L 99.20 186.10 Z" fill="#ffffff" fill-rule="nonzero" group-id="1,3" node-id="40" stroke="none" target-height="85.50001" target-width="333.09998" target-x="99.2" target-y="100.6"></path></g></g><path d="M 321.40 169.80 L 321.10 171.80 L 320.40 173.50 L 319.20 175.00 L 317.80 176.10 L 316.10 176.80 L 314.10 177.10 L 312.20 176.80 L 310.50 176.10 L 309.00 175.00 L 307.90 173.50 L 307.10 171.80 L 306.90 169.80 L 307.10 167.90 L 307.90 166.20 L 309.00 164.70 L 310.50 163.60 L 312.20 162.80 L 314.10 162.60 L 316.10 162.80 L 317.80 163.60 L 319.20 164.70 L 320.40 166.20 L 321.10 167.90 L 321.40 169.80 Z" fill="#f06361" fill-rule="nonzero" node-id="44" stroke="none" target-height="14.5" target-width="14.5" target-x="306.9" target-y="162.6"></path><path d="M 348.00 169.80 L 347.70 171.80 L 347.00 173.50 L 345.90 175.00 L 344.40 176.10 L 342.70 176.80 L 340.80 177.10 L 338.80 176.80 L 337.10 176.10 L 335.60 175.00 L 334.50 173.50 L 333.80 171.80 L 333.50 169.80 L 333.80 167.90 L 334.50 166.20 L 335.60 164.70 L 337.10 163.60 L 338.80 162.80 L 340.80 162.60 L 342.70 162.80 L 344.40 163.60 L 345.90 164.70 L 347.00 166.20 L 347.70 167.90 L 348.00 169.80 Z" fill="#f8bb3f" fill-rule="nonzero" node-id="46" stroke="none" target-height="14.5" target-width="14.5" target-x="333.5" target-y="162.6"></path><path d="M 374.60 169.80 L 374.40 171.80 L 373.60 173.50 L 372.50 175.00 L 371.00 176.10 L 369.30 176.80 L 367.40 177.10 L 365.40 176.80 L 363.70 176.10 L 362.30 175.00 L 361.10 173.50 L 360.40 171.80 L 360.10 169.80 L 360.40 167.90 L 361.10 166.20 L 362.30 164.70 L 363.70 163.60 L 365.40 162.80 L 367.40 162.60 L 369.30 162.80 L 371.00 163.60 L 372.50 164.70 L 373.60 166.20 L 374.40 167.90 L 374.60 169.80 Z" fill="#2fc843" fill-rule="nonzero" node-id="48" stroke="none" target-height="14.5" target-width="14.5" target-x="360.1" target-y="162.6"></path><path d="M 289.00 257.80 L 348.00 257.80 L 347.20 267.40 L 345.00 276.40 L 342.70 282.10 L 339.90 287.50 L 336.60 292.60 L 332.70 297.30 L 328.50 301.50 L 323.80 305.40 L 318.70 308.70 L 313.30 311.50 L 307.60 313.80 L 303.20 315.10 L 293.90 316.60 L 289.00 316.80 L 279.50 316.00 L 270.50 313.80 L 264.70 311.50 L 259.40 308.70 L 254.30 305.40 L 249.60 301.50 L 245.30 297.30 L 241.50 292.60 L 238.20 287.50 L 235.40 282.10 L 233.10 276.40 L 231.80 272.00 L 230.30 262.70 L 230.10 257.80 L 230.80 248.30 L 233.10 239.30 L 235.40 233.60 L 238.20 228.20 L 241.50 223.10 L 245.30 218.40 L 249.60 214.20 L 254.30 210.30 L 259.40 207.00 L 264.70 204.20 L 270.50 201.90 L 274.90 200.60 L 284.20 199.10 L 289.00 198.90 L 289.00 257.80 Z" fill="#ffffff" fill-rule="nonzero" node-id="50" stroke="none" target-height="117.899994" target-width="117.899994" target-x="230.1" target-y="198.9"></path><path d="M 292.20 254.80 L 292.10 195.90 L 301.70 196.70 L 310.70 198.90 L 316.50 201.20 L 321.80 204.00 L 326.90 207.30 L 331.60 211.10 L 335.90 215.40 L 339.70 220.10 L 343.00 225.20 L 345.80 230.50 L 348.10 236.30 L 349.40 240.70 L 350.90 250.00 L 351.10 254.80 L 292.20 254.80 Z" fill="#ffffff" fill-rule="nonzero" node-id="52" stroke="none" target-height="58.90001" target-width="59" target-x="292.1" target-y="195.9"></path><path d="M 180.20 200.50 L 211.60 200.50 L 211.60 231.90 L 180.20 231.90 Z" fill="#ffffff" fill-rule="nonzero" node-id="54" stroke="none" target-height="31.399994" target-width="31.40001" target-x="180.2" target-y="200.5"></path><path d="M 180.20 244.30 L 211.60 244.30 L 211.60 275.70 L 180.20 275.70 Z" fill="#ffffff" fill-rule="nonzero" node-id="56" stroke="none" target-height="31.40001" target-width="31.40001" target-x="180.2" target-y="244.3"></path><path d="M 231.90 293.60 L 181.20 293.60 L 180.50 293.30 L 180.20 292.60 L 180.50 291.30 L 181.20 291.00 L 231.90 291.00 L 232.60 291.30 L 232.90 292.00 L 232.60 293.30 L 231.90 293.60 Z" fill="#ffffff" fill-rule="nonzero" node-id="58" stroke="none" target-height="2.600006" target-width="52.699997" target-x="180.2" target-y="291"></path><path d="M 231.90 302.20 L 181.20 302.20 L 180.50 301.90 L 180.20 301.20 L 180.50 299.90 L 181.20 299.60 L 231.90 299.60 L 232.60 299.90 L 232.90 300.60 L 232.60 301.90 L 231.90 302.20 Z" fill="#ffffff" fill-rule="nonzero" node-id="60" stroke="none" target-height="2.600006" target-width="52.699997" target-x="180.2" target-y="299.6"></path><path d="M 204.80 310.80 L 181.20 310.80 L 180.50 310.50 L 180.20 309.80 L 180.50 308.50 L 181.20 308.20 L 204.80 308.20 L 205.50 308.50 L 205.80 309.20 L 205.50 310.50 L 204.80 310.80 Z" fill="#ffffff" fill-rule="nonzero" node-id="62" stroke="none" target-height="2.5999756" target-width="25.600006" target-x="180.2" target-y="308.2"></path><path d="M 390.00 326.00 L 188.70 326.00 L 185.30 325.70 L 182.20 324.80 L 179.30 323.40 L 176.70 321.60 L 174.50 319.30 L 172.60 316.70 L 171.20 313.80 L 170.40 310.70 L 170.00 307.30 L 170.00 162.90 L 170.40 159.50 L 171.20 156.40 L 172.60 153.50 L 174.50 150.90 L 176.70 148.60 L 179.30 146.80 L 182.20 145.40 L 185.30 144.50 L 188.70 144.20 L 390.00 144.20 L 393.40 144.50 L 396.60 145.40 L 399.50 146.80 L 402.10 148.60 L 404.30 150.90 L 406.20 153.50 L 407.60 156.40 L 408.40 159.50 L 408.70 162.90 L 408.70 307.30 L 408.40 310.70 L 407.60 313.80 L 406.20 316.70 L 404.30 319.30 L 402.10 321.60 L 399.50 323.40 L 396.60 324.80 L 393.40 325.70 L 390.00 326.00 Z M 188.70 146.80 L 185.80 147.10 L 183.10 147.80 L 180.60 149.00 L 178.40 150.60 L 176.50 152.50 L 174.90 154.80 L 173.70 157.30 L 172.90 160.00 L 172.70 162.90 L 172.70 307.30 L 172.90 310.20 L 173.70 312.90 L 174.90 315.40 L 176.50 317.70 L 178.40 319.60 L 180.60 321.20 L 183.10 322.40 L 185.80 323.10 L 188.70 323.40 L 390.00 323.40 L 392.90 323.10 L 395.60 322.40 L 398.10 321.20 L 400.40 319.60 L 402.30 317.70 L 403.90 315.40 L 405.10 312.90 L 405.80 310.20 L 406.10 307.30 L 406.10 162.90 L 405.80 160.00 L 405.10 157.30 L 403.90 154.80 L 402.30 152.50 L 400.40 150.60 L 398.10 149.00 L 395.60 147.80 L 392.90 147.10 L 390.00 146.80 L 188.70 146.80 Z" fill="#232323" fill-rule="nonzero" node-id="64" stroke="none" target-height="181.8" target-width="238.70001" target-x="170" target-y="144.2"></path></svg>