<?xml version="1.0" standalone="no"?><!DOCTYPE svg PUBLIC "-//W3C//DTD SVG 1.1//EN" "http://www.w3.org/Graphics/SVG/1.1/DTD/svg11.dtd"><svg height="500" node-id="1" sillyvg="true" template-height="500" template-width="500" version="1.1" viewBox="0 0 500 500" width="500" xmlns="http://www.w3.org/2000/svg" xmlns:xlink="http://www.w3.org/1999/xlink"><defs node-id="36"><clipPath id="XMLID_2_" node-id="9"><path d="M 368.80 334.00 L 151.40 334.00 L 148.90 333.70 L 146.50 333.10 L 144.30 332.00 L 142.30 330.60 L 140.60 328.90 L 139.10 326.90 L 138.10 324.70 L 137.40 322.30 L 137.20 319.70 L 137.20 185.10 L 137.40 182.50 L 138.10 180.10 L 139.10 177.90 L 140.60 175.90 L 142.30 174.20 L 144.30 172.80 L 146.50 171.70 L 148.90 171.10 L 151.40 170.90 L 368.80 170.90 L 371.40 171.10 L 373.80 171.70 L 376.00 172.80 L 378.00 174.20 L 379.70 175.90 L 381.10 177.90 L 382.20 180.10 L 382.90 182.50 L 383.10 185.10 L 383.10 319.70 L 382.90 322.30 L 382.20 324.70 L 381.10 326.90 L 379.70 328.90 L 378.00 330.60 L 376.00 332.00 L 373.80 333.10 L 371.40 333.70 L 368.80 334.00 Z" fill="#000000" fill-rule="nonzero" node-id="39" stroke="none" target-height="163.1" target-width="245.90001" target-x="137.2" target-y="170.9"></path></clipPath></defs><g node-id="111"><path d="M 377.20 341.10 L 156.50 341.10 L 153.70 340.80 L 151.10 340.10 L 148.70 339.00 L 146.60 337.40 L 144.80 335.60 L 143.20 333.40 L 142.10 331.10 L 141.40 328.50 L 141.10 325.70 L 141.10 191.70 L 141.40 188.90 L 142.10 186.40 L 143.20 184.00 L 144.80 181.80 L 146.60 180.00 L 148.70 178.50 L 151.10 177.30 L 153.70 176.60 L 156.50 176.40 L 377.20 176.40 L 379.90 176.60 L 382.50 177.30 L 384.90 178.50 L 387.00 180.00 L 388.90 181.80 L 390.40 184.00 L 391.50 186.40 L 392.20 188.90 L 392.50 191.70 L 392.50 325.70 L 392.20 328.50 L 391.50 331.10 L 390.40 333.40 L 388.90 335.60 L 387.00 337.40 L 384.90 339.00 L 382.50 340.10 L 379.90 340.80 L 377.20 341.10 Z" fill="#5a78eb" fill-opacity="0.64" fill-rule="nonzero" group-id="1" node-id="47" stroke="none" target-height="164.70001" target-width="251.4" target-x="141.1" target-y="176.4"></path></g><g node-id="112"><g node-id="113"><g node-id="114"><path d="M 368.80 334.00 L 151.40 334.00 L 148.90 333.70 L 146.50 333.10 L 144.30 332.00 L 142.30 330.60 L 140.60 328.90 L 139.10 326.90 L 138.10 324.70 L 137.40 322.30 L 137.20 319.70 L 137.20 185.10 L 137.40 182.50 L 138.10 180.10 L 139.10 177.90 L 140.60 175.90 L 142.30 174.20 L 144.30 172.80 L 146.50 171.70 L 148.90 171.10 L 151.40 170.90 L 368.80 170.90 L 371.40 171.10 L 373.80 171.70 L 376.00 172.80 L 378.00 174.20 L 379.70 175.90 L 381.10 177.90 L 382.20 180.10 L 382.90 182.50 L 383.10 185.10 L 383.10 319.70 L 382.90 322.30 L 382.20 324.70 L 381.10 326.90 L 379.70 328.90 L 378.00 330.60 L 376.00 332.00 L 373.80 333.10 L 371.40 333.70 L 368.80 334.00 Z" fill="#ffffff" fill-rule="nonzero" group-id="2,3,4" node-id="55" stroke="none" target-height="163.1" target-width="245.90001" target-x="137.2" target-y="170.9"></path></g><g clip-path="url(#XMLID_2_)" group-id="2,3,5" node-id="58"><path d="M 92.80 148.10 L 395.10 148.10 L 395.10 199.60 L 92.80 199.60 Z" fill="#e0e6f8" fill-rule="nonzero" group-id="2,3,5" node-id="60" stroke="none" target-height="51.5" target-width="302.3" target-x="92.8" target-y="148.1"></path></g></g><path d="M 327.30 185.80 L 327.10 187.10 L 325.90 189.20 L 324.90 190.00 L 322.50 190.60 L 321.30 190.50 L 319.10 189.20 L 317.90 187.10 L 317.90 184.60 L 319.10 182.50 L 320.10 181.70 L 322.50 181.00 L 323.80 181.20 L 325.90 182.50 L 326.70 183.50 L 327.30 185.80 Z" fill="#f06361" fill-rule="nonzero" group-id="2" node-id="64" stroke="none" target-height="9.600006" target-width="9.399994" target-x="317.9" target-y="181"></path><path d="M 346.50 185.80 L 345.90 188.20 L 345.10 189.20 L 344.10 190.00 L 341.70 190.60 L 340.50 190.50 L 338.30 189.20 L 337.10 187.10 L 337.10 184.60 L 338.30 182.50 L 340.50 181.20 L 341.70 181.00 L 344.10 181.70 L 345.10 182.50 L 345.90 183.50 L 346.50 185.80 Z" fill="#f8bb3f" fill-rule="nonzero" group-id="2" node-id="66" stroke="none" target-height="9.600006" target-width="9.399994" target-x="337.1" target-y="181"></path><path d="M 365.70 185.80 L 365.50 187.10 L 364.30 189.20 L 363.30 190.00 L 360.90 190.60 L 359.60 190.50 L 357.50 189.20 L 356.30 187.10 L 356.30 184.60 L 357.50 182.50 L 358.50 181.70 L 360.90 181.00 L 362.20 181.20 L 364.30 182.50 L 365.10 183.50 L 365.70 185.80 Z" fill="#2fc843" fill-rule="nonzero" group-id="2" node-id="68" stroke="none" target-height="9.600006" target-width="9.400024" target-x="356.3" target-y="181"></path><path d="M 260.70 211.60 L 256.30 221.70 L 253.90 226.10 L 250.80 231.10 L 247.30 236.00 L 243.20 240.80 L 240.10 243.70 L 236.80 246.30 L 233.30 248.60 L 229.50 250.40 L 225.50 251.70 L 221.20 252.40 L 250.00 252.40 L 250.00 316.00 L 271.50 316.00 L 271.50 252.40 L 300.30 252.40 L 296.00 251.70 L 292.00 250.40 L 288.20 248.60 L 284.70 246.30 L 281.40 243.70 L 278.30 240.80 L 274.20 236.00 L 270.60 231.10 L 267.50 226.10 L 265.10 221.70 L 260.70 211.60 Z" fill="#fa6464" fill-rule="nonzero" group-id="2" node-id="70" stroke="none" target-height="104.399994" target-width="79.09999" target-x="221.2" target-y="211.6"></path><path d="M 218.80 218.30 L 151.60 218.30 L 151.10 218.10 L 151.10 217.10 L 151.60 216.90 L 218.80 216.90 L 219.20 217.10 L 219.50 217.60 L 219.20 218.10 L 218.80 218.30 Z" fill="#232323" fill-rule="nonzero" group-id="2" node-id="72" stroke="none" target-height="1.4000092" target-width="68.399994" target-x="151.1" target-y="216.9"></path><path d="M 170.80 224.60 L 151.60 224.60 L 151.10 224.40 L 150.90 223.90 L 151.10 223.40 L 170.80 223.20 L 171.30 223.40 L 171.50 223.90 L 170.80 224.60 Z" fill="#232323" fill-rule="nonzero" group-id="2" node-id="74" stroke="none" target-height="1.4000092" target-width="20.600006" target-x="150.9" target-y="223.2"></path><path d="M 218.80 224.60 L 176.80 224.60 L 176.30 224.40 L 176.10 223.90 L 176.30 223.40 L 218.80 223.20 L 219.20 223.40 L 219.50 223.90 L 219.20 224.40 L 218.80 224.60 Z" fill="#232323" fill-rule="nonzero" group-id="2" node-id="76" stroke="none" target-height="1.4000092" target-width="43.399994" target-x="176.1" target-y="223.2"></path><path d="M 182.80 230.90 L 151.60 230.90 L 151.10 230.70 L 151.10 229.70 L 182.80 229.50 L 183.30 229.70 L 183.50 230.20 L 183.30 230.70 L 182.80 230.90 Z" fill="#232323" fill-rule="nonzero" group-id="2" node-id="78" stroke="none" target-height="1.3999939" target-width="32.399994" target-x="151.1" target-y="229.5"></path><path d="M 194.80 237.20 L 151.60 237.20 L 151.10 237.00 L 150.90 236.50 L 151.10 236.00 L 151.60 235.80 L 194.80 235.80 L 195.30 236.00 L 195.50 236.50 L 195.30 237.00 L 194.80 237.20 Z" fill="#232323" fill-rule="nonzero" group-id="2" node-id="80" stroke="none" target-height="1.3999939" target-width="44.600006" target-x="150.9" target-y="235.8"></path><path d="M 158.80 243.50 L 151.60 243.50 L 151.10 243.30 L 150.90 242.80 L 151.10 242.30 L 151.60 242.10 L 158.80 242.10 L 159.30 242.30 L 159.50 242.80 L 158.80 243.50 Z" fill="#232323" fill-rule="nonzero" group-id="2" node-id="82" stroke="none" target-height="1.3999939" target-width="8.600006" target-x="150.9" target-y="242.1"></path><path d="M 203.20 230.90 L 188.80 230.90 L 188.10 230.20 L 188.30 229.70 L 188.80 229.50 L 203.20 229.50 L 203.70 229.70 L 203.90 230.20 L 203.70 230.70 L 203.20 230.90 Z" fill="#232323" fill-rule="nonzero" group-id="2" node-id="84" stroke="none" target-height="1.3999939" target-width="15.799988" target-x="188.1" target-y="229.5"></path><path d="M 235.60 237.20 L 200.80 237.20 L 200.30 237.00 L 200.10 236.50 L 200.30 236.00 L 200.80 235.80 L 235.60 235.80 L 236.00 236.00 L 236.20 236.50 L 235.60 237.20 Z" fill="#232323" fill-rule="nonzero" group-id="2" node-id="86" stroke="none" target-height="1.3999939" target-width="36.09999" target-x="200.1" target-y="235.8"></path><path d="M 205.60 243.50 L 162.40 243.50 L 161.70 242.80 L 161.90 242.30 L 162.40 242.10 L 205.60 242.10 L 206.10 242.30 L 206.30 242.80 L 206.10 243.30 L 205.60 243.50 Z" fill="#232323" fill-rule="nonzero" group-id="2" node-id="88" stroke="none" target-height="1.3999939" target-width="44.600006" target-x="161.7" target-y="242.1"></path><path d="M 341.20 294.40 L 340.90 295.80 L 340.10 297.00 L 338.90 297.80 L 337.50 298.00 L 336.20 297.80 L 335.00 297.00 L 334.20 295.80 L 333.90 294.40 L 334.20 293.00 L 335.00 291.90 L 336.20 291.10 L 337.50 290.80 L 338.90 291.10 L 340.10 291.90 L 340.90 293.00 L 341.20 294.40 Z" fill="#5a78eb" fill-rule="nonzero" group-id="2" node-id="90" stroke="none" target-height="7.200012" target-width="7.3000183" target-x="333.9" target-y="290.8"></path><path d="M 355.20 294.40 L 355.00 295.80 L 354.20 297.00 L 353.00 297.80 L 351.60 298.00 L 350.20 297.80 L 349.10 297.00 L 348.30 295.80 L 348.00 294.40 L 348.30 293.00 L 349.10 291.90 L 350.20 291.10 L 351.60 290.80 L 353.00 291.10 L 354.20 291.90 L 355.00 293.00 L 355.20 294.40 Z" fill="#5a78eb" fill-rule="nonzero" group-id="2" node-id="92" stroke="none" target-height="7.200012" target-width="7.200012" target-x="348" target-y="290.8"></path><path d="M 369.30 294.40 L 369.00 295.80 L 368.30 297.00 L 367.10 297.80 L 365.70 298.00 L 364.30 297.80 L 363.10 297.00 L 362.40 295.80 L 362.10 294.40 L 362.40 293.00 L 363.10 291.90 L 364.30 291.10 L 365.70 290.80 L 367.10 291.10 L 368.30 291.90 L 369.00 293.00 L 369.30 294.40 Z" fill="#5a78eb" fill-rule="nonzero" group-id="2" node-id="94" stroke="none" target-height="7.200012" target-width="7.1999817" target-x="362.1" target-y="290.8"></path><path d="M 341.20 307.30 L 340.90 308.70 L 340.10 309.90 L 338.90 310.60 L 337.50 310.90 L 336.20 310.60 L 335.00 309.90 L 334.20 308.70 L 333.90 307.30 L 334.20 305.90 L 335.00 304.70 L 336.20 304.00 L 337.50 303.70 L 338.90 304.00 L 340.10 304.70 L 340.90 305.90 L 341.20 307.30 Z" fill="#5a78eb" fill-rule="nonzero" group-id="2" node-id="96" stroke="none" target-height="7.1999817" target-width="7.3000183" target-x="333.9" target-y="303.7"></path><path d="M 355.20 307.30 L 355.00 308.70 L 354.20 309.90 L 353.00 310.60 L 351.60 310.90 L 350.20 310.60 L 349.10 309.90 L 348.30 308.70 L 348.00 307.30 L 348.30 305.90 L 349.10 304.70 L 350.20 304.00 L 351.60 303.70 L 353.00 304.00 L 354.20 304.70 L 355.00 305.90 L 355.20 307.30 Z" fill="#5a78eb" fill-rule="nonzero" group-id="2" node-id="98" stroke="none" target-height="7.1999817" target-width="7.200012" target-x="348" target-y="303.7"></path><path d="M 369.30 307.30 L 369.00 308.70 L 368.30 309.90 L 367.10 310.60 L 365.70 310.90 L 364.30 310.60 L 363.10 309.90 L 362.40 308.70 L 362.10 307.30 L 362.40 305.90 L 363.10 304.70 L 364.30 304.00 L 365.70 303.70 L 367.10 304.00 L 368.30 304.70 L 369.00 305.90 L 369.30 307.30 Z" fill="#5a78eb" fill-rule="nonzero" group-id="2" node-id="100" stroke="none" target-height="7.1999817" target-width="7.1999817" target-x="362.1" target-y="303.7"></path><path d="M 341.20 320.20 L 340.90 321.60 L 340.10 322.70 L 338.90 323.50 L 337.50 323.80 L 336.20 323.50 L 335.00 322.70 L 334.20 321.60 L 333.90 320.20 L 334.20 318.80 L 335.00 317.60 L 336.20 316.80 L 337.50 316.60 L 338.90 316.80 L 340.10 317.60 L 340.90 318.80 L 341.20 320.20 Z" fill="#5a78eb" fill-rule="nonzero" group-id="2" node-id="102" stroke="none" target-height="7.1999817" target-width="7.3000183" target-x="333.9" target-y="316.6"></path><path d="M 355.20 320.20 L 355.00 321.60 L 354.20 322.70 L 353.00 323.50 L 351.60 323.80 L 350.20 323.50 L 349.10 322.70 L 348.30 321.60 L 348.00 320.20 L 348.30 318.80 L 349.10 317.60 L 350.20 316.80 L 351.60 316.60 L 353.00 316.80 L 354.20 317.60 L 355.00 318.80 L 355.20 320.20 Z" fill="#5a78eb" fill-rule="nonzero" group-id="2" node-id="104" stroke="none" target-height="7.1999817" target-width="7.200012" target-x="348" target-y="316.6"></path><path d="M 369.30 320.20 L 369.00 321.60 L 368.30 322.70 L 367.10 323.50 L 365.70 323.80 L 364.30 323.50 L 363.10 322.70 L 362.40 321.60 L 362.10 320.20 L 362.40 318.80 L 363.10 317.60 L 364.30 316.80 L 365.70 316.60 L 367.10 316.80 L 368.30 317.60 L 369.00 318.80 L 369.30 320.20 Z" fill="#5a78eb" fill-rule="nonzero" group-id="2" node-id="106" stroke="none" target-height="7.1999817" target-width="7.1999817" target-x="362.1" target-y="316.6"></path></g><path d="M 335.90 322.80 L 150.70 322.80 L 147.20 322.50 L 143.90 321.90 L 140.70 320.80 L 137.80 319.20 L 135.00 317.40 L 132.60 315.20 L 130.40 312.80 L 128.60 310.10 L 127.10 307.10 L 126.00 303.90 L 125.30 300.60 L 125.10 297.10 L 125.10 181.80 L 125.30 178.30 L 126.00 174.90 L 127.10 171.80 L 128.60 168.80 L 130.40 166.10 L 132.60 163.60 L 135.00 161.50 L 137.80 159.60 L 140.70 158.10 L 143.90 157.00 L 147.20 156.30 L 150.70 156.10 L 335.90 156.10 L 339.40 156.30 L 342.70 157.00 L 345.90 158.10 L 348.80 159.60 L 351.60 161.50 L 354.00 163.60 L 356.20 166.10 L 358.00 168.80 L 359.50 171.80 L 360.60 174.90 L 361.30 178.30 L 361.60 181.80 L 361.60 297.10 L 361.30 300.60 L 360.60 303.90 L 359.50 307.10 L 358.00 310.10 L 356.20 312.80 L 354.00 315.20 L 351.60 317.40 L 348.80 319.20 L 345.90 320.80 L 342.70 321.90 L 339.40 322.50 L 335.90 322.80 Z M 150.70 158.90 L 147.60 159.10 L 141.80 160.60 L 139.20 162.00 L 134.50 165.60 L 130.90 170.20 L 129.60 172.90 L 128.00 178.60 L 127.80 181.80 L 127.80 297.10 L 128.00 300.30 L 128.60 303.20 L 130.90 308.70 L 132.60 311.10 L 136.70 315.20 L 141.80 318.20 L 144.60 319.20 L 150.70 320.00 L 335.90 320.00 L 339.00 319.80 L 342.00 319.20 L 347.40 316.90 L 349.90 315.20 L 354.00 311.10 L 357.00 306.00 L 358.00 303.20 L 358.80 297.10 L 358.80 181.80 L 358.60 178.60 L 358.00 175.60 L 355.70 170.20 L 352.10 165.60 L 347.40 162.00 L 342.00 159.70 L 335.90 158.90 L 150.70 158.90 Z" fill="#232323" fill-rule="nonzero" node-id="109" stroke="none" target-height="166.69998" target-width="236.5" target-x="125.1" target-y="156.1"></path></svg>