<?xml version="1.0" standalone="no"?><!DOCTYPE svg PUBLIC "-//W3C//DTD SVG 1.1//EN" "http://www.w3.org/Graphics/SVG/1.1/DTD/svg11.dtd"><svg height="500" node-id="1" sillyvg="true" template-height="500" template-width="500" version="1.1" viewBox="0 0 500 500" width="500" xmlns="http://www.w3.org/2000/svg" xmlns:xlink="http://www.w3.org/1999/xlink"><defs node-id="33"></defs><g node-id="103"><path d="M 370.50 307.50 L 183.00 307.50 L 177.00 308.00 L 167.90 310.20 L 162.50 312.20 L 155.30 316.10 L 151.70 318.70 L 148.40 321.80 L 145.40 325.30 L 142.80 329.00 L 138.80 336.50 L 134.70 347.00 L 134.70 164.80 L 135.00 162.30 L 135.60 159.90 L 136.60 157.80 L 138.00 155.80 L 141.70 152.80 L 143.80 151.70 L 146.20 151.10 L 148.70 150.80 L 370.50 150.80 L 373.10 151.10 L 375.40 151.70 L 377.50 152.80 L 379.50 154.10 L 381.20 155.80 L 382.60 157.80 L 383.60 159.90 L 384.20 162.30 L 384.50 164.80 L 384.50 293.50 L 384.20 296.00 L 383.60 298.40 L 382.60 300.50 L 381.20 302.50 L 377.50 305.50 L 375.40 306.60 L 373.10 307.20 L 370.50 307.50 Z" fill="#5a78eb" fill-opacity="0.64" fill-rule="nonzero" group-id="1" node-id="38" stroke="none" target-height="196.2" target-width="249.8" target-x="134.7" target-y="150.8"></path></g><path d="M 365.30 301.80 L 177.80 301.80 L 171.80 302.40 L 162.70 304.50 L 157.30 306.60 L 150.10 310.50 L 146.50 313.10 L 143.20 316.20 L 140.20 319.60 L 137.60 323.40 L 133.60 330.80 L 129.50 341.30 L 129.50 159.20 L 129.80 156.60 L 130.40 154.30 L 131.50 152.10 L 132.80 150.20 L 136.50 147.10 L 138.60 146.10 L 141.00 145.40 L 143.50 145.20 L 365.30 145.20 L 367.90 145.40 L 370.20 146.10 L 372.30 147.10 L 374.30 148.50 L 376.00 150.20 L 377.40 152.10 L 378.40 154.30 L 379.00 156.60 L 379.30 159.20 L 379.30 287.90 L 379.00 290.40 L 378.40 292.70 L 377.40 294.90 L 376.00 296.80 L 372.30 299.90 L 370.20 300.90 L 367.90 301.60 L 365.30 301.80 Z" fill="#ffffff" fill-rule="nonzero" node-id="41" stroke="none" target-height="196.09999" target-width="249.79999" target-x="129.5" target-y="145.2"></path><path d="M 194.40 191.10 L 194.20 194.10 L 192.70 199.60 L 191.50 202.10 L 189.30 205.20 L 186.70 207.80 L 183.60 209.90 L 181.10 211.20 L 175.60 212.70 L 172.60 212.90 L 169.50 212.70 L 164.10 211.20 L 161.50 209.90 L 158.50 207.80 L 155.90 205.20 L 153.70 202.10 L 151.50 196.90 L 150.90 194.10 L 150.70 191.10 L 151.50 185.20 L 153.70 180.00 L 155.90 176.90 L 158.50 174.30 L 161.50 172.20 L 164.10 170.90 L 169.50 169.40 L 172.60 169.20 L 175.60 169.40 L 181.10 170.90 L 183.60 172.20 L 186.70 174.30 L 189.30 176.90 L 191.50 180.00 L 192.70 182.50 L 194.20 188.00 L 194.40 191.10 Z" fill="#5a78eb" fill-rule="nonzero" node-id="43" stroke="none" target-height="43.699997" target-width="43.699997" target-x="150.7" target-y="169.2"></path><path d="M 319.20 191.10 L 322.60 198.00 L 330.30 199.10 L 324.70 204.50 L 326.00 212.10 L 319.20 208.50 L 312.40 212.10 L 313.70 204.50 L 308.10 199.10 L 315.80 198.00 Z" fill="#fdd740" fill-rule="nonzero" node-id="45" stroke="#232323" stroke-linecap="butt" stroke-width="0.5" target-height="21" target-width="22.199982" target-x="308.1" target-y="191.1"></path><path d="M 287.70 191.10 L 291.20 198.00 L 298.80 199.10 L 293.30 204.50 L 294.60 212.10 L 287.70 208.50 L 280.90 212.10 L 282.20 204.50 L 276.70 199.10 L 284.30 198.00 Z" fill="#fdd740" fill-rule="nonzero" node-id="47" stroke="#232323" stroke-linecap="butt" stroke-width="0.5" target-height="21" target-width="22.099976" target-x="276.7" target-y="191.1"></path><path d="M 256.30 191.10 L 259.70 198.00 L 267.30 199.10 L 261.80 204.50 L 263.10 212.10 L 256.30 208.50 L 249.40 212.10 L 250.70 204.50 L 245.20 199.10 L 252.90 198.00 Z" fill="#fdd740" fill-rule="nonzero" node-id="49" stroke="#232323" stroke-linecap="butt" stroke-width="0.5" target-height="21" target-width="22.09999" target-x="245.2" target-y="191.1"></path><path d="M 224.80 191.10 L 228.20 198.00 L 235.90 199.10 L 230.30 204.50 L 231.60 212.10 L 224.80 208.50 L 218.00 212.10 L 219.30 204.50 L 213.70 199.10 L 221.40 198.00 Z" fill="#fdd740" fill-rule="nonzero" node-id="51" stroke="#232323" stroke-linecap="butt" stroke-width="0.5" target-height="21" target-width="22.199997" target-x="213.7" target-y="191.1"></path><path d="M 350.70 191.10 L 354.10 198.00 L 361.70 199.10 L 356.20 204.50 L 357.50 212.10 L 350.70 208.50 L 343.80 212.10 L 345.10 204.50 L 339.60 199.10 L 347.20 198.00 Z" fill="#fdd740" fill-rule="nonzero" node-id="53" stroke="#232323" stroke-linecap="butt" stroke-width="0.5" target-height="21" target-width="22.100006" target-x="339.6" target-y="191.1"></path><g node-id="104"><path d="M 161.50 236.80 L 166.00 229.10 L 169.20 229.10 L 165.60 236.80 L 170.30 236.80 L 170.30 245.10 L 161.50 245.10 L 161.50 236.80 Z M 172.30 236.80 L 176.80 229.10 L 180.00 229.10 L 176.50 236.80 L 181.20 236.80 L 181.20 245.10 L 172.30 245.10 L 172.30 236.80 Z" fill="#000000" fill-rule="nonzero" group-id="2" node-id="57" stroke="none" target-height="16" target-width="19.699997" target-x="161.5" target-y="229.1"></path></g><g node-id="105"><path d="M 350.50 274.20 L 346.00 281.80 L 342.80 281.80 L 346.40 274.20 L 341.60 274.20 L 341.60 265.80 L 350.50 265.80 L 350.50 274.20 Z M 339.60 274.20 L 335.10 281.80 L 331.90 281.80 L 335.50 274.20 L 330.80 274.20 L 330.80 265.80 L 339.60 265.80 L 339.60 274.20 Z" fill="#000000" fill-rule="nonzero" group-id="3" node-id="62" stroke="none" target-height="16" target-width="19.700012" target-x="330.8" target-y="265.8"></path></g><path d="M 275.40 248.90 L 192.50 248.90 L 191.40 248.40 L 190.90 247.30 L 190.90 239.20 L 191.40 238.10 L 192.50 237.60 L 275.40 237.60 L 276.50 238.10 L 277.00 239.20 L 277.00 247.30 L 276.50 248.40 L 275.40 248.90 Z" fill="#b7bfdc" fill-rule="nonzero" node-id="65" stroke="#232323" stroke-linecap="butt" stroke-width="0.5" target-height="11.299988" target-width="86.100006" target-x="190.9" target-y="237.6"></path><path d="M 316.30 270.80 L 192.50 270.80 L 191.40 270.30 L 190.90 269.20 L 190.90 261.00 L 191.00 260.40 L 191.90 259.60 L 316.30 259.50 L 317.40 259.90 L 317.90 261.00 L 317.90 269.20 L 317.40 270.30 L 316.30 270.80 Z" fill="#b7bfdc" fill-rule="nonzero" node-id="67" stroke="#232323" stroke-linecap="butt" stroke-width="0.5" target-height="11.299988" target-width="127" target-x="190.9" target-y="259.5"></path><g node-id="106"><path d="M 214.20 172.00 L 280.50 172.00" fill="#b7bfdc" fill-rule="nonzero" group-id="4" node-id="71" stroke="none" target-height="0" target-width="66.3" target-x="214.2" target-y="172"></path><path d="M 280.50 172.40 L 214.20 172.40 L 213.90 171.80 L 280.50 171.70 L 280.90 172.00 L 280.50 172.40 Z" fill="#232323" fill-rule="nonzero" group-id="4" node-id="73" stroke="none" target-height="0.69999695" target-width="67" target-x="213.9" target-y="171.7"></path></g><g node-id="107"><path d="M 214.20 176.90 L 233.90 176.90" fill="#b7bfdc" fill-rule="nonzero" group-id="5" node-id="78" stroke="none" target-height="0" target-width="19.699997" target-x="214.2" target-y="176.9"></path><path d="M 233.90 177.30 L 214.20 177.30 L 213.80 176.90 L 214.20 176.60 L 233.90 176.60 L 234.30 176.90 L 233.90 177.30 Z" fill="#232323" fill-rule="nonzero" group-id="5" node-id="80" stroke="none" target-height="0.69999695" target-width="20.5" target-x="213.8" target-y="176.6"></path></g><g node-id="108"><path d="M 238.20 176.90 L 272.00 176.90" fill="#b7bfdc" fill-rule="nonzero" group-id="6" node-id="85" stroke="none" target-height="0" target-width="33.800003" target-x="238.2" target-y="176.9"></path><path d="M 272.00 177.30 L 238.20 177.30 L 237.90 176.70 L 272.00 176.60 L 272.40 176.90 L 272.00 177.30 Z" fill="#232323" fill-rule="nonzero" group-id="6" node-id="87" stroke="none" target-height="0.69999695" target-width="34.5" target-x="237.9" target-y="176.6"></path></g><g node-id="109"><path d="M 214.20 181.90 L 246.60 181.90" fill="#b7bfdc" fill-rule="nonzero" group-id="7" node-id="92" stroke="none" target-height="0" target-width="32.40001" target-x="214.2" target-y="181.9"></path><path d="M 246.60 182.20 L 214.20 182.20 L 213.80 181.90 L 214.20 181.50 L 246.60 181.50 L 247.00 181.90 L 246.60 182.20 Z" fill="#232323" fill-rule="nonzero" group-id="7" node-id="94" stroke="none" target-height="0.69999695" target-width="33.199997" target-x="213.8" target-y="181.5"></path></g><g node-id="110"><path d="M 250.90 181.90 L 303.10 181.90" fill="#b7bfdc" fill-rule="nonzero" group-id="8" node-id="99" stroke="none" target-height="0" target-width="52.200012" target-x="250.9" target-y="181.9"></path><path d="M 303.10 182.20 L 250.90 182.20 L 250.50 181.90 L 250.90 181.50 L 303.10 181.50 L 303.40 181.90 L 303.10 182.20 Z" fill="#232323" fill-rule="nonzero" group-id="8" node-id="101" stroke="none" target-height="0.69999695" target-width="52.899994" target-x="250.5" target-y="181.5"></path></g></svg>