<?xml version="1.0" standalone="no"?><!DOCTYPE svg PUBLIC "-//W3C//DTD SVG 1.1//EN" "http://www.w3.org/Graphics/SVG/1.1/DTD/svg11.dtd"><svg height="1024" node-id="1" sillyvg="true" template-height="1024" template-width="1024" version="1.1" viewBox="0 0 1024 1024" width="1024" xmlns="http://www.w3.org/2000/svg" xmlns:xlink="http://www.w3.org/1999/xlink"><defs node-id="176"><linearGradient gradientUnits="objectBoundingBox" id="linearGradient1" node-id="178" spreadMethod="pad" x1="0" x2="1" y1="0.418" y2="0.457"><stop offset="0" stop-color="#c3d2ef"></stop><stop offset="1" stop-color="#ffffff"></stop></linearGradient><linearGradient gradientUnits="objectBoundingBox" id="linear-gradient" node-id="5" spreadMethod="pad" x1="0" x2="1" y1="0.418" y2="0.457"><stop offset="0" stop-color="#c3d2ef"></stop><stop offset="1" stop-color="#ffffff"></stop></linearGradient><clipPath id="clip-报表解说-2" node-id="8"><path d="M 0.00 0.00 L 1024.00 0.00 L 1024.00 1024.00 L 0.00 1024.00 Z" fill="#000000" fill-rule="nonzero" node-id="192" stroke="none" target-height="1024" target-width="1024" target-x="0" target-y="0"></path></clipPath><clipPath id="clip-path" node-id="3"><path d="M 0.00 0.00 L 1024.00 0.00 L 1024.00 1024.00 L 0.00 1024.00 Z" fill="#000000" fill-rule="nonzero" id="报表解说" node-id="4" stroke="none" target-height="1024" target-width="1024" target-x="0" target-y="0"></path></clipPath></defs><g clip-path="url(#clip-报表解说-2)" id="报表解说-2" node-id="10"><path d="M 0.00 0.00 L 1024.00 0.00 L 1024.00 1024.00 L 0.00 1024.00 Z" fill="#ffffff" fill-rule="nonzero" node-id="200" stroke="none" target-height="1024" target-width="1024" target-x="0" target-y="0"></path><g clip-path="url(#clip-path)" group-id="1" id="报表解说-3" node-id="12"><path d="M 0.00 0.00 L 1024.00 0.00 L 1024.00 1024.00 L 0.00 1024.00 Z" fill="#ffffff" fill-rule="nonzero" group-id="1,2" id="报表解说-4" node-id="13" stroke="none" target-height="1024" target-width="1024" target-x="0" target-y="0"></path><path d="M 56.30 346.70 L 61.60 332.10 L 64.50 325.60 L 70.90 314.20 L 75.50 307.50 L 80.40 301.50 L 85.60 296.20 L 90.90 291.40 L 96.70 287.00 L 102.70 283.20 L 108.80 279.80 L 115.20 276.80 L 128.40 272.20 L 142.20 269.00 L 151.60 267.70 L 161.00 266.80 L 170.60 266.50 L 189.70 266.90 L 213.10 269.30 L 239.20 273.40 L 271.30 279.30 L 280.00 280.50 L 286.40 280.90 L 331.00 281.40 L 370.70 282.30 L 445.50 285.10 L 502.70 288.20 L 532.80 290.30 L 593.80 295.40 L 624.40 298.50 L 654.50 302.00 L 693.90 307.40 L 731.60 313.70 L 749.50 317.20 L 766.40 320.80 L 783.30 324.80 L 798.80 329.00 L 813.10 333.30 L 823.90 337.00 L 833.70 340.70 L 850.70 348.30 L 858.90 352.60 L 865.90 357.00 L 871.90 361.40 L 877.10 365.80 L 880.90 369.80 L 884.10 373.80 L 886.60 377.90 L 888.50 382.00 L 894.70 402.70 L 897.60 410.70 L 905.40 428.60 L 910.50 438.50 L 915.80 448.00 L 924.20 461.90 L 957.50 513.10 L 964.40 525.00 L 968.60 533.00 L 972.00 540.90 L 974.90 548.50 L 976.60 554.40 L 977.90 560.20 L 978.70 566.00 L 979.00 571.80 L 978.80 577.60 L 978.00 583.40 L 976.70 589.30 L 974.70 595.40 L 972.20 601.10 L 968.90 607.10 L 964.80 613.30 L 947.00 635.70 L 936.00 650.10 L 899.80 700.70 L 891.60 711.50 L 883.50 721.50 L 871.90 734.00 L 865.80 739.80 L 859.30 745.30 L 852.20 750.60 L 844.60 755.70 L 836.60 760.40 L 827.80 765.10 L 811.10 773.00 L 805.00 776.60 L 799.50 780.60 L 794.30 785.00 L 784.70 794.50 L 778.10 802.10 L 764.90 818.20 L 752.90 831.80 L 741.60 842.30 L 735.40 847.20 L 728.40 852.00 L 720.60 856.60 L 714.60 859.70 L 700.70 865.40 L 684.90 870.30 L 666.60 874.20 L 645.70 876.90 L 622.00 878.20 L 595.00 878.20 L 564.70 876.50 L 526.80 872.60 L 492.30 868.00 L 461.80 862.90 L 449.40 860.30 L 426.10 854.70 L 416.80 852.00 L 399.40 846.10 L 392.50 843.30 L 382.70 838.80 L 374.80 834.60 L 367.50 830.20 L 361.50 826.10 L 340.90 810.80 L 335.70 807.60 L 329.70 804.60 L 320.80 801.20 L 315.30 799.70 L 303.30 797.40 L 295.80 796.40 L 287.50 795.80 L 278.80 795.70 L 269.70 796.10 L 251.30 798.00 L 227.60 802.20 L 171.20 814.60 L 158.20 817.10 L 141.40 819.70 L 133.70 820.40 L 126.10 820.70 L 119.10 820.60 L 112.70 819.90 L 107.90 819.00 L 103.60 817.70 L 99.70 816.00 L 96.10 814.00 L 92.70 811.60 L 89.80 808.70 L 87.20 805.30 L 84.90 801.40 L 83.10 797.20 L 81.80 792.40 L 80.70 786.80 L 80.20 780.30 L 79.50 748.30 L 80.20 724.00 L 82.00 705.00 L 87.20 664.90 L 88.20 645.60 L 88.30 633.50 L 87.90 626.30 L 86.90 618.30 L 85.20 609.60 L 82.00 596.50 L 77.70 581.90 L 62.90 533.60 L 57.90 515.60 L 52.10 490.70 L 49.60 477.60 L 47.70 464.40 L 46.20 450.70 L 45.30 436.60 L 45.00 426.00 L 45.10 415.30 L 45.70 404.20 L 46.80 392.90 L 48.30 381.80 L 50.40 370.40 L 53.00 358.70 L 56.30 346.70 Z" fill="#f2f6fe" fill-rule="nonzero" group-id="1,3" id="路径_1166" node-id="14" stroke="none" target-height="611.7" target-width="934" target-x="45" target-y="266.5"></path><path d="M 759.70 184.50 L 759.70 170.20 L 745.40 170.20 L 744.20 169.90 L 743.20 169.30 L 742.50 168.30 L 742.30 167.10 L 742.50 165.90 L 743.20 164.90 L 744.20 164.30 L 745.40 164.00 L 759.70 164.00 L 759.70 149.70 L 760.00 148.50 L 760.60 147.50 L 761.60 146.80 L 762.80 146.60 L 764.00 146.80 L 765.00 147.50 L 765.60 148.50 L 765.90 149.70 L 765.90 164.00 L 780.20 164.00 L 781.40 164.30 L 782.40 164.90 L 783.10 165.90 L 783.30 167.10 L 783.10 168.30 L 782.40 169.30 L 781.40 169.90 L 780.20 170.20 L 765.90 170.20 L 765.90 184.50 L 765.60 185.70 L 765.00 186.70 L 764.00 187.30 L 762.80 187.60 L 761.60 187.30 L 760.60 186.70 L 760.00 185.70 L 759.70 184.50 Z" fill="#d1e6ff" fill-rule="nonzero" group-id="1,4" id="联合_163" node-id="15" stroke="none" target-height="41" target-width="41" target-x="742.3" target-y="146.6"></path><path d="M 896.40 269.20 L 894.20 269.00 L 892.30 268.30 L 890.60 267.20 L 889.20 265.80 L 888.10 264.10 L 887.30 262.10 L 887.10 259.90 L 887.30 257.90 L 888.00 256.00 L 889.00 254.30 L 890.40 252.80 L 892.20 251.60 L 892.30 248.60 L 892.80 246.60 L 893.50 244.70 L 895.70 241.50 L 898.80 239.00 L 900.60 238.10 L 904.70 237.20 L 908.70 237.60 L 912.40 239.20 L 915.40 241.70 L 917.60 245.20 L 920.80 244.50 L 924.10 245.30 L 926.60 247.50 L 927.80 250.60 L 929.50 250.80 L 932.50 251.90 L 934.40 253.40 L 935.80 255.30 L 937.00 258.30 L 937.10 260.00 L 936.90 261.70 L 935.80 264.60 L 934.40 266.50 L 932.50 268.00 L 929.50 269.10 L 927.80 269.20 Z" fill="#e2efff" fill-rule="nonzero" group-id="1,5" id="联合_164" node-id="16" stroke="none" target-height="32.000015" target-width="50" target-x="887.1" target-y="237.2"></path><path d="M 677.40 248.90 L 675.50 248.60 L 674.00 248.00 L 672.60 246.90 L 671.50 245.50 L 670.90 244.00 L 670.60 242.10 L 670.80 240.30 L 671.50 238.70 L 672.60 237.30 L 673.90 236.30 L 675.50 235.60 L 677.40 235.30 L 678.30 233.00 L 680.10 231.40 L 682.50 230.80 L 684.90 231.40 L 686.00 229.40 L 687.50 227.80 L 689.30 226.60 L 691.30 225.80 L 693.50 225.60 L 695.80 225.80 L 697.90 226.50 L 699.80 227.60 L 701.30 229.20 L 702.50 231.00 L 703.20 233.10 L 703.40 236.10 L 705.70 238.00 L 707.00 240.70 L 707.00 243.70 L 705.60 246.40 L 703.30 248.20 L 700.40 248.90 Z" fill="#e2efff" fill-rule="nonzero" group-id="1,6" id="联合_165" node-id="17" stroke="none" target-height="23.299988" target-width="36.400024" target-x="670.6" target-y="225.6"></path><path d="M 436.50 197.70 L 440.00 198.40 L 442.90 200.10 L 445.10 202.70 L 445.80 204.20 L 446.50 207.70 L 446.50 468.80 L 445.80 472.20 L 444.10 475.20 L 441.50 477.40 L 440.00 478.10 L 436.50 478.80 L 140.40 478.80 L 136.90 478.10 L 133.90 476.40 L 131.70 473.80 L 131.00 472.30 L 130.40 468.80 L 130.40 207.70 L 131.00 204.20 L 132.70 201.30 L 135.30 199.10 L 136.90 198.40 L 140.40 197.70 Z" fill="#bcd5fb" fill-rule="nonzero" group-id="1,7,17" id="矩形_1433" node-id="19" stroke="none" target-height="281.09998" target-width="316.1" target-x="130.4" target-y="197.7"></path><path d="M 417.50 217.10 L 421.00 217.70 L 424.00 219.50 L 426.10 222.10 L 426.90 223.60 L 427.50 227.10 L 427.50 450.20 L 426.90 453.70 L 425.10 456.60 L 422.50 458.80 L 421.00 459.60 L 417.50 460.20 L 159.30 460.20 L 155.80 459.60 L 152.90 457.80 L 150.70 455.20 L 150.00 453.70 L 149.30 450.20 L 149.30 227.10 L 150.00 223.60 L 151.70 220.70 L 154.30 218.50 L 155.80 217.70 L 159.30 217.10 Z" fill="#ffffff" fill-rule="nonzero" group-id="1,7,18" id="矩形_1487" node-id="20" stroke="none" target-height="243.1" target-width="278.2" target-x="149.3" target-y="217.1"></path><path d="M 282.70 230.80 L 284.80 231.10 L 286.60 231.90 L 288.20 233.10 L 289.40 234.60 L 290.10 236.50 L 290.40 238.50 L 290.10 240.60 L 289.40 242.40 L 288.20 244.00 L 286.60 245.20 L 284.80 246.00 L 282.70 246.20 L 164.30 246.20 L 162.30 246.00 L 160.40 245.20 L 158.90 244.00 L 157.70 242.40 L 156.90 240.60 L 156.60 238.50 L 156.90 236.50 L 157.70 234.60 L 158.90 233.10 L 160.40 231.90 L 162.30 231.10 L 164.30 230.80 Z" fill="#cfe2fa" fill-rule="nonzero" group-id="1,7,19" id="矩形_1434" node-id="21" stroke="none" target-height="15.399994" target-width="133.79999" target-x="156.6" target-y="230.8"></path><path d="M 414.50 230.80 L 416.60 231.10 L 418.40 231.90 L 420.00 233.10 L 421.20 234.60 L 421.90 236.50 L 422.20 238.50 L 421.90 240.60 L 421.20 242.40 L 420.00 244.00 L 418.40 245.20 L 416.60 246.00 L 414.50 246.20 L 326.10 246.20 L 324.00 246.00 L 322.20 245.20 L 320.60 244.00 L 319.40 242.40 L 318.70 240.60 L 318.40 238.50 L 318.70 236.50 L 319.40 234.60 L 320.60 233.10 L 322.20 231.90 L 324.00 231.10 L 326.10 230.80 Z" fill="#5095fe" fill-rule="nonzero" group-id="1,7,20" id="矩形_1435" node-id="22" stroke="none" target-height="15.399994" target-width="103.80002" target-x="318.4" target-y="230.8"></path><path d="M 314.20 264.40 L 315.80 264.80 L 317.20 265.70 L 318.00 267.00 L 318.40 268.60 L 318.00 270.30 L 317.20 271.60 L 315.80 272.50 L 314.20 272.80 L 160.80 272.80 L 159.20 272.50 L 157.90 271.60 L 157.00 270.30 L 156.60 268.60 L 157.00 267.00 L 157.90 265.70 L 159.20 264.80 L 160.80 264.40 Z" fill="#5095fe" fill-rule="nonzero" group-id="1,7,21" id="矩形_1436" node-id="23" stroke="none" target-height="8.399994" target-width="161.79999" target-x="156.6" target-y="264.4"></path><path d="M 238.30 281.20 L 239.90 281.60 L 241.30 282.50 L 242.20 283.80 L 242.50 285.40 L 242.20 287.10 L 241.30 288.40 L 239.90 289.30 L 238.30 289.60 L 160.80 289.60 L 159.20 289.30 L 157.90 288.40 L 157.00 287.10 L 156.60 285.40 L 157.00 283.80 L 157.90 282.50 L 159.20 281.60 L 160.80 281.20 Z" fill="#5095fe" fill-rule="nonzero" group-id="1,7,22" id="矩形_1437" node-id="24" stroke="none" target-height="8.399994" target-width="85.899994" target-x="156.6" target-y="281.2"></path><path d="M 419.40 307.90 L 420.50 308.10 L 421.40 308.70 L 422.00 309.60 L 422.20 310.70 L 422.00 311.70 L 421.40 312.60 L 420.50 313.20 L 419.40 313.50 L 159.40 313.50 L 158.30 313.20 L 157.40 312.60 L 156.80 311.70 L 156.60 310.70 L 156.80 309.60 L 157.40 308.70 L 158.30 308.10 L 159.40 307.90 Z" fill="#cfe2fa" fill-rule="nonzero" group-id="1,7,23" id="矩形_1438" node-id="25" stroke="none" target-height="5.600006" target-width="265.6" target-x="156.6" target-y="307.9"></path><path d="M 419.40 333.10 L 420.50 333.30 L 421.40 333.90 L 422.00 334.80 L 422.20 335.90 L 422.00 337.00 L 421.40 337.80 L 420.50 338.40 L 419.40 338.70 L 159.40 338.70 L 158.30 338.40 L 157.40 337.80 L 156.80 337.00 L 156.60 335.90 L 156.80 334.80 L 157.40 333.90 L 158.30 333.30 L 159.40 333.10 Z" fill="#cfe2fa" fill-rule="nonzero" group-id="1,7,24" id="矩形_1439" node-id="26" stroke="none" target-height="5.600006" target-width="265.6" target-x="156.6" target-y="333.1"></path><path d="M 419.40 358.30 L 420.50 358.50 L 421.40 359.10 L 422.00 360.00 L 422.20 361.10 L 422.00 362.20 L 421.40 363.00 L 420.50 363.60 L 419.40 363.90 L 159.40 363.90 L 158.30 363.60 L 157.40 363.00 L 156.80 362.20 L 156.60 361.10 L 156.80 360.00 L 157.40 359.10 L 158.30 358.50 L 159.40 358.30 Z" fill="#cfe2fa" fill-rule="nonzero" group-id="1,7,25" id="矩形_1440" node-id="27" stroke="none" target-height="5.600006" target-width="265.6" target-x="156.6" target-y="358.3"></path><path d="M 418.70 382.10 L 420.10 382.30 L 421.20 383.10 L 421.90 384.20 L 422.20 385.60 L 421.90 386.90 L 421.20 388.00 L 420.10 388.80 L 418.70 389.10 L 160.10 389.10 L 158.70 388.80 L 157.60 388.00 L 156.90 386.90 L 156.60 385.60 L 156.90 384.20 L 157.60 383.10 L 158.70 382.30 L 160.10 382.10 Z" fill="#cfe2fa" fill-rule="nonzero" group-id="1,7,26" id="矩形_1441" node-id="28" stroke="none" target-height="7" target-width="265.6" target-x="156.6" target-y="382.1"></path><path d="M 415.20 407.30 L 417.10 407.50 L 418.80 408.20 L 420.20 409.30 L 421.30 410.70 L 422.00 412.40 L 422.20 414.30 L 422.00 416.10 L 421.30 417.80 L 420.20 419.20 L 418.80 420.30 L 417.10 421.00 L 415.20 421.30 L 163.60 421.30 L 161.70 421.00 L 160.10 420.30 L 158.70 419.20 L 157.60 417.80 L 156.90 416.10 L 156.60 414.30 L 156.90 412.40 L 157.60 410.70 L 158.70 409.30 L 160.10 408.20 L 161.70 407.50 L 163.60 407.30 Z" fill="#cfe2fa" fill-rule="nonzero" group-id="1,7,27" id="矩形_1442" node-id="29" stroke="none" target-height="14" target-width="265.6" target-x="156.6" target-y="407.3"></path><path d="M 294.70 421.30 L 296.80 421.50 L 298.60 422.30 L 300.10 423.50 L 301.40 425.10 L 302.10 426.90 L 302.40 429.00 L 302.10 431.00 L 301.40 432.90 L 300.10 434.40 L 298.60 435.60 L 296.80 436.40 L 294.70 436.70 L 164.30 436.70 L 162.30 436.40 L 160.40 435.60 L 158.90 434.40 L 157.70 432.90 L 156.90 431.00 L 156.60 429.00 L 156.90 426.90 L 157.70 425.10 L 158.90 423.50 L 160.40 422.30 L 162.30 421.50 L 164.30 421.30 Z" fill="#cfe2fa" fill-rule="nonzero" group-id="1,7,28" id="矩形_1443" node-id="30" stroke="none" target-height="15.400024" target-width="145.79999" target-x="156.6" target-y="421.3"></path><path d="M 393.30 436.70 L 395.10 436.90 L 396.80 437.60 L 398.20 438.70 L 399.30 440.10 L 400.00 441.80 L 400.30 443.70 L 400.00 445.50 L 399.30 447.20 L 398.20 448.60 L 396.80 449.70 L 395.10 450.40 L 393.30 450.70 L 163.60 450.70 L 161.70 450.40 L 160.10 449.70 L 158.70 448.60 L 157.60 447.20 L 156.90 445.50 L 156.60 443.70 L 156.90 441.80 L 157.60 440.10 L 158.70 438.70 L 160.10 437.60 L 161.70 436.90 L 163.60 436.70 Z" fill="#cfe2fa" fill-rule="nonzero" group-id="1,7,29" id="矩形_1444" node-id="31" stroke="none" target-height="14" target-width="243.69998" target-x="156.6" target-y="436.7"></path><path d="M 172.60 741.30 L 165.30 740.80 L 172.10 644.00 L 179.40 644.50 Z" fill="#919ad5" fill-rule="nonzero" group-id="1,8,30,81" id="矩形_1462" node-id="34" stroke="none" target-height="97.29999" target-width="14.099991" target-x="165.3" target-y="644"></path><path d="M 200.30 741.30 L 193.10 740.80 L 199.80 644.00 L 207.10 644.50 Z" fill="#919ad5" fill-rule="nonzero" group-id="1,8,30,82" id="矩形_1464" node-id="35" stroke="none" target-height="97.29999" target-width="14" target-x="193.1" target-y="644"></path><path d="M 245.40 644.50 L 252.70 644.00 L 259.50 740.90 L 252.20 741.40 Z" fill="#b0b8ee" fill-rule="nonzero" group-id="1,8,30,83" id="矩形_1463" node-id="36" stroke="none" target-height="97.400024" target-width="14.100006" target-x="245.4" target-y="644"></path><path d="M 273.20 644.50 L 280.40 644.00 L 287.20 740.90 L 279.90 741.40 Z" fill="#b0b8ee" fill-rule="nonzero" group-id="1,8,30,84" id="矩形_1465" node-id="37" stroke="none" target-height="97.400024" target-width="14" target-x="273.2" target-y="644"></path><path d="M 134.50 513.80 L 167.50 644.10 L 279.70 643.60 L 248.50 588.90 L 238.20 513.80 Z" fill="#92a1dc" fill-rule="nonzero" group-id="1,8,30,85" id="路径_1216" node-id="38" stroke="none" target-height="130.29999" target-width="145.20001" target-x="134.5" target-y="513.8"></path><path d="M 168.10 646.60 L 165.70 645.80 L 164.80 644.90 L 163.50 642.50 L 130.50 519.40 L 130.30 518.30 L 130.90 516.10 L 132.50 514.50 L 134.60 513.90 L 136.80 514.50 L 138.30 516.10 L 138.70 517.20 L 171.10 638.10 L 278.50 638.10 L 280.20 638.40 L 281.50 639.30 L 282.40 640.70 L 282.70 642.30 L 282.40 644.00 L 281.50 645.30 L 280.20 646.20 L 278.50 646.60 Z" fill="#a7b5f4" fill-rule="nonzero" group-id="1,8,30,86" id="联合_167" node-id="39" stroke="none" target-height="132.69995" target-width="152.40001" target-x="130.3" target-y="513.9"></path><path d="M 240.70 733.60 L 226.80 733.60 L 226.80 713.60 L 240.30 716.20 Z" fill="#c77760" fill-rule="nonzero" group-id="1,8,31,87,147" id="路径_1163" node-id="42" stroke="none" target-height="20" target-width="13.899994" target-x="226.8" target-y="713.6"></path><path d="M 227.00 727.90 L 226.60 744.70 L 272.40 743.90 L 271.40 742.00 L 270.00 740.80 L 264.00 737.30 L 256.40 733.80 L 240.70 727.90 Z" fill="#272f31" fill-rule="nonzero" group-id="1,8,31,87,148" id="路径_1164" node-id="43" stroke="none" target-height="16.799988" target-width="45.799988" target-x="226.6" target-y="727.9"></path><path d="M 295.50 733.60 L 281.60 733.60 L 281.60 713.60 L 295.10 716.20 Z" fill="#c77760" fill-rule="nonzero" group-id="1,8,31,88,149" id="路径_1163-2" node-id="45" stroke="none" target-height="20" target-width="13.899994" target-x="281.6" target-y="713.6"></path><path d="M 281.80 727.90 L 281.40 744.70 L 327.20 743.90 L 326.20 742.00 L 324.80 740.80 L 318.80 737.30 L 311.20 733.80 L 295.50 727.90 Z" fill="#272f31" fill-rule="nonzero" group-id="1,8,31,88,150" id="路径_1164-2" node-id="46" stroke="none" target-height="16.799988" target-width="45.80002" target-x="281.4" target-y="727.9"></path><path d="M 311.60 605.00 L 313.20 606.40 L 313.90 607.90 L 314.40 610.10 L 314.90 614.80 L 314.90 621.60 L 313.60 637.50 L 311.00 656.10 L 307.70 675.50 L 304.20 693.80 L 297.90 723.70 L 279.10 723.70 L 280.70 640.00 L 268.80 640.00 L 240.80 637.30 L 197.90 599.60 L 248.40 582.20 L 256.30 594.40 L 291.80 600.60 L 303.20 602.90 L 311.60 605.00 Z" fill="#121542" fill-rule="nonzero" group-id="1,8,31,89,151" id="路径_1214" node-id="48" stroke="none" target-height="141.5" target-width="117" target-x="197.9" target-y="582.2"></path><path d="M 265.20 612.80 L 266.40 615.20 L 267.10 620.30 L 266.90 626.30 L 266.00 634.40 L 264.70 642.90 L 262.80 652.60 L 258.30 672.70 L 253.30 692.40 L 244.00 725.60 L 225.40 725.60 L 232.20 643.20 L 214.70 641.10 L 202.50 638.70 L 196.70 637.20 L 191.10 635.30 L 186.60 633.20 L 184.00 631.40 L 182.10 629.70 L 181.00 627.90 L 180.10 625.40 L 179.60 622.60 L 179.50 619.60 L 179.80 614.90 L 180.60 610.10 L 183.10 601.30 L 186.70 592.10 L 222.50 599.20 L 231.30 600.70 L 244.90 603.70 L 254.40 606.70 L 258.60 608.50 L 262.40 610.60 L 265.20 612.80 Z" fill="#182260" fill-rule="nonzero" group-id="1,8,31,89,152" id="路径_1215" node-id="49" stroke="none" target-height="133.5" target-width="87.600006" target-x="179.5" target-y="592.1"></path><path d="M 220.70 480.30 L 220.70 500.70 L 205.00 500.70 L 205.00 476.40 L 197.80 465.50 L 195.00 453.40 L 198.20 450.20 L 212.00 442.60 L 229.10 448.50 L 229.40 461.20 L 228.70 469.60 L 228.00 473.30 L 227.20 475.60 L 225.30 478.90 L 224.00 480.00 L 222.50 480.40 L 220.70 480.30 Z" fill="#fbb093" fill-rule="nonzero" group-id="1,8,31,90" id="路径_1201" node-id="50" stroke="none" target-height="58.100006" target-width="34.399994" target-x="195" target-y="442.6"></path><path d="M 234.40 445.80 L 234.30 443.80 L 233.30 440.80 L 232.00 438.90 L 228.40 436.20 L 226.60 435.30 L 222.10 434.00 L 210.60 433.80 L 204.00 434.80 L 201.60 435.90 L 199.00 437.90 L 196.60 440.40 L 194.60 443.30 L 193.30 446.40 L 192.80 448.60 L 192.90 452.80 L 194.10 457.30 L 195.70 461.60 L 197.70 465.70 L 200.00 468.80 L 200.30 468.70 L 200.40 467.80 L 198.50 460.20 L 198.80 457.50 L 199.50 456.80 L 201.50 456.80 L 203.20 458.20 L 203.90 459.50 L 204.50 462.00 L 205.50 458.20 L 207.30 454.30 L 208.60 452.50 L 210.30 451.30 L 212.30 450.50 L 216.90 450.10 L 222.80 450.90 L 227.30 452.10 L 230.30 452.10 L 232.50 450.80 L 233.30 449.80 L 234.00 448.20 L 234.40 445.80 Z" fill="#1d246a" fill-rule="nonzero" group-id="1,8,31,91" id="路径_1202" node-id="51" stroke="none" target-height="35" target-width="41.59999" target-x="192.8" target-y="433.8"></path><path d="M 201.70 497.30 L 200.20 497.10 L 199.10 497.50 L 198.00 498.20 L 197.10 499.60 L 196.30 501.70 L 195.30 508.60 L 195.20 514.70 L 195.60 522.40 L 197.40 539.20 L 200.20 557.00 L 203.40 574.20 L 209.50 602.60 L 220.70 603.00 L 231.60 602.50 L 237.40 601.70 L 243.30 600.60 L 244.50 600.00 L 245.50 598.90 L 246.50 597.30 L 248.00 591.60 L 248.50 582.30 L 248.30 574.30 L 247.60 565.10 L 245.20 545.70 L 242.10 526.50 L 235.60 493.80 L 223.10 491.60 L 222.00 493.60 L 219.30 496.20 L 217.10 497.40 L 214.50 498.20 L 210.90 498.60 L 208.40 498.50 L 201.70 497.30 Z" fill="#4a6ffc" fill-rule="nonzero" group-id="1,8,31,92" id="路径_1204" node-id="52" stroke="none" target-height="111.399994" target-width="53.300003" target-x="195.2" target-y="491.6"></path><path d="M 201.70 497.30 L 200.20 497.10 L 199.00 497.40 L 198.00 498.10 L 197.10 499.40 L 196.30 501.40 L 195.20 507.90 L 195.00 513.80 L 195.30 521.10 L 197.00 537.10 L 199.60 554.20 L 202.60 570.60 L 208.50 597.70 L 218.20 597.80 L 233.20 597.30 L 243.90 596.00 L 248.60 595.00 L 249.80 594.40 L 250.90 593.40 L 251.70 591.80 L 252.40 589.50 L 253.10 582.50 L 253.00 577.60 L 252.40 570.00 L 251.20 561.30 L 247.90 542.90 L 243.80 524.80 L 235.60 493.80 L 223.10 491.60 L 222.00 493.60 L 219.30 496.20 L 217.10 497.40 L 214.50 498.20 L 210.90 498.60 L 208.40 498.50 L 201.70 497.30 Z" fill="#ffffff" fill-rule="nonzero" group-id="1,8,31,93" id="路径_1205" node-id="53" stroke="none" target-height="106.19998" target-width="58.100006" target-x="195" target-y="491.6"></path><path d="M 301.40 478.70 L 301.90 475.50 L 302.00 467.90 L 302.70 466.10 L 303.80 465.90 L 304.90 467.40 L 305.90 471.30 L 306.90 477.10 L 314.80 464.90 L 317.50 461.90 L 318.40 461.50 L 319.90 462.10 L 320.80 463.00 L 323.00 466.80 L 324.50 471.50 L 324.70 473.80 L 324.50 475.50 L 322.80 479.90 L 320.10 485.60 L 315.50 493.10 L 314.40 494.20 L 306.30 499.60 L 301.40 493.30 L 300.80 485.40 L 301.40 478.70 Z" fill="#ffad92" fill-rule="nonzero" group-id="1,8,31,94,153" id="路径_1206" node-id="55" stroke="none" target-height="38.100006" target-width="23.900024" target-x="300.8" target-y="461.5"></path><path d="M 313.90 501.40 L 284.80 546.80 L 281.40 550.50 L 279.60 551.60 L 277.60 552.50 L 274.60 552.70 L 272.90 552.30 L 269.60 550.20 L 260.80 540.20 L 248.60 526.80 L 258.70 581.90 L 258.90 586.00 L 258.70 588.90 L 258.00 591.70 L 256.60 594.70 L 255.40 596.50 L 253.60 598.10 L 251.40 599.60 L 247.90 601.20 L 243.00 602.40 L 240.20 602.20 L 238.90 601.50 L 238.80 585.50 L 238.20 569.40 L 236.10 545.10 L 233.60 528.60 L 230.40 513.70 L 228.70 507.40 L 226.60 501.70 L 224.60 497.40 L 223.00 495.00 L 221.50 493.40 L 220.10 492.50 L 225.30 491.80 L 235.10 491.50 L 238.90 491.70 L 242.30 492.30 L 243.90 492.80 L 252.50 502.50 L 272.90 527.70 L 300.80 490.90 Z" fill="#182164" fill-rule="nonzero" group-id="1,8,31,94,154" id="路径_1207" node-id="56" stroke="none" target-height="111.50003" target-width="93.79999" target-x="220.1" target-y="490.9"></path><path d="M 227.10 493.30 L 234.80 502.80 L 235.90 505.00 L 235.00 506.70 L 230.60 512.00 L 238.30 518.70 L 237.50 556.40 L 224.50 504.90 L 222.10 495.90 L 220.10 490.90 L 221.90 490.90 L 224.80 491.90 L 227.10 493.30 Z" fill="#3e63ef" fill-rule="nonzero" group-id="1,8,31,94,155" id="路径_1208" node-id="57" stroke="none" target-height="65.50003" target-width="18.199997" target-x="220.1" target-y="490.9"></path><path d="M 207.20 608.90 L 183.80 607.90 L 186.00 579.10 L 154.80 565.20 L 153.40 564.10 L 151.30 561.40 L 150.20 558.70 L 149.60 555.90 L 149.60 553.10 L 150.50 547.50 L 151.70 543.70 L 155.80 534.80 L 163.20 521.90 L 167.70 514.70 L 177.60 500.80 L 179.40 499.00 L 182.00 497.30 L 185.40 495.90 L 189.90 494.60 L 196.20 493.60 L 202.50 493.30 L 204.10 493.30 L 205.10 494.30 L 206.70 498.80 L 207.70 502.80 L 211.20 522.10 L 214.30 543.30 L 215.80 556.20 L 216.10 584.00 L 215.80 607.90 L 215.30 608.30 L 213.10 608.70 L 207.20 608.90 Z M 182.80 533.30 L 174.40 544.50 L 171.20 549.30 L 170.00 552.30 L 170.40 553.10 L 173.60 555.10 L 180.70 558.10 L 186.50 560.10 L 182.80 533.30 Z" fill="#19225d" fill-rule="nonzero" group-id="1,8,31,95,156" id="减去_39" node-id="59" stroke="none" target-height="115.60004" target-width="66.5" target-x="149.6" target-y="493.3"></path><path d="M 212.20 566.60 L 206.80 564.60 L 201.90 563.20 L 199.30 563.00 L 196.60 563.30 L 193.30 564.50 L 190.60 566.90 L 188.90 569.70 L 190.70 574.50 L 192.30 576.60 L 193.20 577.00 L 227.60 577.00 L 227.30 575.50 L 224.80 573.00 L 217.20 568.70 L 212.20 566.60 Z" fill="#ffb894" fill-rule="nonzero" group-id="1,8,31,95,157" id="路径_1212" node-id="60" stroke="none" target-height="14" target-width="38.700012" target-x="188.9" target-y="563"></path><path d="M 209.40 508.40 L 211.60 519.20 L 214.90 541.60 L 216.10 556.50 L 216.10 561.90 L 215.60 567.70 L 200.40 524.50 L 204.20 515.40 L 195.60 509.00 L 204.80 493.20 L 207.40 500.70 L 209.40 508.40 Z" fill="#355bff" fill-rule="nonzero" group-id="1,8,31,95,158" id="路径_1213" node-id="61" stroke="none" target-height="74.5" target-width="20.5" target-x="195.6" target-y="493.2"></path><path d="M 192.60 564.60 L 189.70 567.10 L 188.50 568.70 L 187.50 571.90 L 188.10 574.80 L 189.50 577.10 L 190.40 578.10 L 191.30 578.50 L 192.00 578.40 L 193.30 576.60 L 196.20 563.00 L 192.60 564.60 Z" fill="#020937" fill-rule="nonzero" group-id="1,8,31,95,159" id="路径_1211" node-id="62" stroke="none" target-height="15.5" target-width="8.699997" target-x="187.5" target-y="563"></path><path d="M 226.40 502.60 L 215.80 498.30 L 205.40 504.50 L 202.10 492.10 L 215.80 496.30 L 220.90 489.10 Z" fill="#ced0ff" fill-rule="nonzero" group-id="1,8,31,96" id="路径_1203" node-id="63" stroke="none" target-height="15.399994" target-width="24.299988" target-x="202.1" target-y="489.1"></path><path d="M 425.00 764.10 L 425.00 586.70 L 218.50 586.70 L 218.50 764.10 L 205.10 764.10 L 205.10 586.70 L 130.40 586.70 L 130.40 574.40 L 512.00 574.40 L 512.00 586.70 L 438.40 586.70 L 438.40 764.10 Z" fill="#000519" fill-rule="nonzero" group-id="1,9" id="联合_168" node-id="64" stroke="none" target-height="189.69995" target-width="381.6" target-x="130.4" target-y="574.4"></path><path d="M 264.80 574.40 L 264.80 570.00 L 311.50 570.00 L 331.70 527.60 L 357.40 527.60 L 335.10 574.40 Z" fill="#3a5295" fill-rule="nonzero" group-id="1,10" id="联合_169" node-id="65" stroke="none" target-height="46.80005" target-width="92.600006" target-x="264.8" target-y="527.6"></path><path d="M 664.40 266.40 L 667.70 266.70 L 670.70 267.60 L 673.50 268.90 L 676.00 270.70 L 678.20 272.80 L 680.00 275.40 L 681.30 278.10 L 682.10 281.20 L 682.40 284.40 L 682.40 494.00 L 682.10 497.30 L 681.30 500.30 L 680.00 503.10 L 678.20 505.60 L 676.00 507.80 L 673.50 509.50 L 670.70 510.90 L 667.70 511.70 L 664.40 512.00 L 385.20 512.00 L 382.00 511.70 L 378.90 510.90 L 376.20 509.50 L 373.60 507.80 L 371.50 505.60 L 369.70 503.10 L 368.40 500.30 L 367.50 497.30 L 367.20 494.00 L 367.20 284.40 L 367.50 281.20 L 368.40 278.10 L 369.70 275.40 L 371.50 272.80 L 373.60 270.70 L 376.20 268.90 L 378.90 267.60 L 382.00 266.70 L 385.20 266.40 Z" fill="#d6e7ff" fill-rule="nonzero" group-id="1,11,32,97" id="矩形_1433-2" node-id="68" stroke="none" target-height="245.6" target-width="315.2" target-x="367.2" target-y="266.4"></path><path d="M 656.20 278.20 L 658.70 278.40 L 661.10 279.10 L 663.30 280.10 L 665.20 281.50 L 666.90 283.20 L 668.30 285.10 L 669.30 287.30 L 670.00 289.60 L 670.20 292.20 L 670.20 486.20 L 670.00 488.80 L 669.30 491.10 L 668.30 493.30 L 666.90 495.30 L 663.30 498.30 L 661.10 499.40 L 658.70 500.00 L 656.20 500.20 L 391.60 500.20 L 389.10 500.00 L 386.70 499.40 L 384.50 498.30 L 382.60 496.90 L 379.50 493.30 L 378.50 491.10 L 377.90 488.80 L 377.60 486.20 L 377.60 292.20 L 377.90 289.60 L 378.50 287.30 L 379.50 285.10 L 380.90 283.20 L 382.60 281.50 L 384.50 280.10 L 386.70 279.10 L 389.10 278.40 L 391.60 278.20 Z" fill="#ffffff" fill-rule="nonzero" group-id="1,11,32,98" id="矩形_1488" node-id="69" stroke="none" target-height="222" target-width="292.6" target-x="377.6" target-y="278.2"></path><path d="M 403.30 417.00 L 420.80 417.00 L 420.80 471.50 L 403.30 471.50 Z" fill="#458cfb" fill-rule="nonzero" group-id="1,11,33,99" id="矩形_1445" node-id="71" stroke="none" target-height="54.5" target-width="17.5" target-x="403.3" target-y="417"></path><path d="M 448.50 430.40 L 466.00 430.40 L 466.00 471.50 L 448.50 471.50 Z" fill="#458cfb" fill-rule="nonzero" group-id="1,11,33,100" id="矩形_1446" node-id="72" stroke="none" target-height="41.100006" target-width="17.5" target-x="448.5" target-y="430.4"></path><path d="M 494.90 402.60 L 512.40 402.60 L 512.40 471.50 L 494.90 471.50 Z" fill="#458cfb" fill-rule="nonzero" group-id="1,11,33,101" id="矩形_1447" node-id="73" stroke="none" target-height="68.899994" target-width="17.50003" target-x="494.9" target-y="402.6"></path><path d="M 540.10 430.40 L 557.60 430.40 L 557.60 471.50 L 540.10 471.50 Z" fill="#458cfb" fill-rule="nonzero" group-id="1,11,33,102" id="矩形_1448" node-id="74" stroke="none" target-height="41.100006" target-width="17.5" target-x="540.1" target-y="430.4"></path><path d="M 585.40 402.60 L 602.90 402.60 L 602.90 471.50 L 585.40 471.50 Z" fill="#458cfb" fill-rule="nonzero" group-id="1,11,33,103" id="矩形_1449" node-id="75" stroke="none" target-height="68.899994" target-width="17.5" target-x="585.4" target-y="402.6"></path><path d="M 631.70 376.80 L 649.20 376.80 L 649.20 471.50 L 631.70 471.50 Z" fill="#458cfb" fill-rule="nonzero" group-id="1,11,33,104" id="矩形_1450" node-id="76" stroke="none" target-height="94.70001" target-width="17.5" target-x="631.7" target-y="376.8"></path><path d="M 408.20 409.10 L 454.40 422.70 L 499.70 390.50 L 548.20 422.70 L 593.50 390.50 L 637.30 369.00" fill="none" group-id="1,11,33,105" id="路径_1200" node-id="77" stroke="#1e6ce5" stroke-linecap="butt" stroke-width="1" target-height="53.700012" target-width="229.09998" target-x="408.2" target-y="369"></path><path d="M 436.80 368.20 L 432.20 367.90 L 427.70 367.20 L 423.50 365.90 L 419.30 364.10 L 415.50 361.90 L 412.00 359.30 L 408.70 356.30 L 405.80 353.00 L 403.30 349.30 L 401.20 345.40 L 399.50 341.20 L 398.30 336.70 L 397.70 332.10 L 397.50 327.50 L 397.90 323.10 L 398.90 318.70 L 400.20 314.50 L 402.10 310.50 L 404.30 306.70 L 407.00 303.20 L 410.10 300.00 L 413.60 297.20 L 417.30 294.70 L 421.50 292.60 L 425.40 291.30 L 433.00 289.80 L 440.70 289.80 L 448.00 291.20 L 455.00 294.10 L 461.30 298.20 L 466.80 303.50 L 471.20 310.00 L 473.00 313.60 L 474.40 317.50 L 475.90 325.10 L 475.90 332.70 L 474.50 340.10 L 471.60 347.10 L 469.70 350.40 L 465.00 356.30 L 459.20 361.30 L 452.20 365.10 L 444.70 367.40 L 436.80 368.20 Z M 436.80 303.90 L 433.40 304.20 L 430.20 304.80 L 427.10 305.90 L 424.20 307.30 L 421.60 309.10 L 419.20 311.20 L 417.10 313.60 L 415.30 316.30 L 413.80 319.20 L 412.80 322.20 L 412.10 325.50 L 411.90 328.90 L 412.10 332.30 L 412.80 335.50 L 413.80 338.60 L 415.30 341.50 L 417.10 344.10 L 419.20 346.50 L 421.60 348.60 L 424.20 350.40 L 427.10 351.90 L 430.20 353.00 L 433.40 353.60 L 436.80 353.80 L 440.30 353.60 L 443.50 353.00 L 446.60 351.90 L 449.50 350.40 L 452.10 348.60 L 454.50 346.50 L 456.60 344.10 L 458.40 341.50 L 459.80 338.60 L 460.90 335.50 L 461.60 332.30 L 461.80 328.90 L 461.60 325.50 L 460.90 322.20 L 459.80 319.20 L 458.40 316.30 L 456.60 313.60 L 454.50 311.20 L 452.10 309.10 L 449.50 307.40 L 446.60 305.90 L 443.50 304.80 L 440.30 304.20 L 436.80 303.90 Z" fill="#458cfb" fill-rule="nonzero" group-id="1,11,34,106" id="减去_40" node-id="79" stroke="none" target-height="78.400024" target-width="78.399994" target-x="397.5" target-y="289.8"></path><path d="M 437.30 368.20 L 437.30 353.80 L 440.60 353.60 L 443.80 353.00 L 446.90 352.00 L 449.90 350.50 L 452.60 348.70 L 455.10 346.50 L 457.30 344.10 L 459.20 341.40 L 460.60 338.50 L 461.70 335.40 L 462.30 332.20 L 462.50 328.90 L 462.30 325.40 L 461.60 322.20 L 460.50 319.10 L 459.00 316.20 L 457.20 313.60 L 455.10 311.20 L 452.70 309.10 L 450.00 307.30 L 447.10 305.80 L 444.00 304.80 L 440.70 304.10 L 437.30 303.90 L 437.30 289.60 L 445.20 290.30 L 452.80 292.60 L 459.50 296.20 L 465.40 301.10 L 470.30 306.90 L 474.00 313.60 L 476.30 321.10 L 477.10 328.90 L 476.30 336.60 L 474.00 344.20 L 470.30 350.90 L 465.40 356.70 L 459.50 361.50 L 452.80 365.10 L 445.20 367.40 L 437.30 368.20 Z" fill="#fbb245" fill-rule="nonzero" group-id="1,11,34,107" id="减去_42" node-id="80" stroke="none" target-height="78.600006" target-width="39.80002" target-x="437.3" target-y="289.6"></path><path d="M 436.90 368.40 L 436.90 354.00 L 440.20 353.80 L 443.40 353.20 L 446.50 352.10 L 449.40 350.70 L 452.10 348.90 L 454.60 346.70 L 456.90 344.10 L 458.70 341.30 L 460.20 338.30 L 461.20 335.00 L 475.90 335.00 L 474.90 339.80 L 473.30 344.30 L 469.60 351.00 L 464.80 356.90 L 462.00 359.40 L 455.70 363.60 L 448.60 366.70 L 444.80 367.60 L 436.90 368.40 Z" fill="#c62bcb" fill-rule="nonzero" group-id="1,11,34,108" id="减去_45" node-id="81" stroke="none" target-height="33.399994" target-width="39" target-x="436.9" target-y="335"></path><path d="M 601.40 296.60 L 603.30 296.90 L 604.90 297.60 L 606.30 298.70 L 607.40 300.10 L 608.10 301.70 L 608.40 303.60 L 608.10 305.50 L 607.40 307.10 L 606.30 308.50 L 604.90 309.60 L 603.30 310.30 L 601.40 310.60 L 510.60 310.60 L 508.70 310.30 L 507.00 309.60 L 505.60 308.50 L 504.60 307.10 L 503.90 305.50 L 503.60 303.60 L 503.90 301.70 L 504.60 300.10 L 505.60 298.70 L 507.00 297.60 L 508.70 296.90 L 510.60 296.60 Z" fill="#cfe2fa" fill-rule="nonzero" group-id="1,11,35" id="矩形_1489" node-id="82" stroke="none" target-height="14" target-width="104.80002" target-x="503.6" target-y="296.6"></path><path d="M 650.20 324.10 L 651.80 324.60 L 652.70 326.10 L 652.40 327.80 L 651.80 328.40 L 650.20 329.00 L 506.00 329.00 L 504.30 328.20 L 503.60 326.50 L 504.30 324.80 L 506.00 324.10 Z" fill="#cfe2fa" fill-rule="nonzero" group-id="1,11,36" id="矩形_1490" node-id="83" stroke="none" target-height="4.899994" target-width="149.1" target-x="503.6" target-y="324.1"></path><path d="M 650.20 344.00 L 651.80 344.50 L 652.70 346.00 L 652.40 347.70 L 651.10 348.70 L 650.20 348.90 L 506.00 348.90 L 504.30 348.10 L 503.60 346.40 L 504.30 344.70 L 506.00 344.00 Z" fill="#cfe2fa" fill-rule="nonzero" group-id="1,11,37" id="矩形_1491" node-id="84" stroke="none" target-height="4.899994" target-width="149.1" target-x="503.6" target-y="344"></path><path d="M 742.00 349.00 L 957.00 349.00 L 957.00 669.00 L 742.00 669.00 Z" fill="#d0e3fb" fill-rule="nonzero" group-id="1,12,38" id="矩形_1492" node-id="86" stroke="none" target-height="320" target-width="215" target-x="742" target-y="349"></path><path d="M 753.00 364.00 L 946.00 364.00 L 946.00 654.00 L 753.00 654.00 Z" fill="#ffffff" fill-rule="nonzero" group-id="1,12,39" id="矩形_1493" node-id="87" stroke="none" target-height="290" target-width="193" target-x="753" target-y="364"></path><path d="M 742.00 426.00 L 957.00 426.00 L 957.00 439.00 L 742.00 439.00 Z" fill="#d0e3fb" fill-rule="nonzero" group-id="1,12,40" id="矩形_1494" node-id="88" stroke="none" target-height="13" target-width="215" target-x="742" target-y="426"></path><path d="M 742.00 538.00 L 957.00 538.00 L 957.00 551.00 L 742.00 551.00 Z" fill="#d0e3fb" fill-rule="nonzero" group-id="1,12,41" id="矩形_1495" node-id="89" stroke="none" target-height="13" target-width="215" target-x="742" target-y="538"></path><path d="M 753.00 551.00 L 946.00 551.00 L 946.00 654.00 L 753.00 654.00 Z" fill="#e4effc" fill-rule="nonzero" group-id="1,12,42" id="矩形_1511" node-id="90" stroke="none" target-height="103" target-width="193" target-x="753" target-y="551"></path><path d="M 810.00 374.00 L 826.00 374.00 L 826.00 426.00 L 810.00 426.00 Z" fill="#d0e3fb" fill-rule="nonzero" group-id="1,12,43" id="矩形_1496" node-id="91" stroke="none" target-height="52" target-width="16" target-x="810" target-y="374"></path><path d="M 794.00 392.00 L 810.00 392.00 L 810.00 426.00 L 794.00 426.00 Z" fill="#d0e3fb" fill-rule="nonzero" group-id="1,12,44" id="矩形_1497" node-id="92" stroke="none" target-height="34" target-width="16" target-x="794" target-y="392"></path><path d="M 778.00 392.00 L 794.00 392.00 L 794.00 426.00 L 778.00 426.00 Z" fill="#d0e3fb" fill-rule="nonzero" group-id="1,12,45" id="矩形_1500" node-id="93" stroke="none" target-height="34" target-width="16" target-x="778" target-y="392"></path><path d="M 771.10 392.00 L 778.00 393.30 L 771.50 426.70 L 764.60 425.40 Z" fill="#d0e3fb" fill-rule="nonzero" group-id="1,12,46" id="矩形_1501" node-id="94" stroke="none" target-height="34.700012" target-width="13.400024" target-x="764.6" target-y="392"></path><path d="M 831.00 370.00 L 839.00 370.00 L 839.00 426.00 L 831.00 426.00 Z" fill="#d0e3fb" fill-rule="nonzero" group-id="1,12,47" id="矩形_1498" node-id="95" stroke="none" target-height="56" target-width="8" target-x="831" target-y="370"></path><path d="M 887.00 407.00 L 932.00 407.00 L 932.00 426.00 L 887.00 426.00 Z" fill="#d0e3fb" fill-rule="nonzero" group-id="1,12,48" id="矩形_1499" node-id="96" stroke="none" target-height="19" target-width="45" target-x="887" target-y="407"></path><path d="M 887.00 466.00 L 932.00 466.00 L 932.00 538.00 L 887.00 538.00 Z" fill="#d0e3fb" fill-rule="nonzero" group-id="1,12,49" id="矩形_1502" node-id="97" stroke="none" target-height="72" target-width="45" target-x="887" target-y="466"></path><path d="M 871.00 477.00 L 887.00 477.00 L 887.00 538.00 L 871.00 538.00 Z" fill="#d0e3fb" fill-rule="nonzero" group-id="1,12,50" id="矩形_1503" node-id="98" stroke="none" target-height="61" target-width="16" target-x="871" target-y="477"></path><path d="M 863.00 486.00 L 871.00 486.00 L 871.00 538.00 L 863.00 538.00 Z" fill="#d0e3fb" fill-rule="nonzero" group-id="1,12,51" id="矩形_1504" node-id="99" stroke="none" target-height="52" target-width="8" target-x="863" target-y="486"></path><path d="M 753.00 486.00 L 773.00 486.00 L 773.00 538.00 L 753.00 538.00 Z" fill="#d0e3fb" fill-rule="nonzero" group-id="1,12,52" id="矩形_1509" node-id="100" stroke="none" target-height="52" target-width="20" target-x="753" target-y="486"></path><path d="M 773.00 473.00 L 786.00 473.00 L 786.00 538.00 L 773.00 538.00 Z" fill="#d0e3fb" fill-rule="nonzero" group-id="1,12,53" id="矩形_1510" node-id="101" stroke="none" target-height="65" target-width="13" target-x="773" target-y="473"></path><path d="M 844.50 485.90 L 852.20 487.90 L 838.70 538.20 L 831.00 536.10 Z" fill="#d0e3fb" fill-rule="nonzero" group-id="1,12,54" id="矩形_1506" node-id="102" stroke="none" target-height="52.30002" target-width="21.200012" target-x="831" target-y="485.9"></path><path d="M 833.90 485.90 L 841.60 487.90 L 828.10 538.20 L 820.40 536.10 Z" fill="#d0e3fb" fill-rule="nonzero" group-id="1,12,55" id="矩形_1507" node-id="103" stroke="none" target-height="52.30002" target-width="21.199951" target-x="820.4" target-y="485.9"></path><path d="M 820.90 485.90 L 828.60 487.90 L 815.10 538.20 L 807.40 536.10 Z" fill="#d0e3fb" fill-rule="nonzero" group-id="1,12,56" id="矩形_1508" node-id="104" stroke="none" target-height="52.30002" target-width="21.199951" target-x="807.4" target-y="485.9"></path><path d="M 852.00 458.00 L 863.00 458.00 L 863.00 538.00 L 852.00 538.00 Z" fill="#d0e3fb" fill-rule="nonzero" group-id="1,12,57" id="矩形_1505" node-id="105" stroke="none" target-height="80" target-width="11" target-x="852" target-y="458"></path><path d="M 827.00 598.00 L 827.30 596.40 L 828.20 595.20 L 829.40 594.30 L 831.00 594.00 L 832.60 594.30 L 833.80 595.20 L 834.70 596.40 L 835.00 598.00 L 834.70 599.60 L 833.80 600.80 L 832.60 601.70 L 831.00 602.00 L 829.40 601.70 L 828.20 600.80 L 827.30 599.60 L 827.00 598.00 Z" fill="#ffffff" fill-rule="nonzero" group-id="1,12,58" id="椭圆_377" node-id="106" stroke="none" target-height="8" target-width="8" target-x="827" target-y="594"></path><path d="M 864.00 598.00 L 864.30 596.40 L 865.20 595.20 L 866.40 594.30 L 868.00 594.00 L 869.60 594.30 L 870.80 595.20 L 871.70 596.40 L 872.00 598.00 L 871.70 599.60 L 870.80 600.80 L 869.60 601.70 L 868.00 602.00 L 866.40 601.70 L 865.20 600.80 L 864.30 599.60 L 864.00 598.00 Z" fill="#ffffff" fill-rule="nonzero" group-id="1,12,59" id="椭圆_378" node-id="107" stroke="none" target-height="8" target-width="8" target-x="864" target-y="594"></path><path d="M 684.10 597.90 L 684.10 693.70 L 683.00 695.10 L 679.40 697.10 L 671.90 699.10 L 665.90 699.90 L 659.20 700.50 L 649.90 700.70 L 640.60 700.50 L 627.30 699.10 L 619.00 697.10 L 614.50 695.10 L 612.80 693.70 L 612.80 597.90 Z" fill="url(#linearGradient1)" fill-rule="nonzero" group-id="1,13,60" id="路径_1167" node-id="109" stroke="none" target-height="102.79999" target-width="71.29999" target-x="612.8" target-y="597.9"></path><path d="M 612.40 598.20 L 612.70 597.40 L 613.50 596.50 L 615.30 595.50 L 618.30 594.40 L 623.00 593.20 L 634.40 591.70 L 648.40 591.10 L 662.40 591.70 L 673.80 593.20 L 678.50 594.40 L 681.60 595.50 L 683.30 596.50 L 684.10 597.40 L 684.40 598.20 L 684.10 599.10 L 683.30 600.00 L 681.60 601.00 L 678.50 602.10 L 673.80 603.30 L 662.40 604.80 L 648.40 605.30 L 634.40 604.80 L 623.00 603.30 L 618.30 602.10 L 615.30 601.00 L 613.50 600.00 L 612.70 599.10 L 612.40 598.20 Z" fill="#b7bbc2" fill-rule="nonzero" group-id="1,13,61" id="椭圆_359" node-id="110" stroke="none" target-height="14.200012" target-width="72" target-x="612.4" target-y="591.1"></path><path d="M 616.20 601.10 L 616.60 600.50 L 617.70 599.80 L 620.60 598.90 L 625.20 598.10 L 639.30 597.00 L 647.90 596.80 L 656.60 597.00 L 670.70 598.10 L 675.30 598.90 L 678.10 599.80 L 679.30 600.50 L 679.60 601.10 L 679.30 601.70 L 678.10 602.40 L 675.30 603.20 L 670.70 604.10 L 656.60 605.20 L 647.90 605.30 L 639.30 605.20 L 625.20 604.10 L 620.60 603.20 L 617.70 602.40 L 616.60 601.70 L 616.20 601.10 Z" fill="#769be5" fill-rule="nonzero" group-id="1,13,62" id="椭圆_360" node-id="111" stroke="none" target-height="8.5" target-width="63.399963" target-x="616.2" target-y="596.8"></path><path d="M 662.10 575.50 L 661.20 571.70 L 659.60 567.40 L 655.40 562.60 L 654.50 560.90 L 653.10 555.00 L 652.80 548.60 L 653.20 546.10 L 653.80 544.60 L 654.50 543.70 L 657.00 542.60 L 658.70 541.30 L 661.70 537.50 L 662.70 535.20 L 663.10 531.50 L 662.10 529.00 L 660.60 527.50 L 653.40 523.90 L 650.90 521.60 L 649.50 518.20 L 649.10 515.10 L 649.90 503.60 L 649.70 501.50 L 649.20 500.30 L 648.30 499.30 L 647.00 498.50 L 644.70 498.00 L 642.20 497.90 L 639.70 498.40 L 637.20 499.40 L 634.90 500.60 L 632.90 502.20 L 631.30 504.00 L 629.40 507.50 L 628.10 508.90 L 621.90 512.40 L 621.00 513.40 L 620.70 514.40 L 620.90 515.70 L 621.50 517.20 L 625.20 522.70 L 625.80 524.40 L 622.80 526.90 L 620.60 529.90 L 618.80 536.40 L 618.00 537.60 L 614.00 540.70 L 613.30 541.70 L 612.90 543.50 L 613.00 545.70 L 614.50 553.10 L 614.90 557.40 L 614.40 559.70 L 612.40 564.10 L 611.20 572.50 L 611.00 578.20 L 611.20 579.90 L 612.60 582.90 L 613.80 584.00 L 615.40 585.10 L 617.70 586.00 L 623.80 587.30 L 630.00 587.30 L 640.00 586.00 L 651.40 585.30 L 657.30 583.90 L 659.00 583.00 L 661.40 580.80 L 662.00 579.40 L 662.30 577.70 L 662.10 575.50 Z" fill="#adbbb4" fill-rule="nonzero" group-id="1,13,63,109" id="路径_1168" node-id="113" stroke="none" target-height="89.399994" target-width="52.099976" target-x="611" target-y="497.9"></path><path d="M 640.30 505.50 L 637.50 521.30 L 635.20 537.50 L 633.50 556.30 L 633.20 566.00 L 633.60 581.60 L 635.20 592.40 L 636.60 597.40 L 638.30 601.60 L 640.30 605.10" fill="none" group-id="1,13,63,110" id="路径_1169" node-id="114" stroke="#ababab" stroke-linecap="butt" stroke-width="0.6" target-height="99.599976" target-width="7.0999756" target-x="633.2" target-y="505.5"></path><path d="M 645.20 514.90 L 636.90 525.40 L 632.50 519.50" fill="none" group-id="1,13,63,111" id="路径_1170" node-id="115" stroke="#ababab" stroke-linecap="butt" stroke-width="0.6" target-height="10.5" target-width="12.700012" target-x="632.5" target-y="514.9"></path><path d="M 650.60 532.30 L 647.20 533.70 L 644.20 535.70 L 641.50 538.00 L 639.20 540.30 L 634.80 546.10 L 628.90 538.30 L 625.60 534.80" fill="none" group-id="1,13,63,112" id="路径_1171" node-id="116" stroke="#ababab" stroke-linecap="butt" stroke-width="0.6" target-height="13.799988" target-width="25" target-x="625.6" target-y="532.3"></path><path d="M 648.80 554.40 L 646.00 555.70 L 643.10 557.60 L 640.40 559.90 L 638.00 562.20 L 633.00 568.30 L 631.10 564.00 L 627.70 558.30 L 623.70 553.80 L 619.70 551.40" fill="none" group-id="1,13,63,113" id="路径_1172" node-id="117" stroke="#ababab" stroke-linecap="butt" stroke-width="0.6" target-height="16.899963" target-width="29.099976" target-x="619.7" target-y="551.4"></path><path d="M 643.10 574.00 L 641.40 574.50 L 638.00 577.10 L 633.70 583.10 L 621.30 578.30" fill="none" group-id="1,13,63,114" id="路径_1173" node-id="118" stroke="#ababab" stroke-linecap="butt" stroke-width="0.6" target-height="9.099976" target-width="21.799988" target-x="621.3" target-y="574"></path><path d="M 628.00 569.90 L 629.10 565.40 L 631.00 560.30 L 631.80 558.90 L 636.00 554.60 L 636.80 553.00 L 637.70 550.50 L 638.80 544.80 L 639.10 538.80 L 638.80 536.00 L 637.60 532.70 L 636.90 531.90 L 634.70 531.10 L 632.00 529.20 L 630.10 527.20 L 628.50 524.70 L 627.30 522.00 L 626.80 519.40 L 626.80 517.60 L 627.20 516.00 L 628.00 514.60 L 629.70 512.80 L 631.80 511.60 L 638.40 508.60 L 640.30 507.10 L 641.40 505.80 L 643.00 501.80 L 643.50 498.10 L 642.50 484.40 L 642.80 481.90 L 643.40 480.50 L 644.40 479.30 L 645.90 478.40 L 649.60 477.60 L 651.60 477.70 L 654.70 478.30 L 657.60 479.40 L 660.40 480.90 L 662.70 482.70 L 664.60 484.90 L 666.90 489.10 L 668.50 490.70 L 675.80 494.90 L 677.10 496.40 L 677.20 497.30 L 677.00 498.80 L 676.20 500.50 L 671.80 507.10 L 671.20 509.10 L 674.80 512.20 L 677.20 515.40 L 678.10 517.70 L 679.80 524.00 L 681.60 526.00 L 685.20 528.50 L 686.20 530.30 L 686.40 534.50 L 684.60 543.30 L 684.10 548.40 L 684.70 551.10 L 686.50 554.60 L 687.10 556.30 L 688.50 566.40 L 688.80 573.10 L 688.50 575.10 L 686.80 578.60 L 685.50 580.00 L 683.50 581.30 L 680.80 582.40 L 673.50 583.90 L 666.10 583.90 L 654.20 582.40 L 640.70 581.50 L 637.00 580.90 L 633.70 579.80 L 631.70 578.90 L 630.10 577.70 L 628.90 576.20 L 628.10 574.60 L 627.70 572.50 L 628.00 569.90 Z" fill="#cbd7d1" fill-rule="nonzero" group-id="1,13,64,115" id="路径_1168-2" node-id="120" stroke="none" target-height="106.30002" target-width="62" target-x="626.8" target-y="477.6"></path><path d="M 653.90 486.70 L 656.60 501.40 L 660.10 526.00 L 661.90 545.60 L 662.40 565.70 L 662.00 575.10 L 660.50 587.00 L 659.40 592.20 L 657.90 597.30 L 656.00 601.50 L 653.90 605.10" fill="none" group-id="1,13,64,116" id="路径_1169-2" node-id="121" stroke="#707070" stroke-linecap="butt" stroke-width="0.6" target-height="118.39996" target-width="8.5" target-x="653.9" target-y="486.7"></path><path d="M 648.10 497.80 L 658.00 510.40 L 663.20 503.40" fill="none" group-id="1,13,64,117" id="路径_1170-2" node-id="122" stroke="#707070" stroke-linecap="butt" stroke-width="0.6" target-height="12.600006" target-width="15.100037" target-x="648.1" target-y="497.8"></path><path d="M 641.70 518.50 L 646.90 520.90 L 652.50 525.30 L 657.60 530.80 L 660.50 535.00 L 667.50 525.60 L 671.40 521.60" fill="none" group-id="1,13,64,118" id="路径_1171-2" node-id="123" stroke="#707070" stroke-linecap="butt" stroke-width="0.6" target-height="16.5" target-width="29.700012" target-x="641.7" target-y="518.5"></path><path d="M 643.80 544.90 L 646.50 546.00 L 651.90 549.60 L 658.60 556.30 L 662.60 561.30 L 666.60 552.90 L 670.50 547.40 L 672.80 544.90 L 675.50 542.80 L 678.40 541.20" fill="none" group-id="1,13,64,119" id="路径_1172-2" node-id="124" stroke="#707070" stroke-linecap="butt" stroke-width="0.6" target-height="20.099976" target-width="34.600037" target-x="643.8" target-y="541.2"></path><path d="M 650.60 568.20 L 653.30 569.10 L 656.60 571.80 L 658.30 573.80 L 661.70 578.90 L 676.50 573.30" fill="none" group-id="1,13,64,120" id="路径_1173-2" node-id="125" stroke="#707070" stroke-linecap="butt" stroke-width="0.6" target-height="10.700012" target-width="25.900024" target-x="650.6" target-y="568.2"></path><path d="M 495.10 726.30 L 495.10 761.60 L 494.40 762.30 L 491.90 763.30 L 486.70 764.00 L 482.50 764.10 L 473.70 763.50 L 471.00 762.80 L 468.90 761.60 L 468.90 726.30 Z" fill="url(#linear-gradient)" fill-rule="nonzero" group-id="1,14,65" id="路径_1167-2" node-id="127" stroke="none" target-height="37.799988" target-width="26.200012" target-x="468.9" target-y="726.3"></path><path d="M 468.80 726.40 L 469.10 725.80 L 470.60 725.10 L 472.50 724.60 L 478.40 723.90 L 482.00 723.80 L 485.60 723.90 L 491.50 724.60 L 493.40 725.10 L 494.90 725.80 L 495.20 726.40 L 494.90 727.00 L 493.40 727.80 L 491.50 728.30 L 485.60 729.00 L 482.00 729.10 L 478.40 729.00 L 472.50 728.30 L 470.60 727.80 L 469.10 727.00 L 468.80 726.40 Z" fill="#b7bbc2" fill-rule="nonzero" group-id="1,14,66" id="椭圆_359-2" node-id="128" stroke="none" target-height="5.299988" target-width="26.400024" target-x="468.8" target-y="723.8"></path><path d="M 470.10 727.50 L 471.70 726.70 L 475.90 726.10 L 481.80 725.90 L 487.70 726.10 L 491.90 726.70 L 493.20 727.10 L 493.50 727.50 L 493.20 727.80 L 491.90 728.30 L 487.70 728.80 L 481.80 729.00 L 475.90 728.80 L 471.70 728.30 L 470.10 727.50 Z" fill="#769be5" fill-rule="nonzero" group-id="1,14,67" id="椭圆_360-2" node-id="129" stroke="none" target-height="3.0999756" target-width="23.399994" target-x="470.1" target-y="725.9"></path><path d="M 487.00 718.10 L 486.20 715.30 L 484.10 712.40 L 483.60 709.30 L 484.00 706.70 L 486.20 705.10 L 487.30 703.00 L 487.40 701.90 L 487.00 700.90 L 486.30 700.30 L 483.60 699.00 L 482.90 698.20 L 482.40 697.00 L 482.20 695.50 L 482.50 691.40 L 482.30 690.40 L 481.50 689.80 L 480.30 689.50 L 479.10 689.60 L 476.80 690.70 L 475.90 691.50 L 474.80 693.20 L 472.00 695.10 L 471.90 696.20 L 473.70 699.30 L 472.00 700.80 L 471.00 703.80 L 469.20 705.30 L 469.00 706.00 L 469.70 711.10 L 468.60 714.70 L 468.20 719.10 L 468.50 720.30 L 469.20 721.20 L 470.70 721.90 L 473.20 722.40 L 475.20 722.40 L 484.20 721.50 L 485.50 721.00 L 486.50 720.40 L 487.00 719.50 L 487.00 718.10 Z" fill="#adbbb4" fill-rule="nonzero" group-id="1,14,68,121" id="路径_1168-3" node-id="131" stroke="none" target-height="32.900024" target-width="19.199982" target-x="468.2" target-y="689.5"></path><path d="M 479.00 692.30 L 476.80 707.40 L 476.40 717.40 L 477.30 724.80 L 479.00 729.00" fill="none" group-id="1,14,68,122" id="路径_1169-3" node-id="132" stroke="#ababab" stroke-linecap="butt" stroke-width="0.6" target-height="36.700012" target-width="2.600006" target-x="476.4" target-y="692.3"></path><path d="M 480.80 695.80 L 477.70 699.60 L 476.10 697.50" fill="none" group-id="1,14,68,123" id="路径_1170-3" node-id="133" stroke="#ababab" stroke-linecap="butt" stroke-width="0.6" target-height="3.7999878" target-width="4.6999817" target-x="476.1" target-y="695.8"></path><path d="M 482.80 702.20 L 479.80 704.00 L 477.00 707.30 L 473.60 703.10" fill="none" group-id="1,14,68,124" id="路径_1171-3" node-id="134" stroke="#ababab" stroke-linecap="butt" stroke-width="0.6" target-height="5.0999756" target-width="9.199982" target-x="473.6" target-y="702.2"></path><path d="M 482.10 710.30 L 479.40 712.00 L 476.30 715.40 L 474.10 711.40 L 472.90 710.10 L 471.40 709.20" fill="none" group-id="1,14,68,125" id="路径_1172-3" node-id="135" stroke="#ababab" stroke-linecap="butt" stroke-width="0.6" target-height="6.200012" target-width="10.700012" target-x="471.4" target-y="709.2"></path><path d="M 480.00 717.50 L 478.40 718.50 L 476.60 720.90 L 472.00 719.10" fill="none" group-id="1,14,68,126" id="路径_1173-3" node-id="136" stroke="#ababab" stroke-linecap="butt" stroke-width="0.6" target-height="3.4000244" target-width="8" target-x="472" target-y="717.5"></path><path d="M 474.50 716.00 L 475.40 712.70 L 477.40 710.40 L 477.90 709.30 L 478.60 705.60 L 478.30 702.80 L 477.90 702.20 L 475.50 700.60 L 474.10 698.10 L 474.00 696.80 L 474.50 695.60 L 475.40 694.80 L 478.50 693.30 L 479.40 692.40 L 480.00 690.90 L 480.20 689.10 L 480.00 683.40 L 481.10 682.30 L 482.40 682.10 L 483.90 682.20 L 486.70 683.50 L 487.70 684.50 L 489.00 686.50 L 492.40 688.70 L 492.60 689.30 L 492.40 690.00 L 490.40 693.60 L 492.30 695.50 L 493.50 699.10 L 495.60 700.80 L 495.90 701.60 L 495.10 707.70 L 495.30 709.10 L 496.20 710.80 L 496.80 717.20 L 496.50 718.60 L 495.20 720.00 L 493.90 720.60 L 490.10 721.20 L 477.80 720.00 L 475.10 718.80 L 474.40 717.20 L 474.50 716.00 Z" fill="#cbd7d1" fill-rule="nonzero" group-id="1,14,69,127" id="路径_1168-4" node-id="138" stroke="none" target-height="39.100037" target-width="22.799988" target-x="474" target-y="682.1"></path><path d="M 484.00 685.40 L 485.60 694.50 L 486.60 703.40 L 487.10 713.20 L 486.50 722.30 L 485.80 725.00 L 484.00 729.00" fill="none" group-id="1,14,69,128" id="路径_1169-4" node-id="139" stroke="#707070" stroke-linecap="butt" stroke-width="0.6" target-height="43.599976" target-width="3.100006" target-x="484" target-y="685.4"></path><path d="M 481.90 689.50 L 485.50 694.10 L 487.40 691.50" fill="none" group-id="1,14,69,129" id="路径_1170-4" node-id="140" stroke="#707070" stroke-linecap="butt" stroke-width="0.6" target-height="4.5999756" target-width="5.5" target-x="481.9" target-y="689.5"></path><path d="M 479.50 697.10 L 481.40 698.00 L 483.10 699.20 L 486.40 703.20 L 490.40 698.20" fill="none" group-id="1,14,69,130" id="路径_1171-4" node-id="141" stroke="#707070" stroke-linecap="butt" stroke-width="0.6" target-height="6.1000366" target-width="10.899994" target-x="479.5" target-y="697.1"></path><path d="M 480.30 706.80 L 483.60 708.80 L 487.20 712.90 L 489.80 708.00 L 491.30 706.50 L 493.00 705.50" fill="none" group-id="1,14,69,131" id="路径_1172-4" node-id="142" stroke="#707070" stroke-linecap="butt" stroke-width="0.6" target-height="7.4000244" target-width="12.700012" target-x="480.3" target-y="705.5"></path><path d="M 482.80 715.40 L 484.80 716.50 L 486.90 719.30 L 492.30 717.20" fill="none" group-id="1,14,69,132" id="路径_1173-4" node-id="143" stroke="#707070" stroke-linecap="butt" stroke-width="0.6" target-height="3.8999634" target-width="9.5" target-x="482.8" target-y="715.4"></path><path d="M 426.90 506.40 L 429.10 506.70 L 422.70 567.50 L 420.50 567.20 Z" fill="#abb9c5" fill-rule="nonzero" group-id="1,15,70" id="矩形_1485" node-id="145" stroke="none" target-height="61.100006" target-width="8.600006" target-x="420.5" target-y="506.4"></path><path d="M 374.90 456.70 L 376.50 455.10 L 429.10 507.80 L 427.50 509.30 Z" fill="#abb9c5" fill-rule="nonzero" group-id="1,15,71" id="矩形_1486" node-id="146" stroke="none" target-height="54.19998" target-width="54.200012" target-x="374.9" target-y="455.1"></path><path d="M 423.40 508.10 L 423.70 506.60 L 424.60 505.30 L 425.80 504.50 L 427.40 504.10 L 428.90 504.50 L 430.20 505.30 L 431.10 506.60 L 431.40 508.10 L 431.10 509.70 L 430.20 511.00 L 428.90 511.80 L 427.40 512.10 L 425.80 511.80 L 424.60 511.00 L 423.70 509.70 L 423.40 508.10 Z" fill="#56859a" fill-rule="nonzero" group-id="1,15,72" id="椭圆_375" node-id="147" stroke="none" target-height="7.9999695" target-width="8" target-x="423.4" target-y="504.1"></path><path d="M 371.40 456.10 L 371.60 454.70 L 372.30 453.40 L 373.40 452.50 L 374.90 452.10 L 376.30 452.50 L 377.50 453.40 L 378.20 454.70 L 378.40 456.10 L 378.20 457.60 L 377.50 458.90 L 376.30 459.70 L 374.90 460.10 L 373.40 459.70 L 372.30 458.90 L 371.60 457.60 L 371.40 456.10 Z" fill="#56859a" fill-rule="nonzero" group-id="1,15,73" id="椭圆_376" node-id="148" stroke="none" target-height="8" target-width="7" target-x="371.4" target-y="452.1"></path><path d="M 377.20 462.40 L 377.70 463.30 L 377.60 465.10 L 370.30 478.40 L 369.50 479.10 L 368.50 479.30 L 366.50 478.40 L 353.40 464.90 L 352.60 462.90 L 352.80 461.90 L 353.50 461.10 L 365.00 453.70 L 367.00 453.00 L 368.00 453.20 L 368.80 453.70 Z" fill="#506388" fill-rule="nonzero" group-id="1,15,74" id="路径_1223" node-id="149" stroke="none" target-height="26.299988" target-width="25.100006" target-x="352.6" target-y="453"></path><path d="M 439.90 565.10 L 442.10 565.80 L 443.80 567.40 L 444.40 569.60 L 444.40 574.10 L 396.40 574.10 L 396.40 569.60 L 397.00 567.40 L 398.60 565.80 L 400.90 565.10 Z" fill="#688491" fill-opacity="0.9" fill-rule="nonzero" group-id="1,15,75" id="矩形_1484" node-id="150" stroke="none" target-height="9" target-width="48" target-x="396.4" target-y="565.1"></path><path d="M 716.80 729.40 L 729.00 729.40 L 729.00 711.80 L 717.10 714.10 Z" fill="#c77760" fill-rule="nonzero" group-id="1,16,76,133,160" id="路径_1163-3" node-id="154" stroke="none" target-height="17.600037" target-width="12.200012" target-x="716.8" target-y="711.8"></path><path d="M 728.80 724.40 L 729.20 739.10 L 688.90 738.40 L 689.80 736.80 L 691.10 735.70 L 696.30 732.60 L 703.00 729.60 L 716.80 724.40 Z" fill="#272f31" fill-rule="nonzero" group-id="1,16,76,133,161" id="路径_1164-3" node-id="155" stroke="none" target-height="14.699951" target-width="40.299988" target-x="688.9" target-y="724.4"></path><path d="M 799.20 729.40 L 787.00 729.40 L 787.00 711.80 L 798.80 714.10 Z" fill="#c77760" fill-rule="nonzero" group-id="1,16,76,134,162" id="路径_1163-4" node-id="157" stroke="none" target-height="17.600037" target-width="12.200012" target-x="787" target-y="711.8"></path><path d="M 787.20 724.40 L 786.80 739.10 L 827.10 738.40 L 826.20 736.80 L 824.90 735.70 L 819.70 732.60 L 813.00 729.60 L 799.20 724.40 Z" fill="#272f31" fill-rule="nonzero" group-id="1,16,76,134,163" id="路径_1164-4" node-id="158" stroke="none" target-height="14.699951" target-width="40.299988" target-x="786.8" target-y="724.4"></path><path d="M 719.10 618.70 L 718.50 625.30 L 717.20 653.40 L 715.10 716.80 L 721.30 717.50 L 726.30 717.60 L 730.30 716.80 L 731.20 715.20 L 732.60 708.40 L 735.10 688.30 L 741.40 623.60 L 751.20 586.60 L 756.50 568.80 L 757.90 565.80 L 759.20 568.80 L 761.70 576.90 L 774.50 624.30 L 784.30 720.70 L 800.40 720.70 L 800.00 658.30 L 799.20 627.50 L 798.60 618.00 L 790.40 534.70 L 789.10 516.40 L 786.30 516.10 L 778.50 516.60 L 767.60 517.70 L 733.50 522.10 L 719.10 618.70 Z" fill="#1b245d" fill-rule="nonzero" group-id="1,16,76,135" id="路径_1165" node-id="159" stroke="none" target-height="204.60004" target-width="85.30005" target-x="715.1" target-y="516.1"></path><path d="M 753.20 388.50 L 753.00 395.40 L 753.80 400.50 L 754.60 402.90 L 755.90 405.00 L 758.40 406.90 L 760.00 407.40 L 760.40 426.30 L 777.10 426.20 L 777.10 407.50 L 779.70 403.90 L 782.00 400.20 L 783.90 396.20 L 784.90 393.20 L 785.40 388.70 L 785.10 386.20 L 784.00 385.00 L 782.80 384.70 L 781.40 384.90 L 778.90 385.90 L 778.60 383.90 L 777.80 382.50 L 776.70 381.50 L 774.00 380.30 L 771.00 379.90 L 765.00 376.90 L 760.00 375.50 L 758.40 375.80 L 755.10 377.70 L 753.90 378.70 L 753.20 380.00 L 752.80 383.20 L 753.20 388.50 Z" fill="#c37163" fill-rule="nonzero" group-id="1,16,77,136" id="路径_1152" node-id="161" stroke="none" target-height="50.799988" target-width="32.600037" target-x="752.8" target-y="375.5"></path><path d="M 750.30 381.70 L 749.90 380.00 L 749.70 376.80 L 750.70 373.20 L 751.80 371.50 L 755.50 368.70 L 756.70 367.50 L 758.80 364.50 L 760.40 363.30 L 761.90 362.90 L 764.10 363.00 L 765.60 363.40 L 769.10 365.30 L 770.30 365.60 L 776.10 364.50 L 779.20 364.90 L 782.90 366.80 L 784.80 368.30 L 786.40 370.00 L 787.80 372.50 L 789.30 380.80 L 789.40 384.40 L 788.60 389.60 L 787.50 392.60 L 786.10 395.40 L 783.90 398.60 L 780.80 402.00 L 782.10 399.50 L 782.80 394.30 L 782.90 389.80 L 782.70 388.20 L 781.90 386.40 L 780.70 385.90 L 780.00 386.10 L 777.50 388.00 L 776.70 384.50 L 774.30 381.70 L 770.50 380.00 L 762.20 377.40 L 758.80 377.00 L 757.30 377.30 L 756.10 378.20 L 755.20 379.50 L 754.50 381.20 L 753.60 384.50 L 753.30 388.50 L 750.30 381.70 Z" fill="#1c2463" fill-rule="nonzero" group-id="1,16,77,137" id="路径_1153" node-id="162" stroke="none" target-height="39.100006" target-width="39.700012" target-x="749.7" target-y="362.9"></path><path d="M 754.90 416.80 L 756.60 420.40 L 757.70 421.90 L 759.90 423.80 L 762.40 425.20 L 764.20 425.80 L 768.10 426.20 L 771.10 425.90 L 773.80 425.10 L 776.40 423.80 L 778.60 422.00 L 780.50 419.80 L 781.90 417.10 L 777.40 416.80 L 774.80 419.40 L 771.50 420.90 L 769.70 421.10 L 764.70 420.30 L 762.80 419.50 L 761.30 418.50 L 759.90 416.80 Z" fill="#ffffff" fill-rule="nonzero" group-id="1,16,78,138" id="路径_1154" node-id="164" stroke="none" target-height="9.400024" target-width="27" target-x="754.9" target-y="416.8"></path><path d="M 729.10 521.50 L 733.80 524.30 L 738.80 526.60 L 743.90 528.30 L 749.20 529.50 L 754.60 530.20 L 760.10 530.30 L 764.80 530.00 L 772.50 528.60 L 777.70 527.10 L 781.80 525.60 L 785.30 523.90 L 789.50 521.30 L 790.00 517.20 L 729.30 518.10 Z" fill="#ffffff" fill-rule="nonzero" group-id="1,16,78,139" id="路径_1156" node-id="165" stroke="none" target-height="13.099976" target-width="60.900024" target-x="729.1" target-y="517.2"></path><path d="M 741.60 416.80 L 742.40 424.40 L 742.30 427.80 L 741.90 431.60 L 741.00 435.50 L 739.50 439.30 L 738.20 441.60 L 736.50 443.80 L 734.30 445.80 L 732.90 452.70 L 731.70 464.30 L 730.80 478.40 L 729.20 518.90 L 734.20 521.00 L 742.50 523.50 L 748.00 524.50 L 753.80 525.20 L 760.50 525.30 L 769.70 524.40 L 774.70 523.40 L 779.60 521.90 L 784.70 519.90 L 790.00 517.30 L 794.10 488.10 L 802.30 454.40 L 800.10 452.60 L 798.80 450.70 L 797.60 448.30 L 796.10 442.10 L 796.10 434.80 L 797.40 425.90 L 798.90 420.10 L 798.40 419.60 L 796.80 418.90 L 792.30 418.00 L 781.00 416.80 L 780.10 419.50 L 779.10 421.20 L 777.80 422.80 L 775.70 424.40 L 772.10 425.70 L 769.60 426.00 L 767.10 425.90 L 763.00 424.80 L 760.30 423.30 L 756.60 419.70 L 754.70 416.70 Z" fill="#192160" fill-rule="nonzero" group-id="1,16,78,140" id="路径_1155" node-id="166" stroke="none" target-height="108.599976" target-width="73.099976" target-x="729.2" target-y="416.7"></path><path d="M 755.60 462.50 L 753.40 458.10 L 751.20 451.90 L 751.00 449.90 L 751.30 448.30 L 751.90 447.00 L 753.10 446.00 L 754.00 445.60 L 756.10 446.00 L 757.70 447.00 L 763.70 452.80 L 764.60 453.30 L 765.40 453.30 L 765.80 452.80 L 766.20 447.90 L 767.10 447.40 L 768.40 448.30 L 769.30 449.70 L 770.20 452.50 L 773.40 463.20 L 773.10 464.90 L 770.20 470.50 L 766.90 470.30 L 762.30 468.90 L 758.30 466.20 L 755.60 462.50 Z" fill="#c37163" fill-rule="nonzero" group-id="1,16,79,141" id="路径_1159" node-id="168" stroke="none" target-height="24.899994" target-width="22.400024" target-x="751" target-y="445.6"></path><path d="M 768.80 471.20 L 773.90 474.30 L 779.40 463.70 L 773.50 461.00 L 771.60 462.50 L 769.60 465.10 L 768.80 466.90 L 768.50 468.90 L 768.80 471.20 Z" fill="#ffffff" fill-rule="nonzero" group-id="1,16,79,142" id="路径_1158" node-id="169" stroke="none" target-height="13.299988" target-width="10.900024" target-x="768.5" target-y="461"></path><path d="M 802.40 454.40 L 807.80 464.20 L 809.80 468.60 L 810.30 470.50 L 810.40 471.60 L 810.00 472.20 L 808.20 473.00 L 806.20 473.10 L 803.50 472.80 L 798.00 471.40 L 793.00 469.20 L 782.40 461.90 L 779.70 460.70 L 777.10 460.10 L 775.90 461.80 L 774.00 466.40 L 772.60 473.10 L 772.70 475.30 L 778.20 478.70 L 786.90 482.80 L 796.60 486.90 L 805.00 490.30 L 813.40 493.10 L 818.30 494.30 L 820.90 494.50 L 823.20 494.20 L 824.60 493.70 L 826.80 491.70 L 827.50 490.30 L 827.80 488.40 L 827.80 485.60 L 826.10 477.40 L 822.80 466.00 L 818.20 453.00 L 812.80 440.10 L 807.20 429.20 L 805.20 426.10 L 801.70 421.90 L 799.90 420.50 L 798.30 419.90 L 796.90 420.00 L 795.50 420.70 L 794.30 422.00 L 793.50 423.70 L 792.80 428.00 L 793.30 434.80 L 794.20 439.10 L 796.70 447.10 L 798.30 450.50 L 800.80 454.00 L 801.70 454.40 L 802.40 454.40 Z" fill="#3b62fb" fill-rule="nonzero" group-id="1,16,79,143" id="路径_1157" node-id="170" stroke="none" target-height="74.600006" target-width="55.200012" target-x="772.6" target-y="419.9"></path><path d="M 724.90 518.10 L 727.50 519.50 L 731.20 520.60 L 736.20 521.20 L 736.80 520.90 L 737.00 520.30 L 736.80 519.20 L 735.40 516.50 L 730.10 509.20 L 728.80 506.10 L 727.30 501.60 L 726.30 501.80 L 720.70 505.20 L 721.90 511.00 L 723.20 515.40 L 724.90 518.10 Z" fill="#c37163" fill-rule="nonzero" group-id="1,16,80,144" id="路径_1162" node-id="172" stroke="none" target-height="19.600006" target-width="16.299988" target-x="720.7" target-y="501.6"></path><path d="M 718.30 509.10 L 722.50 506.90 L 726.20 504.20 L 729.60 501.10 L 727.00 498.20 L 724.80 495.10 L 716.40 502.50 Z" fill="#ffffff" fill-rule="nonzero" group-id="1,16,80,145" id="路径_1161" node-id="173" stroke="none" target-height="14" target-width="13.199951" target-x="716.4" target-y="495.1"></path><path d="M 733.90 447.10 L 728.30 450.80 L 724.00 454.20 L 715.60 462.20 L 727.20 495.10 L 726.20 497.40 L 725.00 499.00 L 722.60 501.00 L 718.10 503.30 L 714.70 504.40 L 713.60 503.00 L 709.10 493.80 L 699.90 469.30 L 699.10 465.70 L 699.10 463.50 L 699.50 460.90 L 701.10 457.40 L 702.50 455.60 L 714.00 442.90 L 729.10 428.00 L 735.10 422.30 L 741.20 417.00 L 741.70 416.80 L 742.20 417.40 L 743.10 422.20 L 743.00 429.60 L 742.40 433.60 L 741.70 436.30 L 739.50 441.40 L 738.00 443.60 L 736.10 445.50 L 733.90 447.10 Z" fill="#3b62fb" fill-rule="nonzero" group-id="1,16,80,146" id="路径_1160" node-id="174" stroke="none" target-height="87.600006" target-width="44" target-x="699.1" target-y="416.8"></path></g></g></svg>